<svg xmlns="http://www.w3.org/2000/svg" viewBox="0 0 412.57 472.61"><defs><style>.cls-1{fill:#f7e89c;}.cls-2{fill:#ffc910;}.cls-3{fill:#ffab01;}.cls-4{fill:#f99b0f;}.cls-5{fill:#ee5a28;}.cls-6{fill:#ffca10;}.cls-7{fill:#ee8f01;}.cls-8{fill:#e9d6b8;}.cls-9{fill:#b0bfde;}.cls-10{fill:#161711;}.cls-11{fill:#d1dbea;}.cls-12{fill:#163f59;}.cls-13{fill:#e2c59c;}.cls-14{fill:#194866;}.cls-15{fill:#387bff;}.cls-16{fill:#e8dfa7;}.cls-17{fill:#fff;}.cls-18{fill:#e5e8ec;}.cls-19{fill:#254361;}.cls-20{fill:#193145;}</style></defs><title>works3</title><g id="Layer_2" data-name="Layer 2"><g id="Layer_1-2" data-name="Layer 1"><path class="cls-1" d="M217.73,411.56s-5-1-12.25-5.61c-7-4.43-10.25-7.08-17.45-7.08s-17.2,7.08-30.72,2.66-21.57-8.56-33-9.15-34.22,8-44.36,10.33S63.73,392.49,51.68,390C34.36,386.48,28.44,398,20,403.3c-10.37,6.52-13.52,8-19.86,8.26S217.73,411.56,217.73,411.56Z"/><path class="cls-2" d="M302.31,423.28l-.4-10.86c.08,2.24.31,8.29.4,10.61A1,1,0,0,0,302.31,423.28Z"/><path class="cls-3" d="M388.33,407.85q.23,6,.44,12c.11,3.07-3.74,6.3-11.7,9.08-17.21,6-47.09,7.66-66.74,3.67-10.56-2.14-16-5.47-16.14-9l-.44-12c.13,3.56,5.59,6.89,16.14,9,19.66,4,49.54,2.34,66.74-3.67C384.59,414.15,388.44,410.91,388.33,407.85Z"/><path class="cls-2" d="M372.19,398.82c19.65,4,21.64,12.1,4.44,18.11s-47.08,7.65-66.74,3.67-21.64-12.09-4.44-18.11S352.53,394.84,372.19,398.82Zm-56.95,19.91c16.28,3.3,41,1.94,55.28-3s12.6-11.69-3.68-15-41-1.94-55.27,3-12.61,11.7,3.67,15Z"/><path class="cls-3" d="M366.84,400.69c16.28,3.31,17.93,10,3.68,15s-39,6.34-55.28,3-17.92-10-3.67-15S350.56,397.39,366.84,400.69Z"/><path class="cls-4" d="M311.57,405.23c14.25-5,39-6.34,55.27-3,8.1,1.64,12.58,4.13,13.28,6.83.81-3.26-3.7-6.38-13.28-8.33-16.28-3.3-41-1.94-55.27,3-7.16,2.51-10.31,5.45-9.6,8.17C302.54,409.62,305.7,407.28,311.57,405.23Z"/><path class="cls-4" d="M298.27,416.81V428.6a41.3,41.3,0,0,0,12.06,4,116.94,116.94,0,0,0,17.58,2v-12a117.41,117.41,0,0,1-18-2A42.8,42.8,0,0,1,298.27,416.81Z"/><path class="cls-4" d="M360.17,404.44,355.85,406c1.72.5,2.53,1.1,2.43,1.79s-1.1,1.43-3,2.17l-4.45-.9c1.07-.42,1.54-.84,1.4-1.24s-.86-.74-2.17-1a17.36,17.36,0,0,0-4.5-.28,15.44,15.44,0,0,0-4.27.8,4.28,4.28,0,0,0-1,.48.66.66,0,0,0-.35.5c0,.35.79.79,2.42,1.34,1,.32,1.67.58,2.11.78,1.51.69,2.17,1.38,2,2.08s-1.22,1.38-3.09,2a34.55,34.55,0,0,1-8.1,1.67,35.05,35.05,0,0,1-8.3-.09l-5.18,1.81-4.14-.84,5-1.74c-2.19-.61-3.24-1.33-3.15-2.17s1.32-1.67,3.7-2.51l4.28.87c-1.52.58-2.21,1.11-2.09,1.58s1.07.89,2.84,1.25a19.84,19.84,0,0,0,5.17.33,17.64,17.64,0,0,0,4.91-.92,8.31,8.31,0,0,0,1.25-.52,1.65,1.65,0,0,0,.61-.5c.32-.5-.42-1.07-2.21-1.7l-.66-.23c-2.19-.79-3.33-1.54-3.44-2.24s.83-1.4,2.8-2.08a30,30,0,0,1,7.27-1.49,36,36,0,0,1,7.92.13l4.27-1.5Z"/><path class="cls-2" d="M360.17,402.75l-4.32,1.51q2.58.75,2.43,1.8c-.09.7-1.1,1.42-3,2.16l-4.45-.9c1.07-.42,1.54-.84,1.4-1.24s-.86-.74-2.17-1a17.36,17.36,0,0,0-4.5-.28,15.44,15.44,0,0,0-4.27.8,4.28,4.28,0,0,0-1,.48.66.66,0,0,0-.35.5c0,.35.79.79,2.42,1.34,1,.32,1.67.59,2.11.78,1.51.69,2.17,1.39,2,2.08s-1.22,1.38-3.09,2a38.34,38.34,0,0,1-16.4,1.58l-5.18,1.81-4.14-.84,5-1.74q-3.29-.92-3.15-2.16t3.7-2.51l4.28.86c-1.52.58-2.21,1.11-2.09,1.58s1.07.89,2.84,1.25a19.84,19.84,0,0,0,5.17.33,18,18,0,0,0,4.91-.91,9.38,9.38,0,0,0,1.25-.53,1.75,1.75,0,0,0,.61-.49c.32-.51-.42-1.08-2.21-1.71l-.66-.23c-2.19-.79-3.33-1.54-3.44-2.24s.83-1.39,2.8-2.08a30,30,0,0,1,7.27-1.49,36.65,36.65,0,0,1,7.92.13l4.27-1.5Z"/><path class="cls-2" d="M307.41,410.23c-.12-3.26-.28-7.61-.39-10.86.07,2.24.3,8.29.39,10.61Z"/><path class="cls-3" d="M393.44,394.79q.21,6,.43,12c.11,3.06-3.74,6.3-11.7,9.08-17.2,6-47.08,7.65-66.74,3.67-10.55-2.14-16-5.47-16.14-9l-.44-12c.13,3.55,5.59,6.88,16.15,9,19.65,4,49.53,2.35,66.73-3.66C389.7,401.09,393.55,397.86,393.44,394.79Z"/><path class="cls-2" d="M377.29,385.77c19.66,4,21.65,12.09,4.44,18.11s-47.08,7.65-66.73,3.66-21.65-12.09-4.44-18.1S357.64,381.78,377.29,385.77Zm-57,19.9c16.28,3.31,41,1.95,55.28-3s12.6-11.7-3.67-15-41-1.94-55.28,3-12.61,11.69,3.67,15Z"/><path class="cls-3" d="M372,387.64c16.27,3.3,17.92,10,3.67,15s-39,6.34-55.28,3-17.92-10-3.67-15S355.67,384.34,372,387.64Z"/><path class="cls-4" d="M316.67,392.18c14.25-5,39-6.35,55.28-3,8.1,1.64,12.57,4.13,13.27,6.83.81-3.26-3.69-6.39-13.27-8.33-16.28-3.3-41-1.94-55.28,3-7.16,2.5-10.3,5.44-9.6,8.16C307.64,396.57,310.81,394.23,316.67,392.18Z"/><path class="cls-4" d="M303.37,403.76v11.78a41.27,41.27,0,0,0,12.06,4,115.71,115.71,0,0,0,17.58,2v-12a117.08,117.08,0,0,1-18-2A42.8,42.8,0,0,1,303.37,403.76Z"/><path class="cls-4" d="M365.27,391.39,361,392.9c1.73.49,2.54,1.09,2.43,1.79s-1.1,1.42-3,2.17l-4.44-.9c1.06-.43,1.53-.84,1.39-1.24s-.85-.75-2.16-1a17.42,17.42,0,0,0-4.51-.29,15.89,15.89,0,0,0-4.27.8,4.68,4.68,0,0,0-1,.48c-.23.17-.34.33-.34.5,0,.35.78.8,2.41,1.34,1,.33,1.67.59,2.11.79,1.51.69,2.17,1.38,2,2.08s-1.23,1.37-3.09,2a34.23,34.23,0,0,1-8.11,1.68,35,35,0,0,1-8.3-.1l-5.18,1.82-4.14-.84,5-1.74c-2.18-.61-3.23-1.33-3.14-2.17s1.32-1.67,3.69-2.51l4.28.87c-1.51.58-2.21,1.1-2.09,1.58s1.07.88,2.85,1.24a20.27,20.27,0,0,0,5.17.34,17.94,17.94,0,0,0,4.9-.92,8.84,8.84,0,0,0,1.25-.53,1.7,1.7,0,0,0,.62-.49c.31-.51-.43-1.08-2.22-1.7l-.66-.23c-2.19-.8-3.33-1.55-3.43-2.25s.82-1.39,2.79-2.08a30.13,30.13,0,0,1,7.28-1.49,36.57,36.57,0,0,1,7.91.13l4.27-1.49Z"/><path class="cls-2" d="M365.27,389.7,361,391.21c1.73.49,2.54,1.09,2.43,1.79s-1.1,1.42-3,2.17l-4.44-.9c1.06-.43,1.53-.84,1.39-1.24s-.85-.74-2.16-1a17.88,17.88,0,0,0-4.51-.29,15.89,15.89,0,0,0-4.27.8,4.24,4.24,0,0,0-1,.49.63.63,0,0,0-.34.5c0,.34.78.79,2.41,1.34a21.85,21.85,0,0,1,2.11.78c1.51.69,2.17,1.38,2,2.08s-1.23,1.37-3.09,2a34.23,34.23,0,0,1-8.11,1.68,35.6,35.6,0,0,1-8.3-.09l-5.18,1.81-4.14-.84,5-1.74c-2.18-.61-3.23-1.33-3.14-2.17s1.32-1.67,3.69-2.51l4.28.87c-1.51.58-2.21,1.11-2.09,1.58s1.07.89,2.85,1.25a19.84,19.84,0,0,0,5.17.33,17.94,17.94,0,0,0,4.9-.92,7.8,7.8,0,0,0,1.25-.53,1.7,1.7,0,0,0,.62-.49c.31-.51-.43-1.08-2.22-1.7l-.66-.23c-2.19-.8-3.33-1.54-3.43-2.24s.82-1.4,2.79-2.09a30.13,30.13,0,0,1,7.28-1.49,37.22,37.22,0,0,1,7.91.13l4.27-1.49Z"/><path class="cls-2" d="M303.32,394.57l-.4-10.86c.08,2.25.31,8.3.4,10.62A1.92,1.92,0,0,0,303.32,394.57Z"/><path class="cls-3" d="M389.35,379.14q.21,6,.43,12c.11,3.06-3.74,6.29-11.7,9.08-17.21,6-47.08,7.65-66.74,3.67-10.55-2.14-16-5.47-16.14-9l-.44-12c.13,3.55,5.59,6.88,16.14,9,19.66,4,49.54,2.34,66.74-3.67C385.61,385.44,389.46,382.21,389.35,379.14Z"/><path class="cls-2" d="M373.2,370.12c19.65,4,21.65,12.09,4.44,18.1s-47.08,7.66-66.74,3.67-21.64-12.09-4.43-18.1S353.54,366.13,373.2,370.12ZM316.25,390c16.28,3.3,41,1.94,55.28-3s12.6-11.69-3.68-15-41-1.94-55.27,3-12.61,11.69,3.67,15Z"/><path class="cls-3" d="M367.85,372c16.28,3.3,17.93,10,3.68,15s-39,6.34-55.28,3-17.92-10-3.67-15S351.58,368.69,367.85,372Z"/><path class="cls-4" d="M312.58,376.52c14.25-5,39-6.34,55.27-3,8.11,1.65,12.58,4.14,13.28,6.83.81-3.25-3.7-6.38-13.28-8.32-16.27-3.3-41-1.94-55.27,3-7.16,2.5-10.31,5.44-9.6,8.16C303.55,380.92,306.71,378.57,312.58,376.52Z"/><path class="cls-4" d="M299.28,388.11v11.78a41.27,41.27,0,0,0,12.06,4,115.71,115.71,0,0,0,17.58,2v-12a116.18,116.18,0,0,1-18-2A42.83,42.83,0,0,1,299.28,388.11Z"/><path class="cls-4" d="M361.18,375.73l-4.32,1.51c1.72.5,2.54,1.1,2.43,1.8s-1.1,1.42-3,2.17l-4.44-.91c1.06-.42,1.53-.83,1.39-1.24s-.86-.74-2.16-1a17.45,17.45,0,0,0-4.51-.29,15.89,15.89,0,0,0-4.27.8,4.68,4.68,0,0,0-1,.48.66.66,0,0,0-.35.5c0,.35.79.79,2.42,1.34,1,.33,1.67.59,2.11.79,1.51.69,2.17,1.38,2,2.08s-1.22,1.37-3.08,2a38.41,38.41,0,0,1-16.41,1.58l-5.18,1.81-4.14-.84,5-1.74c-2.18-.6-3.24-1.33-3.14-2.16s1.31-1.67,3.69-2.51l4.28.86c-1.52.58-2.21,1.11-2.09,1.58s1.07.89,2.84,1.25a19.87,19.87,0,0,0,5.17.33,18,18,0,0,0,4.91-.91,8.84,8.84,0,0,0,1.25-.53,1.91,1.91,0,0,0,.62-.49q.47-.76-2.22-1.71l-.66-.23c-2.19-.79-3.33-1.54-3.44-2.24s.83-1.39,2.8-2.08a30.15,30.15,0,0,1,7.27-1.49,36.65,36.65,0,0,1,7.92.13L357,374.9Z"/><path class="cls-2" d="M361.18,374.05l-4.32,1.5c1.72.5,2.54,1.1,2.43,1.8s-1.1,1.42-3,2.17l-4.44-.9c1.06-.43,1.53-.84,1.39-1.25s-.86-.74-2.16-1a17.45,17.45,0,0,0-4.51-.29,15.89,15.89,0,0,0-4.27.8,4.68,4.68,0,0,0-1,.48c-.23.17-.35.33-.35.5,0,.35.79.8,2.42,1.34,1,.33,1.67.59,2.11.79,1.51.69,2.17,1.38,2,2.08s-1.22,1.37-3.08,2a34.23,34.23,0,0,1-8.11,1.68,35,35,0,0,1-8.3-.1l-5.18,1.82-4.14-.84,5-1.75c-2.18-.6-3.24-1.33-3.14-2.16s1.31-1.67,3.69-2.51l4.28.87c-1.52.58-2.21,1.1-2.09,1.57s1.07.89,2.84,1.25a19.87,19.87,0,0,0,5.17.33,17.58,17.58,0,0,0,4.91-.91,8.84,8.84,0,0,0,1.25-.53,1.79,1.79,0,0,0,.62-.49c.31-.51-.43-1.08-2.22-1.7l-.66-.24c-2.19-.79-3.33-1.54-3.44-2.24s.83-1.39,2.8-2.08a30.15,30.15,0,0,1,7.27-1.49,36.65,36.65,0,0,1,7.92.13l4.27-1.49Z"/><path class="cls-2" d="M302.31,371.56l-.4-10.86c.08,2.24.31,8.29.4,10.61A1,1,0,0,0,302.31,371.56Z"/><path class="cls-3" d="M388.33,356.13q.23,6,.44,12c.11,3.07-3.74,6.3-11.7,9.08-17.21,6-47.09,7.66-66.74,3.67-10.56-2.14-16-5.47-16.14-9l-.44-12c.13,3.55,5.59,6.88,16.14,9,19.66,4,49.54,2.35,66.74-3.66C384.59,362.42,388.44,359.19,388.33,356.13Z"/><path class="cls-2" d="M372.19,347.1c19.65,4,21.64,12.09,4.44,18.11s-47.08,7.65-66.74,3.66-21.64-12.09-4.44-18.1S352.53,343.12,372.19,347.1ZM315.24,367c16.28,3.3,41,1.94,55.28-3s12.6-11.7-3.68-15-41-1.94-55.27,3S299,363.7,315.24,367Z"/><path class="cls-3" d="M366.84,349c16.28,3.3,17.93,10,3.68,15s-39,6.34-55.28,3-17.92-10-3.67-15S350.56,345.67,366.84,349Z"/><path class="cls-4" d="M311.57,353.51c14.25-5,39-6.34,55.27-3,8.1,1.64,12.58,4.13,13.28,6.83.81-3.26-3.7-6.39-13.28-8.33-16.28-3.3-41-1.94-55.27,3-7.16,2.5-10.31,5.44-9.6,8.17C302.54,357.9,305.7,355.56,311.57,353.51Z"/><path class="cls-4" d="M298.27,365.09v11.78c2.7,1.57,6.73,2.95,12.06,4a115.71,115.71,0,0,0,17.58,2v-12a116.13,116.13,0,0,1-18-2A42.83,42.83,0,0,1,298.27,365.09Z"/><path class="cls-4" d="M360.17,352.72l-4.32,1.51c1.72.49,2.53,1.09,2.43,1.79s-1.1,1.42-3,2.17l-4.45-.9c1.07-.43,1.54-.84,1.4-1.24s-.86-.74-2.17-1a17.8,17.8,0,0,0-4.5-.29,15.82,15.82,0,0,0-4.27.8,3.9,3.9,0,0,0-1,.49c-.23.16-.35.32-.35.49,0,.35.79.8,2.42,1.34,1,.33,1.67.59,2.11.79,1.51.69,2.17,1.38,2,2.08s-1.22,1.37-3.09,2a34,34,0,0,1-8.1,1.68,35.59,35.59,0,0,1-8.3-.09l-5.18,1.81-4.14-.84,5-1.74c-2.19-.61-3.24-1.33-3.15-2.17s1.32-1.67,3.7-2.51l4.28.87c-1.52.58-2.21,1.1-2.09,1.58s1.07.89,2.84,1.24a19.83,19.83,0,0,0,5.17.34,18,18,0,0,0,4.91-.92,8.22,8.22,0,0,0,1.25-.53,1.64,1.64,0,0,0,.61-.49c.32-.51-.42-1.08-2.21-1.7l-.66-.23c-2.19-.8-3.33-1.54-3.44-2.24s.83-1.4,2.8-2.09a29.59,29.59,0,0,1,7.27-1.48,36,36,0,0,1,7.92.12l4.27-1.49Z"/><path class="cls-2" d="M360.17,351l-4.32,1.51c1.72.49,2.53,1.09,2.43,1.79s-1.1,1.43-3,2.17l-4.45-.9c1.07-.43,1.54-.84,1.4-1.24s-.86-.74-2.17-1a17.8,17.8,0,0,0-4.5-.29,15.82,15.82,0,0,0-4.27.8,4.64,4.64,0,0,0-1,.49.66.66,0,0,0-.35.5c0,.34.79.79,2.42,1.34,1,.32,1.67.58,2.11.78,1.51.69,2.17,1.38,2,2.08s-1.22,1.37-3.09,2a34,34,0,0,1-8.1,1.68,35.59,35.59,0,0,1-8.3-.09l-5.18,1.81-4.14-.84,5-1.74c-2.19-.61-3.24-1.33-3.15-2.17s1.32-1.67,3.7-2.51l4.28.87c-1.52.58-2.21,1.11-2.09,1.58s1.07.89,2.84,1.25a19.84,19.84,0,0,0,5.17.33,18,18,0,0,0,4.91-.92,8.22,8.22,0,0,0,1.25-.53,1.64,1.64,0,0,0,.61-.49c.32-.51-.42-1.08-2.21-1.7l-.66-.23c-2.19-.8-3.33-1.54-3.44-2.24s.83-1.4,2.8-2.09a30.06,30.06,0,0,1,7.27-1.48,36.66,36.66,0,0,1,7.92.12l4.27-1.49Z"/><path class="cls-2" d="M307.41,358.5c-.12-3.25-.28-7.6-.39-10.86.07,2.24.3,8.29.39,10.61Z"/><path class="cls-3" d="M393.44,343.07q.21,6,.43,12c.11,3.06-3.74,6.29-11.7,9.08-17.2,6-47.08,7.65-66.74,3.67-10.55-2.15-16-5.47-16.14-9l-.44-12c.13,3.55,5.59,6.88,16.15,9,19.65,4,49.53,2.34,66.73-3.67C389.7,349.37,393.55,346.14,393.44,343.07Z"/><path class="cls-2" d="M377.29,334.05c19.66,4,21.65,12.09,4.44,18.1s-47.08,7.66-66.73,3.67-21.65-12.09-4.44-18.1S357.64,330.06,377.29,334.05Zm-57,19.9c16.28,3.3,41,1.94,55.28-3s12.6-11.69-3.67-15-41-1.94-55.28,3-12.61,11.69,3.67,15Z"/><path class="cls-3" d="M372,335.92c16.27,3.3,17.92,10,3.67,15s-39,6.34-55.28,3-17.92-10-3.67-15S355.67,332.61,372,335.92Z"/><path class="cls-4" d="M316.67,340.45c14.25-5,39-6.34,55.28-3,8.1,1.64,12.57,4.13,13.27,6.83.81-3.25-3.69-6.38-13.27-8.32-16.28-3.31-41-1.94-55.28,3-7.16,2.5-10.3,5.44-9.6,8.16C307.64,344.84,310.81,342.5,316.67,340.45Z"/><path class="cls-4" d="M303.37,352v11.79a41.57,41.57,0,0,0,12.06,4,117,117,0,0,0,17.58,2v-12a117.13,117.13,0,0,1-18-2A42.76,42.76,0,0,1,303.37,352Z"/><path class="cls-4" d="M365.27,339.66,361,341.17q2.6.75,2.43,1.8c-.09.7-1.1,1.42-3,2.16l-4.44-.9c1.06-.42,1.53-.84,1.39-1.24s-.85-.74-2.16-1a17.89,17.89,0,0,0-4.51-.28,15.51,15.51,0,0,0-4.27.8,4.68,4.68,0,0,0-1,.48.65.65,0,0,0-.34.5c0,.35.78.79,2.41,1.34,1,.33,1.67.59,2.11.79,1.51.68,2.17,1.38,2,2.08s-1.23,1.37-3.09,2A38.41,38.41,0,0,1,332,351.29l-5.18,1.81-4.14-.84,5-1.74c-2.18-.6-3.23-1.33-3.14-2.16s1.32-1.68,3.69-2.51l4.28.86c-1.51.58-2.21,1.11-2.09,1.58s1.07.89,2.85,1.25a19.84,19.84,0,0,0,5.17.33,18,18,0,0,0,4.9-.91,8.84,8.84,0,0,0,1.25-.53,1.81,1.81,0,0,0,.62-.49q.46-.76-2.22-1.71l-.66-.23c-2.19-.79-3.33-1.54-3.43-2.24s.82-1.39,2.79-2.08a30.13,30.13,0,0,1,7.28-1.49,36.57,36.57,0,0,1,7.91.13l4.27-1.5Z"/><path class="cls-2" d="M365.27,338,361,339.48q2.6.75,2.43,1.8c-.09.7-1.1,1.42-3,2.17l-4.44-.9c1.06-.43,1.53-.84,1.39-1.25s-.85-.74-2.16-1a17.42,17.42,0,0,0-4.51-.29,15.89,15.89,0,0,0-4.27.8,4.68,4.68,0,0,0-1,.48c-.23.17-.34.33-.34.5,0,.35.78.8,2.41,1.34,1,.33,1.67.59,2.11.79,1.51.68,2.17,1.38,2,2.08s-1.23,1.37-3.09,2A38.41,38.41,0,0,1,332,349.6l-5.18,1.81-4.14-.83,5-1.75c-2.18-.6-3.23-1.33-3.14-2.16s1.32-1.67,3.69-2.51l4.28.86c-1.51.59-2.21,1.11-2.09,1.58s1.07.89,2.85,1.25a19.84,19.84,0,0,0,5.17.33,18,18,0,0,0,4.9-.91,8.84,8.84,0,0,0,1.25-.53,1.81,1.81,0,0,0,.62-.49c.31-.51-.43-1.08-2.22-1.7l-.66-.24c-2.19-.79-3.33-1.54-3.43-2.24s.82-1.39,2.79-2.08A30.13,30.13,0,0,1,349,338.5a36.57,36.57,0,0,1,7.91.13l4.27-1.49Z"/><path class="cls-2" d="M303.32,342.85l-.4-10.86c.08,2.24.31,8.29.4,10.61A2.08,2.08,0,0,0,303.32,342.85Z"/><path class="cls-3" d="M389.35,327.42q.21,6,.43,12c.11,3.07-3.74,6.3-11.7,9.09-17.21,6-47.08,7.65-66.74,3.66-10.55-2.14-16-5.47-16.14-9l-.44-12c.13,3.55,5.59,6.88,16.14,9,19.66,4,49.54,2.34,66.74-3.67C385.61,333.72,389.46,330.48,389.35,327.42Z"/><path class="cls-2" d="M373.2,318.39c19.65,4,21.65,12.1,4.44,18.11s-47.08,7.65-66.74,3.67-21.64-12.09-4.43-18.11S353.54,314.41,373.2,318.39ZM316.25,338.3c16.28,3.3,41,1.94,55.28-3s12.6-11.69-3.68-15-41-1.94-55.27,3-12.61,11.7,3.67,15Z"/><path class="cls-3" d="M367.85,320.26c16.28,3.31,17.93,10,3.68,15s-39,6.34-55.28,3-17.92-10-3.67-15S351.58,317,367.85,320.26Z"/><path class="cls-4" d="M312.58,324.8c14.25-5,39-6.34,55.27-3,8.11,1.64,12.58,4.13,13.28,6.83.81-3.26-3.7-6.38-13.28-8.33-16.27-3.3-41-1.94-55.27,3-7.16,2.51-10.31,5.44-9.6,8.17C303.55,329.19,306.71,326.85,312.58,324.8Z"/><path class="cls-4" d="M299.28,336.38v11.78c2.7,1.57,6.73,2.95,12.06,4a116.94,116.94,0,0,0,17.58,2v-12a117.41,117.41,0,0,1-18-2A42.8,42.8,0,0,1,299.28,336.38Z"/><path class="cls-4" d="M361.18,324l-4.32,1.51c1.72.5,2.54,1.1,2.43,1.79s-1.1,1.43-3,2.17l-4.44-.9c1.06-.42,1.53-.84,1.39-1.24s-.86-.74-2.16-1a17.47,17.47,0,0,0-4.51-.28,15.91,15.91,0,0,0-4.27.79,5.13,5.13,0,0,0-1,.49.66.66,0,0,0-.35.5c0,.35.79.79,2.42,1.34,1,.32,1.67.58,2.11.78,1.51.69,2.17,1.38,2,2.08s-1.22,1.38-3.08,2a38.83,38.83,0,0,1-16.41,1.58l-5.18,1.81-4.14-.84,5-1.74c-2.18-.61-3.24-1.33-3.14-2.17s1.31-1.67,3.69-2.51l4.28.87c-1.52.58-2.21,1.11-2.09,1.58s1.07.89,2.84,1.25a19.87,19.87,0,0,0,5.17.33,17.94,17.94,0,0,0,4.91-.92,9,9,0,0,0,1.25-.52,1.79,1.79,0,0,0,.62-.5c.31-.51-.43-1.07-2.22-1.7l-.66-.23c-2.19-.8-3.33-1.54-3.44-2.24s.83-1.4,2.8-2.09a30.16,30.16,0,0,1,7.27-1.48,36.66,36.66,0,0,1,7.92.12l4.27-1.49Z"/><path class="cls-2" d="M361.18,322.32l-4.32,1.51c1.72.5,2.54,1.1,2.43,1.8s-1.1,1.42-3,2.16l-4.44-.9c1.06-.42,1.53-.84,1.39-1.24s-.86-.74-2.16-1a17.47,17.47,0,0,0-4.51-.28,15.51,15.51,0,0,0-4.27.8,4.68,4.68,0,0,0-1,.48.66.66,0,0,0-.35.5c0,.35.79.79,2.42,1.34,1,.32,1.67.59,2.11.78,1.51.69,2.17,1.39,2,2.08s-1.22,1.38-3.08,2A38.41,38.41,0,0,1,327.91,334l-5.18,1.81-4.14-.84,5-1.74c-2.18-.61-3.24-1.33-3.14-2.16s1.31-1.68,3.69-2.52l4.28.87c-1.52.58-2.21,1.11-2.09,1.58s1.07.89,2.84,1.25a19.87,19.87,0,0,0,5.17.33,17.57,17.57,0,0,0,4.91-.92,7.88,7.88,0,0,0,1.25-.52,1.91,1.91,0,0,0,.62-.49q.47-.77-2.22-1.71l-.66-.23c-2.19-.79-3.33-1.54-3.44-2.24s.83-1.39,2.8-2.08a30.15,30.15,0,0,1,7.27-1.49,36.65,36.65,0,0,1,7.92.13l4.27-1.5Z"/><path class="cls-2" d="M150.47,417.31c-.13-3.43-.29-8-.42-11.41.09,2.35.32,8.71.42,11.15A1.13,1.13,0,0,0,150.47,417.31Z"/><path class="cls-3" d="M240.86,401.09q.22,6.33.46,12.64c.12,3.22-3.93,6.61-12.3,9.54-18.08,6.32-49.47,8-70.12,3.85-11.09-2.24-16.83-5.74-17-9.48L141.48,405c.13,3.73,5.87,7.23,17,9.48,20.65,4.19,52.05,2.46,70.12-3.86C236.93,407.71,241,404.31,240.86,401.09Z"/><path class="cls-2" d="M223.9,391.61c20.65,4.19,22.74,12.71,4.66,19s-49.47,8.05-70.12,3.86-22.74-12.71-4.67-19S203.24,387.42,223.9,391.61Zm-59.84,20.92c17.1,3.46,43.11,2,58.08-3.2s13.24-12.29-3.86-15.76-43.11-2-58.08,3.2-13.25,12.28,3.86,15.76Z"/><path class="cls-3" d="M218.28,393.57c17.1,3.47,18.83,10.53,3.86,15.76s-41,6.66-58.08,3.2S145.22,402,160.2,396.77,201.17,390.11,218.28,393.57Z"/><path class="cls-4" d="M160.2,398.34c15-5.23,41-6.66,58.08-3.19,8.51,1.72,13.21,4.34,13.95,7.17.85-3.42-3.88-6.7-13.95-8.75-17.11-3.46-43.11-2-58.08,3.2-7.53,2.63-10.83,5.72-10.09,8.58C150.71,403,154,400.49,160.2,398.34Z"/><path class="cls-4" d="M146.23,410.51v12.38c2.83,1.64,7.07,3.1,12.67,4.23a121.55,121.55,0,0,0,18.47,2.12V416.62a122.2,122.2,0,0,1-18.93-2.13A44.94,44.94,0,0,1,146.23,410.51Z"/><path class="cls-4" d="M211.26,397.51l-4.53,1.59c1.81.52,2.66,1.15,2.55,1.88s-1.16,1.5-3.16,2.28l-4.67-.95c1.12-.44,1.61-.88,1.47-1.3s-.91-.78-2.28-1.06a18.24,18.24,0,0,0-4.73-.3,16.68,16.68,0,0,0-4.5.84,4.89,4.89,0,0,0-1.09.51.68.68,0,0,0-.36.52c0,.37.82.84,2.54,1.41a22.82,22.82,0,0,1,2.21.83c1.59.72,2.29,1.45,2.08,2.18s-1.28,1.44-3.25,2.13a40.49,40.49,0,0,1-17.23,1.66l-5.45,1.9-4.35-.88,5.24-1.83c-2.3-.64-3.4-1.39-3.31-2.27s1.39-1.76,3.89-2.64l4.49.91c-1.59.61-2.32,1.16-2.19,1.66s1.12.93,3,1.31a21,21,0,0,0,5.44.35,18.87,18.87,0,0,0,5.15-1,9.14,9.14,0,0,0,1.31-.56,1.69,1.69,0,0,0,.65-.52c.33-.53-.44-1.13-2.33-1.78l-.69-.25c-2.3-.83-3.5-1.62-3.61-2.35s.87-1.47,2.94-2.19a31.38,31.38,0,0,1,7.64-1.56,37.81,37.81,0,0,1,8.32.13l4.48-1.57Z"/><path class="cls-2" d="M211.26,395.74l-4.53,1.58q2.72.8,2.55,1.89c-.1.73-1.16,1.49-3.16,2.28l-4.67-.95c1.12-.45,1.61-.88,1.47-1.31s-.91-.77-2.28-1.05a18.24,18.24,0,0,0-4.73-.3,16.3,16.3,0,0,0-4.5.84,4.93,4.93,0,0,0-1.09.5.7.7,0,0,0-.36.53c0,.36.82.83,2.54,1.41a23.43,23.43,0,0,1,2.21.82c1.59.72,2.29,1.45,2.08,2.19s-1.28,1.44-3.25,2.12a36.17,36.17,0,0,1-8.51,1.77,37.51,37.51,0,0,1-8.72-.1l-5.45,1.9-4.35-.88,5.24-1.83c-2.3-.64-3.4-1.4-3.31-2.28s1.39-1.75,3.89-2.64l4.49.92q-2.38.92-2.19,1.65c.13.5,1.12.94,3,1.32a21,21,0,0,0,5.44.34,18.87,18.87,0,0,0,5.15-1,9.25,9.25,0,0,0,1.31-.55,1.79,1.79,0,0,0,.65-.52c.33-.53-.44-1.13-2.33-1.79l-.69-.24c-2.3-.84-3.5-1.62-3.61-2.36s.87-1.46,2.94-2.19a31.86,31.86,0,0,1,7.64-1.56,38.44,38.44,0,0,1,8.32.13l4.48-1.56Z"/><path class="cls-2" d="M156.31,400.6c-.13-3.42-.29-8-.42-11.41.09,2.35.32,8.71.42,11.15A1.13,1.13,0,0,0,156.31,400.6Z"/><path class="cls-3" d="M246.7,384.39q.23,6.32.46,12.63c.11,3.22-3.93,6.62-12.3,9.54-18.08,6.32-49.47,8.05-70.12,3.86-11.09-2.25-16.83-5.75-17-9.48l-.46-12.64c.14,3.73,5.88,7.23,17,9.48,20.65,4.19,52,2.46,70.12-3.85C242.77,391,246.82,387.61,246.7,384.39Z"/><path class="cls-2" d="M229.74,374.9c20.65,4.19,22.74,12.71,4.66,19s-49.47,8-70.12,3.85-22.74-12.7-4.67-19S209.08,370.71,229.74,374.9ZM169.9,395.82c17.1,3.47,43.11,2,58.08-3.19s13.24-12.29-3.86-15.76-43.11-2-58.08,3.19-13.25,12.29,3.86,15.76Z"/><path class="cls-3" d="M224.12,376.87c17.1,3.47,18.83,10.52,3.86,15.76s-41,6.66-58.08,3.19-18.84-10.53-3.86-15.76S207,373.4,224.12,376.87Z"/><path class="cls-4" d="M166,381.63c15-5.23,41-6.66,58.08-3.19,8.51,1.73,13.21,4.34,13.94,7.18.86-3.43-3.88-6.71-13.94-8.75-17.11-3.47-43.11-2-58.08,3.19-7.53,2.63-10.83,5.72-10.09,8.58C156.55,386.25,159.87,383.79,166,381.63Z"/><path class="cls-4" d="M152.06,393.8v12.38c2.84,1.65,7.08,3.1,12.68,4.24a122.74,122.74,0,0,0,18.47,2.11V399.92a123.24,123.24,0,0,1-18.93-2.14A44.8,44.8,0,0,1,152.06,393.8Z"/><path class="cls-4" d="M217.1,380.81l-4.53,1.58q2.72.78,2.55,1.89c-.1.73-1.16,1.49-3.17,2.27l-4.66-.94c1.12-.45,1.61-.88,1.46-1.31s-.9-.78-2.27-1.06a19.16,19.16,0,0,0-4.73-.3,16.68,16.68,0,0,0-4.5.84,4.89,4.89,0,0,0-1.09.51.7.7,0,0,0-.36.52c0,.37.82.84,2.54,1.41a22.82,22.82,0,0,1,2.21.83c1.59.72,2.29,1.45,2.08,2.18s-1.29,1.45-3.25,2.13A40.49,40.49,0,0,1,182.15,393l-5.45,1.91-4.35-.89,5.24-1.82c-2.3-.64-3.4-1.4-3.31-2.28s1.39-1.76,3.89-2.64l4.49.91c-1.59.61-2.32,1.17-2.19,1.66s1.12.94,3,1.31a20.58,20.58,0,0,0,5.44.35,18.87,18.87,0,0,0,5.15-1,8.13,8.13,0,0,0,1.31-.56,1.77,1.77,0,0,0,.65-.51c.33-.54-.45-1.13-2.33-1.79l-.69-.24c-2.3-.84-3.5-1.62-3.61-2.36s.87-1.46,2.94-2.19a31.38,31.38,0,0,1,7.64-1.56,38.35,38.35,0,0,1,8.31.13l4.49-1.57Z"/><path class="cls-2" d="M217.1,379l-4.53,1.59c1.81.52,2.66,1.15,2.55,1.88S214,384,212,384.78l-4.66-.95c1.12-.44,1.61-.88,1.46-1.3s-.9-.78-2.27-1.06a18.24,18.24,0,0,0-4.73-.3,16.68,16.68,0,0,0-4.5.84,4.89,4.89,0,0,0-1.09.51.68.68,0,0,0-.36.52c0,.37.82.84,2.54,1.41a23.43,23.43,0,0,1,2.21.82c1.59.73,2.29,1.46,2.08,2.19s-1.29,1.44-3.25,2.13a40.49,40.49,0,0,1-17.23,1.66l-5.45,1.9-4.35-.88,5.24-1.83c-2.3-.64-3.4-1.4-3.31-2.27s1.39-1.76,3.89-2.64l4.49.91c-1.59.61-2.32,1.16-2.19,1.66s1.12.93,3,1.31a21,21,0,0,0,5.44.35,18.49,18.49,0,0,0,5.15-1,8.21,8.21,0,0,0,1.31-.55,1.77,1.77,0,0,0,.65-.52c.33-.53-.45-1.13-2.33-1.79l-.69-.24c-2.3-.83-3.5-1.62-3.61-2.35s.87-1.47,2.94-2.19a31.84,31.84,0,0,1,7.64-1.57,38.34,38.34,0,0,1,8.31.14l4.49-1.57Z"/><path class="cls-2" d="M151.85,382.88c-.12-3.42-.29-8-.41-11.41.08,2.35.32,8.71.41,11.15Z"/><path class="cls-3" d="M242.25,366.66l.45,12.64c.12,3.22-3.93,6.62-12.29,9.54-18.08,6.32-49.47,8-70.13,3.86-11.09-2.25-16.83-5.75-17-9.49l-.46-12.63c.14,3.73,5.87,7.23,17,9.48,20.66,4.19,52.05,2.46,70.13-3.86C238.32,373.28,242.36,369.88,242.25,366.66Z"/><path class="cls-2" d="M225.28,357.18c20.65,4.19,22.74,12.71,4.67,19s-49.47,8.05-70.13,3.86-22.74-12.7-4.66-19S204.63,353,225.28,357.18ZM165.44,378.1c17.11,3.47,43.11,2,58.09-3.2s13.24-12.28-3.87-15.75-43.1-2-58.08,3.19-13.24,12.29,3.86,15.76Z"/><path class="cls-3" d="M219.66,359.15c17.11,3.47,18.84,10.52,3.87,15.75s-41,6.67-58.09,3.2-18.83-10.53-3.86-15.76S202.56,355.68,219.66,359.15Z"/><path class="cls-4" d="M161.58,363.91c15-5.23,41-6.66,58.08-3.19,8.52,1.72,13.22,4.34,14,7.18.86-3.43-3.88-6.71-14-8.75-17.1-3.47-43.1-2-58.08,3.19-7.52,2.63-10.82,5.72-10.08,8.58C152.09,368.53,155.42,366.07,161.58,363.91Z"/><path class="cls-4" d="M147.61,376.08v12.38c2.84,1.64,7.07,3.1,12.67,4.24a123,123,0,0,0,18.47,2.11V382.2a123.53,123.53,0,0,1-18.93-2.14A45.18,45.18,0,0,1,147.61,376.08Z"/><path class="cls-4" d="M212.65,363.08l-4.54,1.59c1.81.52,2.67,1.15,2.56,1.88s-1.16,1.5-3.17,2.28l-4.67-.94c1.12-.45,1.61-.89,1.47-1.31s-.9-.78-2.28-1.06a18.21,18.21,0,0,0-4.73-.3,16.6,16.6,0,0,0-4.49.84,4.89,4.89,0,0,0-1.09.51.7.7,0,0,0-.36.52c0,.37.82.84,2.53,1.41a23.26,23.26,0,0,1,2.22.83c1.59.72,2.29,1.45,2.08,2.18s-1.29,1.44-3.25,2.13a36.3,36.3,0,0,1-8.51,1.76,37.05,37.05,0,0,1-8.73-.1l-5.44,1.91-4.35-.89,5.23-1.83c-2.29-.63-3.4-1.39-3.3-2.27s1.38-1.76,3.88-2.64l4.5.91c-1.59.61-2.32,1.16-2.2,1.66s1.12.93,3,1.31a20.93,20.93,0,0,0,5.43.35,18.94,18.94,0,0,0,5.16-1,8.54,8.54,0,0,0,1.31-.56,2,2,0,0,0,.65-.51c.33-.54-.45-1.14-2.33-1.79l-.69-.25c-2.3-.83-3.51-1.62-3.62-2.35s.87-1.47,2.94-2.19a31.56,31.56,0,0,1,7.65-1.56,38.35,38.35,0,0,1,8.31.13l4.49-1.57Z"/><path class="cls-2" d="M212.65,361.31l-4.54,1.58c1.81.53,2.67,1.16,2.56,1.89s-1.16,1.49-3.17,2.28l-4.67-.95c1.12-.45,1.61-.88,1.47-1.3s-.9-.78-2.28-1.06a18.21,18.21,0,0,0-4.73-.3,16.6,16.6,0,0,0-4.49.84,5.44,5.44,0,0,0-1.09.5c-.24.18-.36.35-.36.53,0,.36.82.83,2.53,1.41,1,.34,1.76.61,2.22.82,1.59.73,2.29,1.45,2.08,2.19s-1.29,1.44-3.25,2.12a36.28,36.28,0,0,1-8.51,1.77,37.6,37.6,0,0,1-8.73-.1l-5.44,1.9-4.35-.88,5.23-1.83c-2.29-.64-3.4-1.4-3.3-2.28s1.38-1.75,3.88-2.64l4.5.92c-1.59.61-2.32,1.16-2.2,1.66s1.12.93,3,1.31a21.38,21.38,0,0,0,5.43.35,18.93,18.93,0,0,0,5.16-1,8.62,8.62,0,0,0,1.31-.55,1.87,1.87,0,0,0,.65-.52c.33-.53-.45-1.13-2.33-1.79l-.69-.24c-2.3-.84-3.51-1.62-3.62-2.35s.87-1.47,2.94-2.19a31.55,31.55,0,0,1,7.65-1.57,38.34,38.34,0,0,1,8.31.14l4.49-1.57Z"/><path class="cls-2" d="M144.88,368c-.12-3.42-.29-8-.41-11.41.08,2.35.32,8.71.41,11.15Z"/><path class="cls-3" d="M235.27,351.79q.24,6.33.46,12.64c.12,3.22-3.93,6.61-12.3,9.54-18.07,6.32-49.47,8-70.12,3.85-11.09-2.24-16.83-5.74-17-9.48l-.46-12.63c.13,3.73,5.87,7.23,17,9.48,20.65,4.19,52.05,2.46,70.13-3.86C231.34,358.41,235.39,355,235.27,351.79Z"/><path class="cls-2" d="M218.31,342.31c20.65,4.19,22.74,12.71,4.67,19s-49.48,8.05-70.13,3.86-22.74-12.71-4.66-19S197.66,338.12,218.31,342.31Zm-59.84,20.92c17.11,3.46,43.11,2,58.08-3.2s13.25-12.29-3.86-15.76-43.11-2-58.08,3.2-13.24,12.29,3.86,15.76Z"/><path class="cls-3" d="M212.69,344.27c17.11,3.47,18.84,10.53,3.86,15.76s-41,6.66-58.08,3.2-18.83-10.53-3.86-15.76S195.59,340.81,212.69,344.27Z"/><path class="cls-4" d="M154.61,349c15-5.23,41-6.66,58.08-3.19,8.51,1.72,13.22,4.34,13.95,7.18.85-3.43-3.88-6.71-13.95-8.76-17.1-3.46-43.11-2-58.08,3.2-7.52,2.63-10.83,5.72-10.09,8.58C145.12,353.66,148.45,351.2,154.61,349Z"/><path class="cls-4" d="M140.64,361.21v12.38c2.84,1.64,7.07,3.1,12.67,4.23a121.55,121.55,0,0,0,18.47,2.12V367.32a122.2,122.2,0,0,1-18.93-2.13A45.06,45.06,0,0,1,140.64,361.21Z"/><path class="cls-4" d="M205.68,348.21l-4.54,1.59c1.81.52,2.66,1.15,2.55,1.88s-1.16,1.5-3.16,2.28l-4.67-.95c1.12-.44,1.61-.88,1.47-1.3s-.9-.78-2.28-1.06a18.21,18.21,0,0,0-4.73-.3,16.53,16.53,0,0,0-4.49.84,4.68,4.68,0,0,0-1.09.51c-.25.17-.37.34-.37.52,0,.37.83.84,2.54,1.41a23.26,23.26,0,0,1,2.22.83c1.59.72,2.28,1.45,2.07,2.18s-1.28,1.44-3.24,2.13a40.56,40.56,0,0,1-17.24,1.66l-5.44,1.9-4.35-.88,5.23-1.83c-2.3-.64-3.4-1.39-3.3-2.27s1.38-1.76,3.88-2.64l4.49.91c-1.59.61-2.32,1.16-2.19,1.66s1.12.93,3,1.31a20.93,20.93,0,0,0,5.43.35,18.94,18.94,0,0,0,5.16-1,9.66,9.66,0,0,0,1.31-.56,2,2,0,0,0,.65-.51c.32-.54-.45-1.14-2.34-1.79l-.68-.25c-2.3-.83-3.51-1.62-3.62-2.35s.87-1.47,2.94-2.19a31.48,31.48,0,0,1,7.64-1.56,38.43,38.43,0,0,1,8.32.13l4.49-1.57Z"/><path class="cls-2" d="M205.68,346.44,201.14,348q2.72.8,2.55,1.89c-.1.73-1.16,1.49-3.16,2.28l-4.67-.95c1.12-.45,1.61-.88,1.47-1.3s-.9-.78-2.28-1.06a18.21,18.21,0,0,0-4.73-.3,16.53,16.53,0,0,0-4.49.84,4.72,4.72,0,0,0-1.09.5c-.25.18-.37.35-.37.53,0,.36.83.83,2.54,1.41,1,.34,1.76.61,2.22.82,1.59.73,2.28,1.45,2.07,2.19s-1.28,1.44-3.24,2.12a36.37,36.37,0,0,1-8.52,1.77,37.51,37.51,0,0,1-8.72-.1l-5.44,1.9-4.35-.88,5.23-1.83q-3.45-1-3.3-2.28c.09-.88,1.38-1.75,3.88-2.64l4.49.92q-2.39.91-2.19,1.65c.13.5,1.12.94,3,1.32a20.94,20.94,0,0,0,5.43.34,18.94,18.94,0,0,0,5.16-1,9.78,9.78,0,0,0,1.31-.55,2,2,0,0,0,.65-.52c.32-.53-.45-1.13-2.34-1.79l-.68-.24c-2.3-.84-3.51-1.62-3.62-2.36s.87-1.46,2.94-2.19a32,32,0,0,1,7.64-1.56,39.07,39.07,0,0,1,8.32.13l4.49-1.56Z"/><path class="cls-2" d="M230.4,444.29c-.12-3.42-.29-8-.41-11.41.08,2.36.32,8.71.41,11.15Z"/><path class="cls-3" d="M320.8,428.08l.45,12.63c.12,3.22-3.92,6.62-12.29,9.54-18.08,6.32-49.47,8.05-70.13,3.86-11.09-2.25-16.82-5.75-17-9.48L221.41,432c.14,3.74,5.87,7.23,17,9.48,20.66,4.19,52.05,2.47,70.13-3.85C316.87,434.69,320.91,431.3,320.8,428.08Z"/><path class="cls-2" d="M303.83,418.59c20.65,4.19,22.75,12.71,4.67,19s-49.47,8-70.13,3.85-22.73-12.7-4.66-19S283.18,414.41,303.83,418.59ZM244,439.51c17.11,3.47,43.11,2,58.09-3.19s13.24-12.29-3.87-15.76-43.1-2-58.08,3.19S226.89,436,244,439.51Z"/><path class="cls-3" d="M298.21,420.56c17.11,3.47,18.84,10.52,3.87,15.76s-41,6.66-58.09,3.19-18.83-10.52-3.86-15.76S281.11,417.09,298.21,420.56Z"/><path class="cls-4" d="M240.13,425.33c15-5.24,41-6.67,58.08-3.2,8.52,1.73,13.22,4.34,14,7.18.86-3.42-3.88-6.71-14-8.75-17.1-3.47-43.1-2-58.08,3.19-7.52,2.63-10.82,5.72-10.08,8.58C230.64,429.94,234,427.48,240.13,425.33Z"/><path class="cls-4" d="M226.16,437.5v12.38c2.84,1.64,7.07,3.09,12.67,4.23a121.61,121.61,0,0,0,18.47,2.11V443.61a123.53,123.53,0,0,1-18.93-2.14A45.22,45.22,0,0,1,226.16,437.5Z"/><path class="cls-4" d="M291.2,424.5l-4.53,1.58c1.8.52,2.66,1.15,2.55,1.89s-1.16,1.49-3.17,2.27l-4.67-.94c1.13-.45,1.61-.88,1.47-1.31s-.9-.77-2.27-1.05a18.32,18.32,0,0,0-4.74-.3,16.61,16.61,0,0,0-4.49.83,5.38,5.38,0,0,0-1.09.51.7.7,0,0,0-.36.53c0,.36.82.83,2.53,1.4,1,.35,1.76.62,2.22.83,1.59.72,2.29,1.45,2.08,2.19s-1.29,1.44-3.25,2.12a35.8,35.8,0,0,1-8.51,1.76,36.53,36.53,0,0,1-8.73-.1l-5.44,1.91-4.35-.88,5.23-1.83c-2.29-.64-3.4-1.4-3.3-2.28s1.38-1.76,3.88-2.64l4.5.91c-1.59.61-2.32,1.17-2.2,1.66s1.13.94,3,1.32a20.94,20.94,0,0,0,5.43.34,18.94,18.94,0,0,0,5.16-1,9.25,9.25,0,0,0,1.31-.55,2,2,0,0,0,.65-.52c.33-.54-.45-1.13-2.33-1.79l-.69-.24c-2.3-.84-3.5-1.62-3.61-2.36s.86-1.46,2.93-2.19a31.56,31.56,0,0,1,7.65-1.56,38.35,38.35,0,0,1,8.31.13l4.49-1.56Z"/><path class="cls-2" d="M291.2,422.72l-4.53,1.59c1.8.52,2.66,1.15,2.55,1.88s-1.16,1.5-3.17,2.28l-4.67-1c1.13-.44,1.61-.88,1.47-1.3s-.9-.78-2.27-1.06a18.32,18.32,0,0,0-4.74-.3,16.6,16.6,0,0,0-4.49.84,4.89,4.89,0,0,0-1.09.51.68.68,0,0,0-.36.52c0,.37.82.84,2.53,1.41,1,.34,1.76.62,2.22.82,1.59.73,2.29,1.46,2.08,2.19s-1.29,1.44-3.25,2.13a40.52,40.52,0,0,1-17.24,1.66l-5.44,1.9-4.35-.88,5.23-1.83c-2.29-.64-3.4-1.4-3.3-2.27s1.38-1.76,3.88-2.64l4.5.91c-1.59.61-2.32,1.16-2.2,1.66s1.13.93,3,1.31a20.93,20.93,0,0,0,5.43.35,18.94,18.94,0,0,0,5.16-1,9.14,9.14,0,0,0,1.31-.56,1.87,1.87,0,0,0,.65-.52c.33-.53-.45-1.13-2.33-1.78l-.69-.25c-2.3-.83-3.5-1.62-3.61-2.35s.86-1.47,2.93-2.19a31.56,31.56,0,0,1,7.65-1.56,37.72,37.72,0,0,1,8.31.13l4.49-1.57Z"/><path class="cls-2" d="M230,427.59c-.12-3.43-.29-8-.41-11.42.08,2.36.32,8.72.42,11.15A2.44,2.44,0,0,0,230,427.59Z"/><path class="cls-3" d="M320.43,411.37l.45,12.64c.12,3.22-3.92,6.61-12.29,9.54-18.08,6.31-49.47,8-70.13,3.85-11.09-2.25-16.82-5.75-17-9.48L221,415.29c.14,3.73,5.87,7.23,17,9.48,20.66,4.18,52.05,2.46,70.13-3.86C316.5,418,320.54,414.59,320.43,411.37Z"/><path class="cls-2" d="M303.46,401.89c20.65,4.19,22.75,12.7,4.67,19s-49.47,8-70.13,3.86-22.73-12.71-4.66-19S282.81,397.7,303.46,401.89ZM243.62,422.8c17.11,3.47,43.11,2,58.09-3.19s13.24-12.29-3.87-15.76-43.1-2-58.08,3.2-13.24,12.28,3.86,15.75Z"/><path class="cls-3" d="M297.84,403.85c17.11,3.47,18.84,10.53,3.87,15.76s-41,6.66-58.09,3.19-18.83-10.52-3.86-15.75S280.74,400.38,297.84,403.85Z"/><path class="cls-4" d="M239.76,408.62c15-5.23,41-6.66,58.08-3.2,8.52,1.73,13.22,4.35,14,7.18.86-3.42-3.88-6.71-14-8.75-17.1-3.47-43.1-2-58.08,3.2-7.52,2.63-10.82,5.71-10.08,8.58C230.28,413.23,233.6,410.77,239.76,408.62Z"/><path class="cls-4" d="M225.79,420.79v12.38c2.84,1.64,7.07,3.1,12.67,4.23a122.84,122.84,0,0,0,18.47,2.12V426.9A122.34,122.34,0,0,1,238,424.77,45.18,45.18,0,0,1,225.79,420.79Z"/><path class="cls-4" d="M290.83,407.79l-4.53,1.59c1.8.52,2.66,1.15,2.55,1.88s-1.16,1.49-3.17,2.28l-4.67-1c1.12-.44,1.61-.88,1.47-1.3s-.9-.78-2.27-1.06a18.32,18.32,0,0,0-4.74-.3,16.67,16.67,0,0,0-4.49.84,4.89,4.89,0,0,0-1.09.51.68.68,0,0,0-.36.52c0,.37.82.83,2.53,1.41,1,.34,1.76.61,2.22.82,1.59.73,2.29,1.45,2.08,2.19s-1.29,1.44-3.25,2.13a36.81,36.81,0,0,1-8.51,1.76,37.6,37.6,0,0,1-8.73-.1l-5.44,1.9-4.35-.88,5.23-1.83c-2.29-.64-3.4-1.4-3.3-2.28s1.38-1.75,3.88-2.63l4.5.91c-1.59.61-2.32,1.16-2.2,1.66s1.13.93,3,1.31a21.38,21.38,0,0,0,5.43.35,18.56,18.56,0,0,0,5.16-1,8.21,8.21,0,0,0,1.31-.55,2,2,0,0,0,.65-.52c.33-.53-.45-1.13-2.33-1.79l-.69-.24c-2.3-.84-3.51-1.62-3.61-2.36s.86-1.46,2.93-2.18a32,32,0,0,1,7.65-1.57,38.34,38.34,0,0,1,8.31.14l4.49-1.57Z"/><path class="cls-2" d="M290.83,406l-4.53,1.58c1.8.52,2.66,1.15,2.55,1.89s-1.16,1.49-3.17,2.27l-4.67-.94c1.12-.45,1.61-.88,1.47-1.31s-.9-.78-2.27-1.05a18.76,18.76,0,0,0-4.74-.31A16.67,16.67,0,0,0,271,409a4.89,4.89,0,0,0-1.09.51.7.7,0,0,0-.36.53c0,.36.82.83,2.53,1.4a23.26,23.26,0,0,1,2.22.83c1.59.72,2.29,1.45,2.08,2.18s-1.29,1.45-3.25,2.13a40.52,40.52,0,0,1-17.24,1.66l-5.44,1.91-4.35-.88,5.23-1.84c-2.29-.63-3.4-1.39-3.3-2.27s1.38-1.76,3.88-2.64l4.5.91c-1.59.61-2.32,1.17-2.2,1.66s1.13.94,3,1.31a20.5,20.5,0,0,0,5.43.35,18.94,18.94,0,0,0,5.16-1,8.13,8.13,0,0,0,1.31-.56,1.87,1.87,0,0,0,.65-.51c.33-.54-.45-1.13-2.33-1.79l-.69-.24c-2.3-.84-3.51-1.62-3.61-2.36s.86-1.46,2.93-2.19a31.56,31.56,0,0,1,7.65-1.56,38.35,38.35,0,0,1,8.31.13l4.49-1.57Z"/><path class="cls-2" d="M231.79,409.86c-.13-3.42-.29-8-.42-11.41.09,2.36.33,8.71.42,11.15Z"/><path class="cls-3" d="M322.18,393.65q.22,6.32.46,12.63c.12,3.22-3.93,6.62-12.3,9.55-18.07,6.31-49.47,8-70.12,3.85-11.09-2.25-16.83-5.75-17-9.48l-.46-12.64c.13,3.74,5.87,7.24,17,9.48,20.65,4.19,52.05,2.47,70.12-3.85C318.25,400.27,322.3,396.87,322.18,393.65Z"/><path class="cls-2" d="M305.22,384.17c20.65,4.18,22.74,12.7,4.66,19s-49.47,8-70.12,3.85-22.74-12.7-4.66-19S284.56,380,305.22,384.17Zm-59.84,20.91c17.1,3.47,43.11,2,58.08-3.19s13.25-12.29-3.86-15.76-43.11-2-58.08,3.19-13.25,12.29,3.86,15.76Z"/><path class="cls-3" d="M299.6,386.13c17.11,3.47,18.83,10.52,3.86,15.76s-41,6.66-58.08,3.19-18.83-10.52-3.86-15.76S282.49,382.66,299.6,386.13Z"/><path class="cls-4" d="M241.52,390.9c15-5.24,41-6.67,58.08-3.2,8.51,1.73,13.21,4.34,13.95,7.18.85-3.42-3.88-6.71-13.95-8.75-17.11-3.47-43.11-2-58.08,3.19C234,392,230.69,395,231.43,397.9,232,395.51,235.36,393.05,241.52,390.9Z"/><path class="cls-4" d="M227.55,403.07v12.38c2.83,1.64,7.07,3.09,12.67,4.23a122.84,122.84,0,0,0,18.47,2.12V409.18A123.38,123.38,0,0,1,239.76,407,45,45,0,0,1,227.55,403.07Z"/><path class="cls-4" d="M292.58,390.07l-4.53,1.58q2.71.8,2.55,1.89c-.1.73-1.16,1.49-3.16,2.28l-4.67-.95c1.12-.45,1.61-.88,1.47-1.3s-.91-.78-2.28-1.06a18.21,18.21,0,0,0-4.73-.3,16.15,16.15,0,0,0-4.49.84,4.53,4.53,0,0,0-1.09.5c-.25.18-.37.35-.37.53,0,.36.82.83,2.54,1.41a23.43,23.43,0,0,1,2.21.82c1.59.72,2.29,1.45,2.08,2.19s-1.28,1.44-3.24,2.12a36.37,36.37,0,0,1-8.52,1.77,37.51,37.51,0,0,1-8.72-.1l-5.44,1.9-4.36-.88,5.24-1.83c-2.3-.64-3.4-1.4-3.31-2.28s1.39-1.75,3.89-2.64l4.49.92c-1.59.61-2.32,1.16-2.19,1.66s1.12.93,3,1.31a20.91,20.91,0,0,0,5.43.34,19,19,0,0,0,5.16-1,9.06,9.06,0,0,0,1.3-.55,1.79,1.79,0,0,0,.65-.52c.33-.53-.44-1.13-2.33-1.79l-.69-.24c-2.3-.84-3.5-1.62-3.61-2.36s.87-1.46,2.94-2.19a31.86,31.86,0,0,1,7.64-1.56,39.08,39.08,0,0,1,8.32.13l4.48-1.56Z"/><path class="cls-2" d="M292.58,388.29l-4.53,1.59q2.71.78,2.55,1.89c-.1.73-1.16,1.49-3.16,2.27l-4.67-.94c1.12-.45,1.61-.89,1.47-1.31s-.91-.78-2.28-1.06a18.21,18.21,0,0,0-4.73-.3,16.53,16.53,0,0,0-4.49.84,4.49,4.49,0,0,0-1.09.51c-.25.17-.37.34-.37.52,0,.37.82.84,2.54,1.41a22.82,22.82,0,0,1,2.21.83c1.59.72,2.29,1.45,2.08,2.18s-1.28,1.44-3.24,2.13a36.39,36.39,0,0,1-8.52,1.76,37,37,0,0,1-8.72-.1l-5.44,1.91-4.36-.89,5.24-1.83c-2.3-.63-3.4-1.39-3.31-2.27s1.39-1.76,3.89-2.64l4.49.91c-1.59.61-2.32,1.16-2.19,1.66s1.12.93,3,1.31a20.47,20.47,0,0,0,5.43.35,19,19,0,0,0,5.16-1,8,8,0,0,0,1.3-.56,1.69,1.69,0,0,0,.65-.51c.33-.54-.44-1.14-2.33-1.79l-.69-.25c-2.3-.83-3.5-1.62-3.61-2.35s.87-1.47,2.94-2.19a31.38,31.38,0,0,1,7.64-1.56,38.44,38.44,0,0,1,8.32.13l4.48-1.57Z"/><path class="cls-2" d="M231.18,395c-.12-3.42-.29-8-.41-11.41.08,2.36.32,8.71.41,11.15Z"/><path class="cls-3" d="M321.58,378.78l.45,12.63c.12,3.22-3.93,6.62-12.29,9.54-18.08,6.32-49.48,8.05-70.13,3.86-11.09-2.25-16.83-5.75-17-9.48l-.46-12.64c.14,3.74,5.87,7.23,17,9.48,20.66,4.19,52,2.47,70.13-3.85C317.65,385.39,321.69,382,321.58,378.78Z"/><path class="cls-2" d="M304.61,369.3c20.65,4.18,22.74,12.7,4.67,19s-49.47,8-70.13,3.85-22.74-12.7-4.66-19S284,365.11,304.61,369.3Zm-59.84,20.91c17.11,3.47,43.11,2,58.08-3.19s13.25-12.29-3.86-15.76-43.11-2-58.08,3.19-13.24,12.29,3.86,15.76Z"/><path class="cls-3" d="M299,371.26c17.11,3.47,18.84,10.52,3.86,15.76s-41,6.66-58.08,3.19-18.83-10.52-3.86-15.76S281.89,367.79,299,371.26Z"/><path class="cls-4" d="M240.91,376c15-5.24,41-6.67,58.08-3.2,8.52,1.73,13.22,4.34,13.95,7.18.86-3.42-3.88-6.71-13.95-8.75-17.1-3.47-43.11-2-58.08,3.19-7.52,2.63-10.82,5.72-10.08,8.58C231.42,380.64,234.75,378.18,240.91,376Z"/><path class="cls-4" d="M226.94,388.2v12.38c2.84,1.64,7.07,3.09,12.67,4.23a121.61,121.61,0,0,0,18.47,2.11V394.31a123.53,123.53,0,0,1-18.93-2.14A45.1,45.1,0,0,1,226.94,388.2Z"/><path class="cls-4" d="M292,375.2l-4.54,1.58c1.81.52,2.67,1.15,2.56,1.89s-1.16,1.49-3.17,2.28l-4.67-.95c1.12-.45,1.61-.88,1.47-1.31s-.9-.77-2.28-1.05a18.21,18.21,0,0,0-4.73-.3,16.61,16.61,0,0,0-4.49.83,5.13,5.13,0,0,0-1.09.51.7.7,0,0,0-.36.53c0,.36.82.83,2.53,1.41,1,.34,1.76.61,2.22.82,1.59.72,2.28,1.45,2.08,2.19s-1.29,1.44-3.25,2.12a35.88,35.88,0,0,1-8.52,1.76,36.44,36.44,0,0,1-8.72-.1l-5.44,1.91-4.35-.88,5.23-1.83c-2.29-.64-3.4-1.4-3.3-2.28s1.38-1.76,3.88-2.64l4.49.91c-1.59.61-2.31,1.17-2.19,1.66s1.12.94,3,1.32a20.94,20.94,0,0,0,5.43.34,18.94,18.94,0,0,0,5.16-1,9.78,9.78,0,0,0,1.31-.55,2,2,0,0,0,.65-.52c.32-.53-.45-1.13-2.33-1.79l-.69-.24c-2.3-.84-3.51-1.62-3.62-2.36s.87-1.46,2.94-2.19a31.46,31.46,0,0,1,7.65-1.56,38.35,38.35,0,0,1,8.31.13l4.49-1.56Z"/><path class="cls-2" d="M292,373.42,287.44,375c1.81.52,2.67,1.15,2.56,1.88s-1.16,1.5-3.17,2.28l-4.67-.94c1.12-.45,1.61-.89,1.47-1.31s-.9-.78-2.28-1.06a18.21,18.21,0,0,0-4.73-.3,16.6,16.6,0,0,0-4.49.84,4.68,4.68,0,0,0-1.09.51.68.68,0,0,0-.36.52c0,.37.82.84,2.53,1.41a23.26,23.26,0,0,1,2.22.83c1.59.72,2.28,1.45,2.08,2.18s-1.29,1.44-3.25,2.13A40.56,40.56,0,0,1,257,385.64l-5.44,1.9-4.35-.88,5.23-1.83c-2.29-.64-3.4-1.39-3.3-2.27s1.38-1.76,3.88-2.64l4.49.91c-1.59.61-2.31,1.16-2.19,1.66s1.12.93,3,1.31a20.93,20.93,0,0,0,5.43.35,18.94,18.94,0,0,0,5.16-1,9.66,9.66,0,0,0,1.31-.56,1.87,1.87,0,0,0,.65-.51c.32-.54-.45-1.14-2.33-1.79l-.69-.25c-2.3-.83-3.51-1.62-3.62-2.35s.87-1.47,2.94-2.19a31.46,31.46,0,0,1,7.65-1.56,38.35,38.35,0,0,1,8.31.13l4.49-1.57Z"/><path class="cls-2" d="M224.63,378.35c-.13-3.42-.29-8-.42-11.41.09,2.36.32,8.71.42,11.15A1.13,1.13,0,0,0,224.63,378.35Z"/><path class="cls-3" d="M315,362.14q.23,6.32.46,12.63c.12,3.22-3.93,6.62-12.3,9.55-18.08,6.31-49.47,8-70.12,3.85-11.09-2.25-16.83-5.75-17-9.48l-.46-12.64c.14,3.74,5.88,7.24,17,9.48,20.65,4.19,52,2.47,70.12-3.85C311.09,368.76,315.14,365.36,315,362.14Z"/><path class="cls-2" d="M298.06,352.66c20.65,4.19,22.74,12.7,4.66,19s-49.47,8-70.12,3.85-22.74-12.7-4.67-19S277.4,348.47,298.06,352.66Zm-59.84,20.91c17.1,3.47,43.11,2,58.08-3.19s13.24-12.29-3.86-15.76-43.11-2-58.08,3.19-13.25,12.29,3.86,15.76Z"/><path class="cls-3" d="M292.44,354.62c17.1,3.47,18.83,10.52,3.86,15.76s-41,6.66-58.08,3.19-18.84-10.52-3.86-15.76S275.33,351.15,292.44,354.62Z"/><path class="cls-4" d="M234.36,359.39c15-5.24,41-6.67,58.08-3.2,8.51,1.73,13.21,4.34,13.95,7.18.85-3.42-3.89-6.71-13.95-8.75-17.11-3.47-43.11-2-58.08,3.19-7.53,2.63-10.83,5.72-10.09,8.58C224.87,364,228.19,361.54,234.36,359.39Z"/><path class="cls-4" d="M220.38,371.56v12.38c2.84,1.64,7.08,3.1,12.68,4.23a122.68,122.68,0,0,0,18.47,2.12V377.67a122.15,122.15,0,0,1-18.93-2.14A44.83,44.83,0,0,1,220.38,371.56Z"/><path class="cls-4" d="M285.42,358.56l-4.53,1.58q2.72.8,2.55,1.89c-.1.73-1.16,1.49-3.17,2.28l-4.66-.95c1.12-.45,1.61-.88,1.47-1.3s-.91-.78-2.28-1.06a18.24,18.24,0,0,0-4.73-.3,16.68,16.68,0,0,0-4.5.84,4.93,4.93,0,0,0-1.09.5c-.24.18-.36.35-.36.53,0,.36.82.83,2.54,1.41a23.43,23.43,0,0,1,2.21.82c1.59.73,2.29,1.45,2.08,2.19s-1.29,1.44-3.25,2.12a36.17,36.17,0,0,1-8.51,1.77,37.51,37.51,0,0,1-8.72-.1l-5.45,1.9-4.35-.88,5.24-1.83c-2.3-.64-3.4-1.4-3.31-2.28s1.39-1.75,3.89-2.64L251,366c-1.59.61-2.32,1.16-2.19,1.66s1.12.93,3,1.31a21,21,0,0,0,5.44.34,18.87,18.87,0,0,0,5.15-1,9.25,9.25,0,0,0,1.31-.55,1.88,1.88,0,0,0,.65-.52c.33-.53-.45-1.13-2.33-1.79l-.69-.24c-2.3-.84-3.5-1.62-3.61-2.36s.87-1.46,2.94-2.19a31.86,31.86,0,0,1,7.64-1.56,38.34,38.34,0,0,1,8.31.14l4.49-1.57Z"/><path class="cls-2" d="M285.42,356.78l-4.53,1.59q2.72.78,2.55,1.89c-.1.73-1.16,1.49-3.17,2.27l-4.66-.94c1.12-.45,1.61-.89,1.47-1.31s-.91-.78-2.28-1.06a18.24,18.24,0,0,0-4.73-.3,16.68,16.68,0,0,0-4.5.84,4.89,4.89,0,0,0-1.09.51.7.7,0,0,0-.36.52c0,.37.82.84,2.54,1.41a22.82,22.82,0,0,1,2.21.83c1.59.72,2.29,1.45,2.08,2.18s-1.29,1.44-3.25,2.13a36.19,36.19,0,0,1-8.51,1.76,37,37,0,0,1-8.72-.1L245,370.91l-4.35-.89,5.24-1.83c-2.3-.63-3.4-1.39-3.31-2.27s1.39-1.76,3.89-2.64l4.49.91c-1.59.61-2.32,1.17-2.19,1.66s1.12.93,3,1.31a20.58,20.58,0,0,0,5.44.35,18.87,18.87,0,0,0,5.15-1,8.13,8.13,0,0,0,1.31-.56,1.77,1.77,0,0,0,.65-.51c.33-.54-.45-1.13-2.33-1.79l-.69-.25c-2.3-.83-3.5-1.62-3.61-2.35s.87-1.47,2.94-2.19a31.38,31.38,0,0,1,7.64-1.56,38.35,38.35,0,0,1,8.31.13l4.49-1.57Z"/><path class="cls-2" d="M232.57,360.57c-.13-3.43-.29-8-.42-11.42.09,2.36.32,8.72.42,11.15A1.22,1.22,0,0,0,232.57,360.57Z"/><path class="cls-3" d="M323,344.35q.23,6.31.46,12.63c.12,3.22-3.93,6.62-12.3,9.55-18.08,6.31-49.47,8-70.12,3.85-11.09-2.25-16.83-5.75-17-9.48l-.45-12.64c.13,3.74,5.87,7.24,17,9.48,20.65,4.19,52,2.47,70.12-3.85C319,351,323.08,347.57,323,344.35Z"/><path class="cls-2" d="M306,334.87c20.65,4.19,22.74,12.7,4.66,19s-49.47,8-70.12,3.85-22.74-12.7-4.67-19S285.34,330.68,306,334.87Zm-59.84,20.91c17.1,3.47,43.11,2,58.08-3.19s13.24-12.29-3.86-15.76-43.11-2-58.08,3.19-13.25,12.29,3.86,15.76Z"/><path class="cls-3" d="M300.38,336.83c17.1,3.47,18.83,10.52,3.86,15.76s-41,6.66-58.08,3.19S227.32,345.26,242.3,340,283.27,333.36,300.38,336.83Z"/><path class="cls-4" d="M242.3,341.6c15-5.24,41-6.67,58.08-3.2,8.51,1.73,13.21,4.34,13.94,7.18.86-3.42-3.87-6.71-13.94-8.75-17.11-3.47-43.11-2-58.08,3.19-7.53,2.63-10.83,5.72-10.09,8.58C232.81,346.21,236.14,343.75,242.3,341.6Z"/><path class="cls-4" d="M228.32,353.77v12.38c2.84,1.64,7.08,3.1,12.68,4.23a122.68,122.68,0,0,0,18.47,2.12V359.88a120.94,120.94,0,0,1-18.93-2.14A44.83,44.83,0,0,1,228.32,353.77Z"/><path class="cls-4" d="M293.36,340.77l-4.53,1.58q2.71.79,2.55,1.89c-.1.73-1.16,1.49-3.17,2.28l-4.66-.95c1.12-.45,1.61-.88,1.47-1.3s-.91-.78-2.28-1.06a18.21,18.21,0,0,0-4.73-.3,16.68,16.68,0,0,0-4.5.84,4.93,4.93,0,0,0-1.09.5c-.24.18-.36.35-.36.53,0,.37.82.83,2.54,1.41a23.43,23.43,0,0,1,2.21.82c1.59.73,2.29,1.45,2.08,2.19s-1.29,1.44-3.25,2.12a36.17,36.17,0,0,1-8.51,1.77,37.51,37.51,0,0,1-8.72-.1l-5.45,1.9-4.35-.88,5.24-1.83c-2.3-.64-3.4-1.4-3.31-2.28s1.39-1.75,3.89-2.64l4.49.92c-1.59.61-2.32,1.16-2.19,1.66s1.12.93,3,1.31a21.46,21.46,0,0,0,5.44.35,19.24,19.24,0,0,0,5.15-1,9.25,9.25,0,0,0,1.31-.55,1.79,1.79,0,0,0,.65-.52c.33-.53-.45-1.13-2.33-1.79l-.69-.24c-2.3-.84-3.5-1.62-3.61-2.36s.87-1.46,2.94-2.19a31.86,31.86,0,0,1,7.64-1.56,38.33,38.33,0,0,1,8.31.14l4.49-1.57Z"/><path class="cls-2" d="M293.36,339l-4.53,1.59q2.71.78,2.55,1.89c-.1.73-1.16,1.49-3.17,2.27l-4.66-.94c1.12-.45,1.61-.89,1.47-1.31s-.91-.78-2.28-1.06a18.21,18.21,0,0,0-4.73-.3,16.68,16.68,0,0,0-4.5.84,4.89,4.89,0,0,0-1.09.51.7.7,0,0,0-.36.53c0,.36.82.83,2.54,1.4a22.82,22.82,0,0,1,2.21.83c1.59.72,2.29,1.45,2.08,2.18s-1.29,1.44-3.25,2.13a36.19,36.19,0,0,1-8.51,1.76,37,37,0,0,1-8.72-.1L253,353.12l-4.35-.89,5.24-1.83c-2.3-.63-3.4-1.39-3.31-2.27s1.39-1.76,3.89-2.64l4.49.91c-1.59.61-2.32,1.17-2.19,1.66s1.12.93,3,1.31a20.58,20.58,0,0,0,5.44.35,18.87,18.87,0,0,0,5.15-1,8.13,8.13,0,0,0,1.31-.56,1.69,1.69,0,0,0,.65-.51c.33-.54-.45-1.13-2.33-1.79l-.69-.25c-2.3-.83-3.5-1.62-3.61-2.35s.87-1.47,2.94-2.19a31.38,31.38,0,0,1,7.64-1.56,38.34,38.34,0,0,1,8.31.13l4.49-1.57Z"/><path class="cls-2" d="M228.94,341.39c-.13-3.42-.29-8-.42-11.41.09,2.36.32,8.71.42,11.15A2.25,2.25,0,0,0,228.94,341.39Z"/><path class="cls-3" d="M319.33,325.18q.23,6.31.46,12.63c.12,3.22-3.93,6.62-12.3,9.55-18.08,6.31-49.47,8-70.12,3.85-11.09-2.25-16.83-5.75-17-9.48L220,329.09c.13,3.74,5.87,7.23,17,9.48,20.65,4.19,52,2.47,70.12-3.85C315.4,331.79,319.45,328.4,319.33,325.18Z"/><path class="cls-2" d="M302.37,315.7c20.65,4.18,22.74,12.7,4.66,19s-49.47,8-70.12,3.85-22.74-12.7-4.66-19S281.71,311.51,302.37,315.7Zm-59.84,20.91c17.1,3.47,43.11,2,58.08-3.19s13.24-12.29-3.86-15.76-43.11-2-58.08,3.19-13.25,12.29,3.86,15.76Z"/><path class="cls-3" d="M296.75,317.66c17.1,3.47,18.83,10.52,3.86,15.76s-41,6.66-58.08,3.19-18.84-10.52-3.86-15.76S279.64,314.19,296.75,317.66Z"/><path class="cls-4" d="M238.67,322.43c15-5.24,41-6.67,58.08-3.2,8.51,1.73,13.21,4.34,13.95,7.18.85-3.42-3.88-6.71-13.95-8.75-17.11-3.47-43.11-2-58.08,3.19-7.52,2.63-10.83,5.72-10.09,8.58C229.18,327,232.51,324.58,238.67,322.43Z"/><path class="cls-4" d="M224.7,334.6V347c2.83,1.64,7.07,3.09,12.67,4.23a122.84,122.84,0,0,0,18.47,2.12V340.71a123.38,123.38,0,0,1-18.93-2.14A45,45,0,0,1,224.7,334.6Z"/><path class="cls-4" d="M289.73,321.6l-4.53,1.58c1.81.52,2.66,1.16,2.55,1.89s-1.16,1.49-3.16,2.28l-4.67-1c1.12-.45,1.61-.88,1.47-1.31s-.91-.77-2.28-1a18.21,18.21,0,0,0-4.73-.3,16.3,16.3,0,0,0-4.5.84,4.24,4.24,0,0,0-1.08.5.69.69,0,0,0-.37.53c0,.36.82.83,2.54,1.41a23.43,23.43,0,0,1,2.21.82c1.59.72,2.29,1.45,2.08,2.19s-1.28,1.44-3.25,2.12a36.17,36.17,0,0,1-8.51,1.77,37.51,37.51,0,0,1-8.72-.1l-5.45,1.9-4.35-.88,5.24-1.83c-2.3-.64-3.4-1.4-3.31-2.28s1.39-1.76,3.89-2.64l4.49.91c-1.59.61-2.32,1.17-2.19,1.66s1.12.94,3,1.32a20.91,20.91,0,0,0,5.43.34,18.87,18.87,0,0,0,5.15-1,8.77,8.77,0,0,0,1.31-.55,1.79,1.79,0,0,0,.65-.52c.33-.54-.44-1.13-2.33-1.79l-.69-.24c-2.3-.84-3.5-1.62-3.61-2.36s.87-1.46,2.94-2.19a31.86,31.86,0,0,1,7.64-1.56,39.08,39.08,0,0,1,8.32.13l4.48-1.56Z"/><path class="cls-2" d="M289.73,319.82l-4.53,1.59c1.81.52,2.66,1.15,2.55,1.88s-1.16,1.5-3.16,2.28l-4.67-.94c1.12-.45,1.61-.89,1.47-1.31s-.91-.78-2.28-1.06a18.21,18.21,0,0,0-4.73-.3,16.68,16.68,0,0,0-4.5.84,4.57,4.57,0,0,0-1.08.51c-.25.17-.37.34-.37.52,0,.37.82.84,2.54,1.41a22.82,22.82,0,0,1,2.21.83c1.59.72,2.29,1.45,2.08,2.18s-1.28,1.44-3.25,2.13A40.49,40.49,0,0,1,254.78,332L249.33,334l-4.35-.89,5.24-1.83c-2.3-.64-3.4-1.39-3.31-2.27s1.39-1.76,3.89-2.64l4.49.91c-1.59.61-2.32,1.16-2.19,1.66s1.12.93,3,1.31a20.9,20.9,0,0,0,5.43.35,18.87,18.87,0,0,0,5.15-1A8.67,8.67,0,0,0,268,329a1.79,1.79,0,0,0,.65-.51c.33-.54-.44-1.14-2.33-1.79l-.69-.25c-2.3-.83-3.5-1.62-3.61-2.35s.87-1.47,2.94-2.19a31.38,31.38,0,0,1,7.64-1.56,38.44,38.44,0,0,1,8.32.13l4.48-1.57Z"/><path class="cls-2" d="M234.6,325.59c-.12-3.42-.29-8-.41-11.41.08,2.35.32,8.71.42,11.15A2.26,2.26,0,0,0,234.6,325.59Z"/><path class="cls-3" d="M325,309.37l.45,12.64c.12,3.22-3.92,6.62-12.29,9.54-18.08,6.32-49.47,8-70.13,3.86-11.09-2.25-16.82-5.75-17-9.49l-.46-12.63c.14,3.73,5.87,7.23,17,9.48,20.65,4.19,52,2.46,70.12-3.85C321.07,316,325.11,312.59,325,309.37Z"/><path class="cls-2" d="M308,299.89c20.66,4.19,22.75,12.71,4.67,19s-49.47,8-70.12,3.85-22.74-12.7-4.67-19S287.38,295.7,308,299.89Zm-59.84,20.92c17.11,3.47,43.11,2,58.09-3.2s13.24-12.28-3.87-15.75-43.1-2-58.08,3.19-13.24,12.29,3.86,15.76Z"/><path class="cls-3" d="M302.41,301.86c17.11,3.47,18.84,10.52,3.87,15.75s-41,6.67-58.09,3.2-18.83-10.53-3.86-15.76S285.31,298.39,302.41,301.86Z"/><path class="cls-4" d="M244.33,306.62c15-5.23,41-6.66,58.08-3.19,8.52,1.72,13.22,4.34,13.95,7.18.86-3.43-3.88-6.71-13.95-8.75-17.1-3.47-43.1-2-58.08,3.19-7.52,2.63-10.82,5.72-10.08,8.58C234.85,311.24,238.17,308.78,244.33,306.62Z"/><path class="cls-4" d="M230.36,318.79v12.38c2.84,1.65,7.07,3.1,12.67,4.24a123,123,0,0,0,18.47,2.11V324.91a123.25,123.25,0,0,1-18.92-2.14A45.14,45.14,0,0,1,230.36,318.79Z"/><path class="cls-4" d="M295.4,305.79l-4.53,1.59c1.8.52,2.66,1.15,2.55,1.88s-1.16,1.5-3.17,2.28l-4.67-.94c1.13-.45,1.62-.89,1.47-1.31s-.9-.78-2.27-1.06a18.32,18.32,0,0,0-4.74-.3,16.67,16.67,0,0,0-4.49.84,4.89,4.89,0,0,0-1.09.51.7.7,0,0,0-.36.52c0,.37.82.84,2.53,1.41a23.26,23.26,0,0,1,2.22.83c1.59.72,2.29,1.45,2.08,2.18s-1.29,1.44-3.25,2.13a36.3,36.3,0,0,1-8.51,1.76,37,37,0,0,1-8.72-.1L255,319.92l-4.35-.89,5.23-1.83c-2.29-.63-3.4-1.39-3.3-2.27s1.38-1.76,3.88-2.64l4.5.91c-1.59.61-2.32,1.16-2.19,1.66s1.12.93,3,1.31a20.5,20.5,0,0,0,5.43.35,18.94,18.94,0,0,0,5.16-1,8.13,8.13,0,0,0,1.31-.56,1.77,1.77,0,0,0,.65-.51c.33-.54-.45-1.14-2.33-1.79l-.69-.25c-2.3-.83-3.5-1.62-3.61-2.35s.86-1.47,2.93-2.19a31.56,31.56,0,0,1,7.65-1.56,38.35,38.35,0,0,1,8.31.13l4.49-1.57Z"/><path class="cls-2" d="M295.4,304l-4.53,1.58c1.8.53,2.66,1.16,2.55,1.89s-1.16,1.49-3.17,2.28l-4.67-.95c1.13-.45,1.62-.88,1.47-1.3s-.9-.78-2.27-1.06a18.32,18.32,0,0,0-4.74-.3,16.67,16.67,0,0,0-4.49.84,5.44,5.44,0,0,0-1.09.5c-.24.18-.36.35-.36.53,0,.37.82.83,2.53,1.41,1,.34,1.76.61,2.22.82,1.59.73,2.29,1.45,2.08,2.19s-1.29,1.44-3.25,2.12a36.28,36.28,0,0,1-8.51,1.77,37.5,37.5,0,0,1-8.72-.1l-5.45,1.9-4.35-.88,5.23-1.83c-2.29-.64-3.4-1.4-3.3-2.28s1.38-1.75,3.88-2.63l4.5.91c-1.59.61-2.32,1.16-2.19,1.66s1.12.93,3,1.31a21.38,21.38,0,0,0,5.43.35,18.93,18.93,0,0,0,5.16-1,8.21,8.21,0,0,0,1.31-.55,1.77,1.77,0,0,0,.65-.52c.33-.53-.45-1.13-2.33-1.79l-.69-.24c-2.3-.84-3.5-1.62-3.61-2.35s.86-1.47,2.93-2.2a32.54,32.54,0,0,1,7.65-1.56,38.34,38.34,0,0,1,8.31.14l4.49-1.57Z"/><path class="cls-2" d="M221.78,309.88c-.13-3.42-.29-8-.42-11.41.09,2.36.32,8.71.42,11.15A1.13,1.13,0,0,0,221.78,309.88Z"/><path class="cls-3" d="M312.17,293.67q.22,6.31.46,12.63c.11,3.22-3.93,6.62-12.3,9.55-18.08,6.31-49.47,8-70.12,3.85-11.09-2.25-16.83-5.75-17-9.48l-.46-12.64c.14,3.74,5.88,7.24,17,9.48,20.65,4.19,52,2.47,70.12-3.85C308.24,300.28,312.29,296.89,312.17,293.67Z"/><path class="cls-2" d="M295.2,284.19c20.66,4.18,22.75,12.7,4.67,19s-49.47,8-70.12,3.85-22.74-12.7-4.67-19S274.55,280,295.2,284.19ZM235.37,305.1c17.1,3.47,43.11,2,58.08-3.19s13.24-12.29-3.86-15.76-43.11-2-58.08,3.19-13.25,12.29,3.86,15.76Z"/><path class="cls-3" d="M289.59,286.15c17.1,3.47,18.83,10.52,3.86,15.76s-41,6.66-58.08,3.19-18.84-10.52-3.86-15.76S272.48,282.68,289.59,286.15Z"/><path class="cls-4" d="M231.51,290.92c15-5.24,41-6.67,58.08-3.2,8.51,1.73,13.21,4.34,13.94,7.18.86-3.42-3.88-6.71-13.94-8.75-17.11-3.47-43.11-2-58.08,3.19-7.53,2.63-10.83,5.72-10.09,8.58C222,295.53,225.34,293.07,231.51,290.92Z"/><path class="cls-4" d="M217.53,303.09v12.38c2.84,1.64,7.08,3.09,12.68,4.23a122.68,122.68,0,0,0,18.47,2.12V309.2a123.24,123.24,0,0,1-18.93-2.14A45.18,45.18,0,0,1,217.53,303.09Z"/><path class="cls-4" d="M282.57,290.09,278,291.67c1.81.53,2.66,1.15,2.55,1.89s-1.16,1.49-3.17,2.28l-4.66-.95c1.12-.45,1.61-.88,1.46-1.31s-.9-.77-2.27-1.05a18.29,18.29,0,0,0-4.74-.3,16.68,16.68,0,0,0-4.49.83,5.38,5.38,0,0,0-1.09.51.7.7,0,0,0-.36.53c0,.36.82.83,2.54,1.41a23.43,23.43,0,0,1,2.21.82c1.59.72,2.29,1.45,2.08,2.19s-1.29,1.44-3.25,2.12a35.69,35.69,0,0,1-8.51,1.76,37,37,0,0,1-8.72-.09l-5.45,1.9-4.35-.88,5.24-1.83c-2.3-.64-3.4-1.4-3.31-2.28s1.39-1.75,3.88-2.64l4.5.92c-1.59.6-2.32,1.16-2.19,1.65s1.12.94,3,1.32a21,21,0,0,0,5.44.34,18.87,18.87,0,0,0,5.15-1,9.25,9.25,0,0,0,1.31-.55,1.88,1.88,0,0,0,.65-.52c.33-.53-.45-1.13-2.33-1.79l-.69-.24c-2.3-.84-3.5-1.62-3.61-2.36s.87-1.46,2.93-2.19a32,32,0,0,1,7.65-1.56,38.34,38.34,0,0,1,8.31.14l4.49-1.57Z"/><path class="cls-2" d="M282.57,288.31,278,289.9c1.81.52,2.66,1.15,2.55,1.88s-1.16,1.5-3.17,2.28l-4.66-.94c1.12-.45,1.61-.89,1.46-1.31s-.9-.78-2.27-1.06a18.29,18.29,0,0,0-4.74-.3,16.67,16.67,0,0,0-4.49.84,4.89,4.89,0,0,0-1.09.51.7.7,0,0,0-.36.52c0,.37.82.84,2.54,1.41a22.82,22.82,0,0,1,2.21.83c1.59.72,2.29,1.45,2.08,2.18s-1.29,1.44-3.25,2.13a36.19,36.19,0,0,1-8.51,1.76,37,37,0,0,1-8.72-.1l-5.45,1.9-4.35-.88,5.24-1.83c-2.3-.64-3.4-1.39-3.31-2.27s1.39-1.76,3.88-2.64l4.5.91c-1.59.61-2.32,1.16-2.19,1.66s1.12.93,3,1.31a21,21,0,0,0,5.44.35,18.87,18.87,0,0,0,5.15-1,8.13,8.13,0,0,0,1.31-.56,1.77,1.77,0,0,0,.65-.51c.33-.54-.45-1.14-2.33-1.79l-.69-.25c-2.3-.83-3.5-1.62-3.61-2.35s.87-1.47,2.93-2.19a31.56,31.56,0,0,1,7.65-1.56,38.35,38.35,0,0,1,8.31.13l4.49-1.57Z"/><path class="cls-2" d="M229.72,292.09c-.13-3.42-.29-8-.42-11.41.09,2.36.32,8.71.42,11.15A1.13,1.13,0,0,0,229.72,292.09Z"/><path class="cls-3" d="M320.11,275.88q.22,6.31.46,12.63c.11,3.22-3.93,6.62-12.3,9.55-18.08,6.31-49.47,8-70.12,3.85-11.09-2.25-16.83-5.75-17-9.48l-.46-12.64c.14,3.74,5.88,7.23,17,9.48,20.65,4.19,52,2.47,70.12-3.85C316.18,282.5,320.23,279.1,320.11,275.88Z"/><path class="cls-2" d="M303.14,266.4c20.66,4.18,22.75,12.7,4.67,19s-49.47,8-70.12,3.85-22.74-12.7-4.67-19S282.49,262.21,303.14,266.4Zm-59.83,20.91c17.1,3.47,43.11,2,58.08-3.19s13.24-12.29-3.86-15.76-43.11-2-58.08,3.19-13.25,12.29,3.86,15.76Z"/><path class="cls-3" d="M297.53,268.36c17.1,3.47,18.83,10.52,3.86,15.76s-41,6.66-58.08,3.19-18.84-10.52-3.86-15.76S280.42,264.89,297.53,268.36Z"/><path class="cls-4" d="M239.45,273.13c15-5.24,41-6.67,58.08-3.2,8.51,1.73,13.21,4.34,13.94,7.18.86-3.42-3.88-6.71-13.94-8.75-17.11-3.47-43.11-2-58.08,3.19-7.53,2.63-10.83,5.72-10.09,8.58C230,277.74,233.28,275.28,239.45,273.13Z"/><path class="cls-4" d="M225.47,285.3v12.38c2.84,1.64,7.08,3.09,12.68,4.23A122.68,122.68,0,0,0,256.62,304V291.41a123.24,123.24,0,0,1-18.93-2.14A45.18,45.18,0,0,1,225.47,285.3Z"/><path class="cls-4" d="M290.51,272.3,286,273.88q2.72.8,2.55,1.89c-.1.73-1.16,1.49-3.17,2.28l-4.66-.95c1.12-.45,1.61-.88,1.46-1.3s-.9-.78-2.27-1.06a18.24,18.24,0,0,0-4.73-.3,16.3,16.3,0,0,0-4.5.84,4.93,4.93,0,0,0-1.09.5.7.7,0,0,0-.36.53c0,.36.82.83,2.54,1.41a23.43,23.43,0,0,1,2.21.82c1.59.72,2.29,1.45,2.08,2.19s-1.29,1.44-3.25,2.12a36.17,36.17,0,0,1-8.51,1.77,37.51,37.51,0,0,1-8.72-.1l-5.45,1.9-4.35-.88,5.24-1.83c-2.3-.64-3.4-1.4-3.31-2.28s1.39-1.75,3.89-2.64l4.49.92c-1.59.61-2.32,1.16-2.19,1.66s1.12.93,3,1.31a21,21,0,0,0,5.44.34,18.87,18.87,0,0,0,5.15-1,9.25,9.25,0,0,0,1.31-.55,1.79,1.79,0,0,0,.65-.52c.33-.53-.45-1.13-2.33-1.79l-.69-.24c-2.3-.84-3.5-1.62-3.61-2.36s.87-1.46,2.94-2.19a31.86,31.86,0,0,1,7.64-1.56,39,39,0,0,1,8.31.13l4.49-1.56Z"/><path class="cls-2" d="M290.51,270.52,286,272.11q2.72.78,2.55,1.89c-.1.73-1.16,1.49-3.17,2.27l-4.66-.94c1.12-.45,1.61-.89,1.46-1.31s-.9-.78-2.27-1.06a18.24,18.24,0,0,0-4.73-.3,16.68,16.68,0,0,0-4.5.84,4.89,4.89,0,0,0-1.09.51.7.7,0,0,0-.36.52c0,.37.82.84,2.54,1.41a22.82,22.82,0,0,1,2.21.83c1.59.72,2.29,1.45,2.08,2.18s-1.29,1.44-3.25,2.13a36.19,36.19,0,0,1-8.51,1.76,37,37,0,0,1-8.72-.1l-5.45,1.91-4.35-.89,5.24-1.83c-2.3-.63-3.4-1.39-3.31-2.27s1.39-1.76,3.89-2.64l4.49.91c-1.59.61-2.32,1.16-2.19,1.66s1.12.93,3,1.31a20.58,20.58,0,0,0,5.44.35,18.87,18.87,0,0,0,5.15-1,9.14,9.14,0,0,0,1.31-.56,1.69,1.69,0,0,0,.65-.51c.33-.54-.45-1.14-2.33-1.79l-.69-.25c-2.3-.83-3.5-1.62-3.61-2.35s.87-1.47,2.94-2.19a31.38,31.38,0,0,1,7.64-1.56,38.35,38.35,0,0,1,8.31.13l4.49-1.57Z"/><polygon class="cls-5" points="208.68 394.74 220.52 395.64 221.19 395.92 209.34 395.01 208.68 394.74"/><polygon class="cls-3" points="209.45 394.56 221.3 395.46 221.19 395.92 209.34 395.01 209.45 394.56"/><polygon class="cls-6" points="209.45 394.56 221.3 395.46 225.35 397.11 213.5 396.21 209.45 394.56"/><path class="cls-2" d="M214.75,385.11l7.14.55c-1.26-.09-2.46-.17-4.3-.18s-3.34.06-4.3.13c-.55,0-2.22.14-4.31.43-1.87.26-3,.49-4.3.75A21.87,21.87,0,0,1,214.75,385.11Z"/><path class="cls-3" d="M221.27,386.67c-15.05-6.14-31.39,5.74-36.5,26.53s3,42.62,18,48.76,31.4-5.74,36.5-26.53S236.33,392.81,221.27,386.67Z"/><path class="cls-4" d="M186.58,414.84c5.11-20.79,21.45-32.67,36.5-26.53a24.55,24.55,0,0,1,6.37,3.83,25.38,25.38,0,0,0-8.18-5.47c-15.05-6.14-31.39,5.74-36.5,26.53-4.32,17.63.82,36,11.66,44.92C186.84,448.72,182.51,431.45,186.58,414.84Z"/><path class="cls-3" d="M214.75,385.11l11.85.91a21.43,21.43,0,0,1,6.52,1.55l-11.85-.9A21.68,21.68,0,0,0,214.75,385.11Z"/><path class="cls-2" d="M223.19,378.87c18.18,7.41,27.92,33.76,21.76,58.86s-25.89,39.44-44.07,32S173,436,179.12,410.9,205,371.46,223.19,378.87ZM202.79,462c15.06,6.14,31.4-5.74,36.5-26.53s-3-42.62-18-48.76-31.39,5.74-36.5,26.53,3,42.62,18,48.76Z"/><path class="cls-7" d="M215.31,377l11.85.9a26,26,0,0,1,7.87,1.88l-11.84-.9A25.86,25.86,0,0,0,215.31,377Z"/><path class="cls-4" d="M220.6,472.54l-11.85-.9c15.69,1.19,30.92-12.41,36.2-33.91,6.16-25.1-3.58-51.45-21.76-58.86l11.84.9c18.18,7.41,27.92,33.76,21.76,58.86C251.52,460.13,236.29,473.73,220.6,472.54Z"/><path class="cls-3" d="M251.2,453a57.12,57.12,0,0,0,5.59-14.38,62.88,62.88,0,0,0-1-33.94l-11.47.34a63.1,63.1,0,0,1,.64,32.7,56.81,56.81,0,0,1-6.33,15.64Z"/><path class="cls-4" d="M220.37,397.22l-1.54,6.29a8.77,8.77,0,0,1,3.58,5.25,17.46,17.46,0,0,1,.06,8.1l-4.11-1.68a8.16,8.16,0,0,0-.27-4.55,4.57,4.57,0,0,0-2.58-2.69,3.37,3.37,0,0,0-3.52.39,6.66,6.66,0,0,0-2.25,3.93,8.19,8.19,0,0,0-.24,1.91,5.77,5.77,0,0,0,.26,1.76,8.28,8.28,0,0,0,3.1,3.74,20.81,20.81,0,0,1,2.32,2,13.42,13.42,0,0,1,3.55,6.33,15.86,15.86,0,0,1-.13,7.64,16.67,16.67,0,0,1-4.09,8c-1.88,1.88-3.89,2.6-6,2.15l-1.85,7.56-3.83-1.56,1.78-7.26a10.34,10.34,0,0,1-4.47-6.26,18.35,18.35,0,0,1,.07-9.45l4,1.62a10.63,10.63,0,0,0,.12,5.86,5.55,5.55,0,0,0,3.32,3.3,3.91,3.91,0,0,0,4.05-.42,7.64,7.64,0,0,0,2.57-4.51,12.26,12.26,0,0,0,.35-2.13,7.65,7.65,0,0,0-.06-1.82,8.27,8.27,0,0,0-3.34-5c-.31-.26-.55-.45-.7-.59a14.67,14.67,0,0,1-4.77-6.42,13.43,13.43,0,0,1-.13-7.75,14.36,14.36,0,0,1,3.68-7.12A6.65,6.65,0,0,1,215,401.9l1.53-6.24Z"/><path class="cls-2" d="M218.11,396.62l-1.54,6.29a8.77,8.77,0,0,1,3.58,5.25,17.46,17.46,0,0,1,.06,8.1l-4.11-1.68a8.15,8.15,0,0,0-.27-4.55,4.54,4.54,0,0,0-2.58-2.69,3.37,3.37,0,0,0-3.52.39,6.71,6.71,0,0,0-2.25,3.92,8.33,8.33,0,0,0-.24,1.92,5.77,5.77,0,0,0,.26,1.76,8.27,8.27,0,0,0,3.1,3.73,20.7,20.7,0,0,1,2.32,2,13.43,13.43,0,0,1,3.55,6.32,15.86,15.86,0,0,1-.13,7.64,16.66,16.66,0,0,1-4.09,8c-1.88,1.87-3.89,2.59-6.05,2.15l-1.85,7.56-3.83-1.56,1.78-7.26a10.37,10.37,0,0,1-4.47-6.26,18.35,18.35,0,0,1,.07-9.45l4,1.61a10.66,10.66,0,0,0,.12,5.87,5.58,5.58,0,0,0,3.32,3.3,3.89,3.89,0,0,0,4-.43,7.62,7.62,0,0,0,2.57-4.5,12.42,12.42,0,0,0,.35-2.13,7.65,7.65,0,0,0-.06-1.82,8.32,8.32,0,0,0-3.34-5c-.31-.25-.55-.44-.7-.58a14.73,14.73,0,0,1-4.77-6.42,13.43,13.43,0,0,1-.13-7.75,14.35,14.35,0,0,1,3.68-7.12,6.65,6.65,0,0,1,5.81-1.92l1.53-6.23Z"/><path class="cls-2" d="M362,386.48l11.36-3c11.17-2.94,23.94,5.82,30.26,21.74,7.23,18.19,3.31,38.84-8.75,46.13l-11.37,3c12.07-7.28,16-27.94,8.76-46.13C386,392.3,373.21,383.54,362,386.48Z"/><path class="cls-2" d="M390.24,453.35l-11.37,3a17.62,17.62,0,0,0,4.67-2l11.37-3A17.9,17.9,0,0,1,390.24,453.35Z"/><path class="cls-3" d="M362,386.48l11.36-3a17.76,17.76,0,0,0-4.67,2l-11.36,3A17.76,17.76,0,0,1,362,386.48Z"/><path class="cls-3" d="M390.24,453.35l-11.37,3c-11.17,2.94-23.94-5.81-30.26-21.73-7.23-18.2-3.31-38.85,8.76-46.14l11.36-3c-12.06,7.29-16,27.94-8.76,46.13C366.3,447.54,379.06,456.29,390.24,453.35Z"/><path class="cls-4" d="M392,460.59l-11.36,3c-13.49,3.55-28.9-7-36.54-26.24-8.73-22-4-46.9,10.58-55.7l11.36-3c-14.57,8.8-19.3,33.74-10.57,55.7C363.08,453.57,378.49,464.14,392,460.59Z"/><path class="cls-2" d="M366,378.65c14.57-8.79,33.45,1.88,42.17,23.84s4,46.9-10.57,55.7-33.45-1.87-42.17-23.84S351.45,387.45,366,378.65Zm28.89,72.71c12.06-7.29,16-27.94,8.75-46.13s-22.86-27-34.93-19.75-16,27.94-8.76,46.14,22.87,27,34.94,19.74Z"/><path class="cls-3" d="M368.73,385.48c12.06-7.29,27.71,1.55,34.93,19.75s3.31,38.84-8.75,46.13S367.2,449.81,360,431.61,356.67,392.77,368.73,385.48Z"/><path class="cls-7" d="M360.29,379.24l11.37-3a21.48,21.48,0,0,0-5.64,2.4l-11.36,3A21.42,21.42,0,0,1,360.29,379.24Z"/><path class="cls-4" d="M368.73,385.48a20.92,20.92,0,0,0-5.4,4.78,20.41,20.41,0,0,1,4.78-4c12.06-7.29,27.7,1.55,34.93,19.74,6,15.12,4.31,31.92-3.35,41.36,8.19-9.28,10.14-26.58,4-42.09C396.44,387,380.79,378.19,368.73,385.48Z"/><path class="cls-7" d="M380.62,463.58l11.36-3c-6.59,1.74-13.63.09-20-4.27l-10.5,3.56C367.61,463.82,374.33,465.24,380.62,463.58Z"/><path class="cls-4" d="M373.53,393.48l2.18,5.5a5,5,0,0,1,4.75.87,13.29,13.29,0,0,1,4,5.52l-3.29,2a6,6,0,0,0-2.41-2.92,2.77,2.77,0,0,0-2.89.13,4,4,0,0,0-1.91,2.95,8,8,0,0,0,.59,4.42,7.52,7.52,0,0,0,.8,1.5,3.94,3.94,0,0,0,1,1c.78.54,2,.6,3.71.2a13.34,13.34,0,0,1,2.37-.41,7.54,7.54,0,0,1,5.26,1.64,12.37,12.37,0,0,1,3.7,5.35,19.4,19.4,0,0,1,1.5,8.62,8.62,8.62,0,0,1-2.56,6.09l2.63,6.62L390,444.41l-2.52-6.35a6,6,0,0,1-5.79-.89,14.35,14.35,0,0,1-4.63-6.54l3.17-1.92a8.1,8.1,0,0,0,3,3.94,3.45,3.45,0,0,0,3.63-.27A4.67,4.67,0,0,0,389,429a9.2,9.2,0,0,0-.68-5.06,10.73,10.73,0,0,0-.85-1.73,5.33,5.33,0,0,0-.94-1.2c-1.06-1-2.55-1.3-4.47-.89l-.71.14a8.37,8.37,0,0,1-6-.78,10.22,10.22,0,0,1-3.91-5.22,16.7,16.7,0,0,1-1.31-7.71,8.93,8.93,0,0,1,2.52-5.76l-2.16-5.45Z"/><path class="cls-2" d="M375.51,392.64l2.18,5.5a5,5,0,0,1,4.75.87,13.43,13.43,0,0,1,4,5.52l-3.29,2a5.9,5.9,0,0,0-2.41-2.92,2.77,2.77,0,0,0-2.89.13,4.1,4.1,0,0,0-1.91,2.95,8,8,0,0,0,.6,4.42,6.58,6.58,0,0,0,.79,1.5,4.33,4.33,0,0,0,1,1c.78.53,2,.59,3.71.19a13.34,13.34,0,0,1,2.37-.41,7.54,7.54,0,0,1,5.26,1.64,12.35,12.35,0,0,1,3.7,5.35A19.56,19.56,0,0,1,395,429a8.6,8.6,0,0,1-2.57,6.09l2.63,6.62-3.07,1.85-2.52-6.35a6,6,0,0,1-5.79-.89,14.24,14.24,0,0,1-4.63-6.54l3.17-1.92a8.1,8.1,0,0,0,3,3.94,3.4,3.4,0,0,0,3.63-.27,4.67,4.67,0,0,0,2.21-3.39,9.2,9.2,0,0,0-.68-5.06,10.73,10.73,0,0,0-.85-1.73,5.27,5.27,0,0,0-.94-1.2c-1.06-1-2.55-1.3-4.47-.89l-.71.14a8.33,8.33,0,0,1-6-.78,10.22,10.22,0,0,1-3.91-5.22,16.7,16.7,0,0,1-1.31-7.71,8.89,8.89,0,0,1,2.53-5.75l-2.17-5.46Z"/><path class="cls-8" d="M254.09,155.35l1.21-16.6s4.69,11.76,3.22,16.84S254.09,155.35,254.09,155.35Z"/><path class="cls-8" d="M291,160.45l10-12.36s-3.24,12.59-5.73,15.53S291,160.45,291,160.45Z"/><path class="cls-8" d="M299.09,150.69s-1.75-2.18-1.56-3,1.07-3.66,1.07-3.66l.29-.71s1-.15.35,1.77.19,1.13.19,1.13l1.21-1.56,1.64-1.8.63-.89s.31-.52.49-.59c.53-.19.46.27.46.27l-2.14,3.64,2.88-2.86s.42-.3.65-.16.09.27.09.27l-2.52,4,1.65-1.31s.42-.29.65-.17l.32.18-5.67,5.9Z"/><path class="cls-8" d="M302.39,145.62l2.13-1.9a2.34,2.34,0,0,1,.77-.57.35.35,0,0,1,.48.2l-2.95,3.17Z"/><path class="cls-8" d="M255.85,142.32s2.31-1.57,2.35-2.38,0-3.77,0-3.77l-.08-.76s-.88-.41-.84,1.58-.51,1-.51,1l-.73-1.82L255,134l-.36-1s-.15-.59-.31-.7c-.45-.33-.52.13-.52.13l1,4.06-2-3.53s-.32-.41-.58-.34-.17.23-.17.23l1.32,4.47-1.22-1.71s-.33-.4-.59-.34a2,2,0,0,1-.35.07l3.81,7.21Z"/><path class="cls-8" d="M254.1,136.59l-1.54-2.41a2.33,2.33,0,0,0-.58-.76.35.35,0,0,0-.52.06l2,3.84Z"/><polygon class="cls-9" points="267.98 170.34 260.26 160.1 259.75 156.72 260.6 156.84 259.67 153.53 253.2 153.33 252.72 158.56 253.62 158.77 253.76 161.85 254.97 162.66 259.46 177.76 267.98 170.34"/><path class="cls-10" d="M280.25,272.51l-.22,3.31.19,2.8,1,.9.8.37.17.5,2.58,2.32a5.13,5.13,0,0,0,3.17.67c.47,0,0-1.35-.1-1.56a21.85,21.85,0,0,0-2-2.56l-1.82-3.08-2-3.81Z"/><path class="cls-10" d="M258.08,269.49l.52,1.42.16,1.53-.41,2.34H257l-.93-.35-.7.34s-3.74.17-5.11,0c-2.27-.27-3.47-.68-3.85-1.18-.21-.28.91-.6,1.27-.6a13.38,13.38,0,0,0,4.35-1l1.93-1.61.52-1.26Z"/><path class="cls-11" d="M283.38,171.63l-16.53-3.12s-14,6.57-12.45,34.81c0,.13,20.55,5.75,20.51.36C274.81,190.19,283.38,171.63,283.38,171.63Z"/><polygon class="cls-11" points="277.81 173.38 289.4 161.08 288.86 160.64 292.05 158.36 298.64 162.5 295.72 166.58 294.81 165.77 293.25 164.67 294.75 166.16 292.34 171 288.85 175.31 277.16 186.64 277.81 173.38"/><polygon class="cls-12" points="274.15 203.99 285.05 276.24 279.73 275.73 273.06 251.21 271.65 243.91 263.69 214.89 262.76 202.73 274.15 203.99"/><polygon class="cls-12" points="259.04 269.88 257.77 244.61 261.17 231.16 265.62 212.65 264.28 202.87 254.49 201.89 253.34 209.13 250.24 239.12 249.54 246.4 252.64 270.56 259.04 269.88"/><path class="cls-8" d="M271.88,164.56a31.36,31.36,0,0,0-1,5.81c.49,1.77,5.41,1.26,5.45.24a26.87,26.87,0,0,1,2.07-5.78C278.76,164.26,272.37,162.39,271.88,164.56Z"/><path class="cls-13" d="M275,163.61a12,12,0,0,1,3,.83c-.57,1-1.16,2.05-1.6,2.69-1.25,1.8-3.21,1.9-4.51,2.11a3.06,3.06,0,0,1-.95,0c.08-.66.35-2,.95-4.66C272.1,163.58,273.55,163.43,275,163.61Z"/><path class="cls-8" d="M274.05,154.68l-4.88,8.87s-1.16,2.1-.51,2.84a6.16,6.16,0,0,0,4.19,1.56c1.3-.21,3.26-.32,4.51-2.11s3.56-6.46,3.56-6.46.17-1.86-3.16-2.49S274.05,154.68,274.05,154.68Z"/><path class="cls-14" d="M275.54,152.7a1.83,1.83,0,0,0-1.79.42,2,2,0,0,0,.06,2.42,30.24,30.24,0,0,0,4.91,2.66,3.37,3.37,0,0,0,2.36-.12c.52-.33-.37-2.13-1.37-2.34C277.17,155.19,277.21,153.09,275.54,152.7Z"/><path class="cls-14" d="M280.07,157.59,278,161.42l-.81,2.19.45.25.83.45s4.27-4.52,3.31-5.82S280.31,157.33,280.07,157.59Z"/><path class="cls-8" d="M277.44,164.26a.68.68,0,0,0,.28.93l.35.19a.7.7,0,0,0,.94-.27l.77-1.4a.68.68,0,0,0-.27-.93l-.36-.19a.68.68,0,0,0-.93.27Z"/><path class="cls-15" d="M271.43,171.23s-9.53,10.22-11.81,24a3.17,3.17,0,0,0,.66,2.15l1.91-1.06S266.56,181.25,271.43,171.23Z"/><polygon class="cls-9" points="271.55 171.16 271.21 173.49 276.48 171.07 276.34 170.44 271.55 171.16"/><polygon class="cls-9" points="270.82 169.67 269.35 172.06 271.51 171.1 270.82 169.67"/><path class="cls-16" d="M361.63,74.69c0,41.24-32.05,74.68-71.59,74.68s-71.58-33.44-71.58-74.68S250.51,0,290,0,361.63,33.44,361.63,74.69Z"/><path class="cls-17" d="M343,74.69c0,30.5-23.69,55.23-52.93,55.23s-52.93-24.73-52.93-55.23S260.8,19.47,290,19.47,343,44.19,343,74.69Z"/><path class="cls-16" d="M324.32,74.69c0,19.75-15.35,35.76-34.28,35.76s-34.27-16-34.27-35.76S271.11,38.93,290,38.93,324.32,54.94,324.32,74.69Z"/><path class="cls-17" d="M305.67,74.69c0,9-7,16.29-15.63,16.29s-15.62-7.29-15.62-16.29,7-16.3,15.62-16.3S305.67,65.69,305.67,74.69Z"/><path class="cls-3" d="M290,0V19.47c29.24,0,52.93,24.72,52.93,55.22S319.28,129.92,290,129.92v19.45c39.54,0,71.59-33.44,71.59-74.68S329.58,0,290,0Z"/><path class="cls-8" d="M290,58.39c8.63,0,15.63,7.3,15.63,16.3S298.67,91,290,91Z"/><path class="cls-3" d="M290,38.93V58.39c8.63,0,15.63,7.3,15.63,16.3S298.67,91,290,91v19.47c18.93,0,34.28-16,34.28-35.76S309,38.93,290,38.93Z"/><path class="cls-18" d="M305.67,74.69c0-9-7-16.3-15.63-16.3V91C298.67,91,305.67,83.69,305.67,74.69Z"/><path class="cls-18" d="M290,19.47V38.93c18.93,0,34.28,16,34.28,35.76S309,110.45,290,110.45v19.47c29.24,0,52.93-24.73,52.93-55.23S319.28,19.47,290,19.47Z"/><path class="cls-19" d="M207,295.24c.42-23.6-13.87-43-31.92-43.37a24.76,24.76,0,0,0-5.79.62c.43,2,.9,4.07,1.39,6.13l-19.53,23.11.3,6.93,7.54,6.92s5.36-8.49,17.53-10.11c-8.45,16.82-11.75,28.73-12,39.22a29,29,0,0,0,4.27,1.66c7.8-2,20.18,7.07,26.75.22.65-.69.86-2.11.73-4a28.06,28.06,0,0,0,3.62-1.66A51.53,51.53,0,0,0,207,295.24Z"/><path class="cls-20" d="M175.05,251.87a24.76,24.76,0,0,0-5.79.62c.43,2,.9,4.07,1.39,6.13l-3.35,4h.09c12.25,0,22.19,15.42,22.19,34.43,0,4.09-3.41,19-5.46,23.27,2.39,5,7.74,2.14,11.55,2.51a29,29,0,0,0,4.18-1.89A51.53,51.53,0,0,0,207,295.24C207.39,271.64,193.1,252.22,175.05,251.87Z"/><path class="cls-19" d="M175.05,251.87a24.76,24.76,0,0,0-5.79.62l1.39,6.13c19.38,1.1,32.28,20.77,31.88,43a53,53,0,0,1-4.22,20c.52-.25,1-.49,1.54-.77A51.53,51.53,0,0,0,207,295.24C207.39,271.64,193.1,252.22,175.05,251.87Z"/><path class="cls-20" d="M203.85,322.9a2.42,2.42,0,0,1-2.36,2.47H164.88a2.42,2.42,0,0,1-2.36-2.47h0a2.41,2.41,0,0,1,2.36-2.46h36.61a2.41,2.41,0,0,1,2.36,2.46Z"/><path class="cls-20" d="M216.35,354.39a2.41,2.41,0,0,1-2.36,2.46,101.75,101.75,0,0,1-30.06,4.7c-18.65,0-31.55-4.7-31.55-4.7a2.41,2.41,0,0,1-2.36-2.46h0a2.42,2.42,0,0,1,2.36-2.47H214a2.42,2.42,0,0,1,2.36,2.47Z"/><path class="cls-19" d="M190.27,322.77a21,21,0,0,0-7.09,1.23,20.91,20.91,0,0,0-7.08-1.23c-13,0-23.62,12-23.62,26.83a30.17,30.17,0,0,0,.25,3.83s14.68,3.93,28.83,3.66c8.07-.15,27.44-.78,32.08-3.66,1-.64.24-2.53.24-3.83C213.88,334.78,203.31,322.77,190.27,322.77Z"/><path class="cls-20" d="M190.27,322.77a21,21,0,0,1,10.08,2.6h1.14a2.47,2.47,0,0,0,0-4.93H183.17V324h0A21,21,0,0,1,190.27,322.77Z"/><path class="cls-20" d="M214,351.92h-.21c0,.51-.08,1-.14,1.51H183.17v3.42H214a2.47,2.47,0,0,0,0-4.93Z"/><path class="cls-20" d="M213.64,353.43c.06-.5.11-1,.14-1.51.06-.76.1-1.54.1-2.32,0-10.71-5.54-19.93-13.53-24.23A20.92,20.92,0,0,0,183.18,324h0v29.44h30.47Z"/><path class="cls-19" d="M203.85,322.9a2.42,2.42,0,0,1-2.36,2.47H164.88a2.42,2.42,0,0,1-2.36-2.47h0a2.41,2.41,0,0,1,2.36-2.46h36.61a2.41,2.41,0,0,1,2.36,2.46Z"/><path class="cls-20" d="M203.85,322.9a2.56,2.56,0,0,0-.35-1.26H184.34a2.42,2.42,0,0,0-2.36,2.47,2.46,2.46,0,0,0,.35,1.26h19.16A2.42,2.42,0,0,0,203.85,322.9Z"/><path class="cls-20" d="M203.85,354.39a2.53,2.53,0,0,0-.35-1.26H184.34a2.41,2.41,0,0,0-2.36,2.46,2.46,2.46,0,0,0,.35,1.26h19.16A2.41,2.41,0,0,0,203.85,354.39Z"/><path class="cls-20" d="M180.82,276.93c-15.39,3.7-20.33,14.68-21.53,18.18a26.46,26.46,0,0,1,17.37-10Q178.57,281.18,180.82,276.93Z"/></g></g></svg>