<svg xmlns="http://www.w3.org/2000/svg" xmlns:xlink="http://www.w3.org/1999/xlink" width="125" zoomAndPan="magnify" viewBox="0 0 93.75 93.749997" height="125" preserveAspectRatio="xMidYMid meet" version="1.0"><defs><clipPath id="23e6386f1b"><path d="M 0 0 L 93.5 0 L 93.5 93.5 L 0 93.5 Z M 0 0 " clip-rule="nonzero"/></clipPath></defs><g clip-path="url(#23e6386f1b)"><path fill="#f4edef" d="M 93.742188 46.871094 C 93.742188 48.40625 93.667969 49.9375 93.515625 51.464844 C 93.367188 52.992188 93.140625 54.507812 92.84375 56.015625 C 92.542969 57.519531 92.167969 59.007812 91.722656 60.476562 C 91.277344 61.945312 90.761719 63.390625 90.175781 64.808594 C 89.585938 66.226562 88.929688 67.613281 88.207031 68.964844 C 87.484375 70.320312 86.695312 71.636719 85.84375 72.910156 C 84.992188 74.1875 84.078125 75.417969 83.101562 76.605469 C 82.128906 77.792969 81.101562 78.929688 80.015625 80.015625 C 78.929688 81.101562 77.792969 82.128906 76.605469 83.101562 C 75.417969 84.078125 74.1875 84.992188 72.910156 85.84375 C 71.636719 86.695312 70.320312 87.484375 68.964844 88.207031 C 67.613281 88.929688 66.226562 89.585938 64.808594 90.175781 C 63.390625 90.761719 61.945312 91.277344 60.476562 91.722656 C 59.007812 92.167969 57.519531 92.542969 56.015625 92.84375 C 54.507812 93.140625 52.992188 93.367188 51.464844 93.515625 C 49.9375 93.667969 48.40625 93.742188 46.871094 93.742188 C 45.335938 93.742188 43.804688 93.667969 42.277344 93.515625 C 40.75 93.367188 39.234375 93.140625 37.726562 92.84375 C 36.222656 92.542969 34.734375 92.167969 33.265625 91.722656 C 31.796875 91.277344 30.351562 90.761719 28.933594 90.175781 C 27.515625 89.585938 26.128906 88.929688 24.777344 88.207031 C 23.421875 87.484375 22.105469 86.695312 20.832031 85.84375 C 19.554688 84.992188 18.324219 84.078125 17.136719 83.101562 C 15.949219 82.128906 14.8125 81.101562 13.726562 80.015625 C 12.644531 78.929688 11.613281 77.792969 10.640625 76.605469 C 9.664062 75.417969 8.753906 74.1875 7.898438 72.910156 C 7.046875 71.636719 6.257812 70.320312 5.535156 68.964844 C 4.8125 67.613281 4.15625 66.226562 3.566406 64.808594 C 2.980469 63.390625 2.464844 61.945312 2.019531 60.476562 C 1.574219 59.007812 1.199219 57.519531 0.902344 56.015625 C 0.601562 54.507812 0.375 52.992188 0.226562 51.464844 C 0.0742188 49.9375 0 48.40625 0 46.871094 C 0 45.335938 0.0742188 43.804688 0.226562 42.277344 C 0.375 40.75 0.601562 39.234375 0.902344 37.726562 C 1.199219 36.222656 1.574219 34.734375 2.019531 33.265625 C 2.464844 31.796875 2.980469 30.351562 3.566406 28.933594 C 4.15625 27.515625 4.8125 26.128906 5.535156 24.777344 C 6.257812 23.421875 7.046875 22.105469 7.898438 20.832031 C 8.753906 19.554688 9.664062 18.324219 10.640625 17.136719 C 11.613281 15.949219 12.644531 14.8125 13.726562 13.726562 C 14.8125 12.644531 15.949219 11.613281 17.136719 10.640625 C 18.324219 9.664062 19.554688 8.753906 20.832031 7.898438 C 22.105469 7.046875 23.421875 6.257812 24.777344 5.535156 C 26.128906 4.8125 27.515625 4.15625 28.933594 3.566406 C 30.351562 2.980469 31.796875 2.464844 33.265625 2.019531 C 34.734375 1.574219 36.222656 1.199219 37.726562 0.902344 C 39.234375 0.601562 40.75 0.375 42.277344 0.226562 C 43.804688 0.0742188 45.335938 0 46.871094 0 C 48.40625 0 49.9375 0.0742188 51.464844 0.226562 C 52.992188 0.375 54.507812 0.601562 56.015625 0.902344 C 57.519531 1.199219 59.007812 1.574219 60.476562 2.019531 C 61.945312 2.464844 63.390625 2.980469 64.808594 3.566406 C 66.226562 4.15625 67.613281 4.8125 68.964844 5.535156 C 70.320312 6.257812 71.636719 7.046875 72.910156 7.898438 C 74.1875 8.753906 75.417969 9.664062 76.605469 10.640625 C 77.792969 11.613281 78.929688 12.644531 80.015625 13.726562 C 81.101562 14.8125 82.128906 15.949219 83.101562 17.136719 C 84.078125 18.324219 84.992188 19.554688 85.84375 20.832031 C 86.695312 22.105469 87.484375 23.421875 88.207031 24.777344 C 88.929688 26.128906 89.585938 27.515625 90.175781 28.933594 C 90.761719 30.351562 91.277344 31.796875 91.722656 33.265625 C 92.167969 34.734375 92.542969 36.222656 92.84375 37.726562 C 93.140625 39.234375 93.367188 40.75 93.515625 42.277344 C 93.667969 43.804688 93.742188 45.335938 93.742188 46.871094 Z M 93.742188 46.871094 " fill-opacity="1" fill-rule="nonzero"/></g><path fill="#00ab66" d="M 66.957031 44.546875 L 74.738281 43.132812 C 75.023438 43.074219 75.273438 43.144531 75.492188 43.34375 C 75.765625 43.585938 75.851562 43.886719 75.746094 44.238281 C 75.640625 44.59375 75.40625 44.796875 75.039062 44.847656 L 67.222656 46.269531 C 67.082031 46.300781 66.941406 46.300781 66.800781 46.269531 C 66.6875 46.230469 66.585938 46.171875 66.5 46.089844 L 66.449219 46.035156 C 66.308594 45.882812 66.230469 45.703125 66.21875 45.496094 C 66.207031 45.292969 66.265625 45.105469 66.386719 44.9375 C 66.519531 44.722656 66.710938 44.589844 66.957031 44.546875 Z M 74.910156 57.929688 C 74.976562 57.738281 74.976562 57.542969 74.910156 57.351562 C 74.824219 57.09375 74.65625 56.917969 74.398438 56.824219 L 66.328125 54.476562 C 66.25 54.449219 66.175781 54.433594 66.09375 54.433594 C 65.949219 54.421875 65.8125 54.449219 65.679688 54.507812 C 65.464844 54.613281 65.316406 54.777344 65.234375 55.003906 C 65.1875 55.167969 65.1875 55.335938 65.234375 55.5 L 65.234375 55.574219 C 65.320312 55.835938 65.492188 56.011719 65.746094 56.109375 L 73.820312 58.464844 C 73.894531 58.488281 73.96875 58.503906 74.046875 58.511719 C 74.238281 58.515625 74.414062 58.46875 74.574219 58.359375 C 74.730469 58.253906 74.84375 58.109375 74.910156 57.929688 Z M 54.347656 29.875 C 54.507812 29.945312 54.675781 29.960938 54.847656 29.929688 L 54.921875 29.929688 C 55.183594 29.851562 55.371094 29.683594 55.476562 29.433594 L 58.902344 21.5625 C 58.992188 21.339844 58.992188 21.121094 58.902344 20.898438 C 58.8125 20.675781 58.65625 20.515625 58.433594 20.417969 L 58.375 20.417969 C 58.203125 20.363281 58.035156 20.363281 57.863281 20.417969 C 57.597656 20.492188 57.414062 20.65625 57.304688 20.90625 L 53.890625 28.730469 C 53.792969 28.953125 53.789062 29.175781 53.882812 29.398438 C 53.972656 29.625 54.128906 29.78125 54.347656 29.875 Z M 44.386719 28.0625 C 44.535156 28.179688 44.699219 28.246094 44.886719 28.257812 L 45.019531 28.257812 C 45.195312 28.242188 45.347656 28.175781 45.480469 28.0625 L 45.539062 28.011719 C 45.730469 27.816406 45.8125 27.585938 45.789062 27.316406 L 44.386719 19.320312 C 44.359375 18.941406 44.167969 18.691406 43.808594 18.566406 C 43.6875 18.542969 43.570312 18.542969 43.449219 18.566406 C 43.242188 18.585938 43.070312 18.667969 42.929688 18.816406 C 42.738281 19.003906 42.652344 19.234375 42.671875 19.5 L 44.101562 27.476562 C 44.117188 27.710938 44.210938 27.90625 44.386719 28.0625 Z M 51.160156 43.0625 C 50.40625 44.027344 49.722656 44.996094 49.015625 45.960938 L 49.164062 45.855469 C 50.722656 44.773438 52.339844 43.652344 53.941406 42.558594 C 53.726562 42.421875 53.492188 42.328125 53.238281 42.277344 C 52.984375 42.226562 52.730469 42.226562 52.476562 42.273438 C 52.222656 42.320312 51.988281 42.410156 51.769531 42.546875 C 51.550781 42.683594 51.367188 42.855469 51.210938 43.0625 Z M 62.785156 34.644531 C 62.59375 34.789062 62.484375 34.980469 62.460938 35.21875 C 62.4375 35.421875 62.480469 35.613281 62.589844 35.785156 C 62.699219 35.960938 62.851562 36.082031 63.046875 36.148438 L 63.121094 36.148438 C 63.167969 36.15625 63.21875 36.15625 63.265625 36.148438 C 63.476562 36.164062 63.667969 36.109375 63.835938 35.976562 L 70.609375 31.085938 C 70.777344 30.933594 70.875 30.746094 70.894531 30.519531 C 70.917969 30.292969 70.859375 30.085938 70.71875 29.90625 C 70.613281 29.769531 70.480469 29.671875 70.3125 29.613281 L 70.089844 29.613281 C 69.878906 29.605469 69.6875 29.667969 69.515625 29.792969 L 62.746094 34.683594 Z M 52.71875 36.863281 C 52.492188 36.683594 52.242188 36.554688 51.964844 36.476562 C 51.6875 36.402344 51.40625 36.382812 51.117188 36.425781 C 50.832031 36.464844 50.566406 36.5625 50.324219 36.710938 C 50.078125 36.863281 49.871094 37.058594 49.707031 37.292969 C 48.105469 39.476562 46.503906 41.664062 44.886719 43.882812 L 44.992188 44.027344 C 45.386719 44.636719 45.609375 45.304688 45.667969 46.027344 C 45.757812 46.882812 45.660156 47.714844 45.375 48.527344 L 48.382812 46.449219 C 48.601562 46.140625 48.828125 45.839844 49.054688 45.53125 C 50.382812 43.742188 51.753906 41.882812 53.101562 40.046875 C 53.289062 39.832031 53.429688 39.585938 53.519531 39.3125 C 53.609375 39.039062 53.644531 38.757812 53.621094 38.472656 C 53.601562 38.183594 53.523438 37.914062 53.394531 37.65625 C 53.261719 37.398438 53.085938 37.179688 52.867188 36.992188 Z M 33.101562 43.253906 C 33.222656 42.6875 33.34375 42.101562 33.515625 41.550781 C 33.75 40.945312 33.859375 40.3125 33.84375 39.664062 C 33.828125 39.011719 33.6875 38.386719 33.425781 37.789062 C 33.230469 37.335938 32.9375 36.957031 32.554688 36.648438 C 32.429688 36.554688 32.296875 36.476562 32.15625 36.414062 C 31.667969 36.152344 31.167969 36.121094 30.652344 36.324219 C 30.203125 36.558594 29.929688 36.925781 29.832031 37.421875 C 28.4375 42.371094 27.371094 45.992188 26.121094 49.894531 C 25.507812 51.917969 25.300781 53.976562 25.488281 56.078125 C 25.609375 57.386719 25.988281 58.613281 26.621094 59.761719 C 27.253906 60.910156 28.089844 61.886719 29.132812 62.6875 C 29.15625 61.921875 29.269531 61.167969 29.460938 60.429688 C 30.023438 58.195312 30.984375 56.15625 32.351562 54.304688 C 34.796875 51.046875 36.992188 48.007812 39.925781 43.816406 C 40.433594 43.035156 41.148438 42.585938 42.070312 42.46875 C 42.535156 42.4375 42.980469 42.503906 43.414062 42.671875 C 43.847656 42.839844 44.222656 43.09375 44.539062 43.433594 C 44.613281 43.507812 44.695312 43.589844 44.765625 43.671875 C 46.5625 41.222656 48.429688 38.664062 50.421875 35.933594 C 50.597656 35.738281 50.730469 35.523438 50.828125 35.285156 C 50.925781 35.042969 50.980469 34.796875 50.988281 34.535156 C 51 34.277344 50.964844 34.027344 50.882812 33.78125 C 50.804688 33.53125 50.6875 33.308594 50.527344 33.101562 C 50.394531 32.933594 50.242188 32.785156 50.070312 32.660156 C 49.832031 32.488281 49.574219 32.375 49.289062 32.3125 C 49.007812 32.25 48.722656 32.246094 48.4375 32.300781 C 48.152344 32.355469 47.890625 32.464844 47.652344 32.625 C 47.414062 32.789062 47.214844 32.992188 47.058594 33.238281 C 45.71875 35.027344 44.386719 36.863281 43.117188 38.59375 L 41.929688 40.226562 L 41.3125 41.0625 C 40.558594 42.085938 39.808594 43.140625 39.054688 44.183594 C 39.011719 44.257812 38.957031 44.316406 38.890625 44.367188 C 38.847656 44.359375 38.8125 44.339844 38.785156 44.3125 C 38.753906 44.292969 38.730469 44.273438 38.707031 44.246094 C 38.742188 44.160156 38.789062 44.082031 38.84375 44.011719 C 40.859375 41.28125 42.988281 38.371094 45.75 34.609375 C 45.945312 34.386719 46.085938 34.132812 46.175781 33.851562 C 46.265625 33.570312 46.296875 33.285156 46.273438 32.988281 C 46.246094 32.695312 46.160156 32.417969 46.019531 32.160156 C 45.878906 31.898438 45.695312 31.675781 45.464844 31.492188 L 45.296875 31.378906 C 45.078125 31.242188 44.835938 31.152344 44.582031 31.105469 C 44.324219 31.058594 44.066406 31.0625 43.8125 31.113281 C 43.558594 31.164062 43.320312 31.257812 43.097656 31.398438 C 42.878906 31.535156 42.691406 31.710938 42.539062 31.921875 C 41.371094 33.507812 40.199219 35.132812 39.070312 36.707031 L 36.261719 40.550781 C 35.960938 40.957031 35.660156 41.371094 35.375 41.777344 C 34.5625 42.914062 33.71875 44.085938 32.816406 45.179688 L 32.773438 45.230469 C 32.738281 45.273438 32.699219 45.316406 32.660156 45.351562 C 32.605469 45.351562 32.660156 45.179688 32.660156 45.125 C 32.84375 44.511719 32.992188 43.886719 33.101562 43.253906 Z M 52.484375 61.445312 L 56.523438 58.683594 L 62.152344 54.921875 C 62.398438 54.773438 62.609375 54.585938 62.777344 54.355469 C 62.949219 54.128906 63.070312 53.875 63.144531 53.59375 C 63.214844 53.316406 63.226562 53.035156 63.1875 52.753906 C 63.144531 52.46875 63.050781 52.203125 62.902344 51.957031 L 62.789062 51.785156 C 62.640625 51.53125 62.445312 51.324219 62.207031 51.152344 C 61.96875 50.984375 61.707031 50.871094 61.417969 50.816406 C 61.132812 50.757812 60.847656 50.761719 60.5625 50.824219 C 60.277344 50.890625 60.015625 51.007812 59.78125 51.183594 C 56.539062 53.386719 53.289062 55.621094 50 57.90625 L 49.867188 58 C 49.792969 58.066406 49.710938 58.121094 49.617188 58.164062 L 49.65625 58.066406 C 49.59375 57.976562 49.601562 57.953125 49.65625 57.929688 C 49.753906 57.820312 49.867188 57.722656 49.992188 57.644531 L 60.941406 50.097656 C 61.214844 49.949219 61.445312 49.753906 61.636719 49.507812 C 61.828125 49.257812 61.957031 48.984375 62.03125 48.679688 C 62.101562 48.378906 62.109375 48.070312 62.050781 47.765625 C 61.992188 47.460938 61.871094 47.179688 61.691406 46.925781 C 61.527344 46.6875 61.324219 46.496094 61.078125 46.34375 C 60.835938 46.191406 60.570312 46.09375 60.289062 46.050781 C 60.003906 46.003906 59.722656 46.019531 59.445312 46.085938 C 59.167969 46.15625 58.914062 46.277344 58.683594 46.449219 L 53.234375 50.175781 L 51.582031 51.316406 L 50.6875 51.910156 C 49.648438 52.664062 48.570312 53.355469 47.527344 54.101562 C 47.367188 54.214844 47.308594 54.207031 47.308594 54.207031 C 47.308594 54.207031 47.269531 54.207031 47.226562 54.125 C 47.207031 54.097656 47.191406 54.070312 47.179688 54.042969 C 47.238281 53.96875 47.304688 53.910156 47.382812 53.859375 C 50.179688 51.964844 53.152344 49.933594 57.003906 47.285156 C 57.257812 47.136719 57.472656 46.949219 57.648438 46.714844 C 57.824219 46.480469 57.949219 46.222656 58.019531 45.941406 C 58.089844 45.65625 58.101562 45.371094 58.058594 45.082031 C 58.011719 44.792969 57.910156 44.523438 57.757812 44.277344 C 57.722656 44.21875 57.683594 44.164062 57.636719 44.109375 C 57.480469 43.902344 57.289062 43.730469 57.066406 43.59375 C 56.839844 43.457031 56.601562 43.371094 56.34375 43.324219 C 56.085938 43.28125 55.828125 43.285156 55.574219 43.339844 C 55.316406 43.394531 55.078125 43.492188 54.859375 43.636719 L 50.007812 46.984375 C 48.722656 47.878906 47.398438 48.796875 46.089844 49.691406 L 44.847656 50.558594 C 43.703125 51.355469 42.53125 52.183594 41.3125 52.90625 L 41.257812 52.90625 L 41.109375 52.988281 C 41.109375 52.988281 41.152344 52.824219 41.191406 52.769531 C 41.574219 52.257812 41.90625 51.707031 42.230469 51.175781 C 42.515625 50.65625 42.828125 50.15625 43.167969 49.671875 C 44.042969 48.640625 44.425781 47.449219 44.328125 46.105469 C 44.292969 45.609375 44.140625 45.152344 43.875 44.734375 C 43.792969 44.605469 43.695312 44.488281 43.582031 44.382812 C 43.21875 43.972656 42.761719 43.78125 42.214844 43.800781 C 41.714844 43.871094 41.332031 44.121094 41.070312 44.554688 C 38.136719 48.757812 35.933594 51.8125 33.464844 55.085938 C 32.21875 56.789062 31.339844 58.660156 30.832031 60.707031 C 30.511719 62.050781 30.480469 63.398438 30.742188 64.753906 C 31.003906 66.113281 31.535156 67.351562 32.335938 68.480469 C 33.402344 70.082031 34.8125 71.273438 36.570312 72.058594 C 38.476562 72.882812 40.433594 73.03125 42.441406 72.503906 C 44.554688 71.953125 46.523438 71.066406 48.339844 69.847656 C 49.84375 68.824219 51.136719 67.945312 52.492188 67.011719 L 54.5 65.628906 L 56.34375 64.371094 C 58.109375 63.160156 59.933594 61.910156 61.722656 60.667969 C 61.972656 60.519531 62.1875 60.328125 62.355469 60.089844 C 62.527344 59.855469 62.644531 59.59375 62.707031 59.304688 C 62.769531 59.019531 62.769531 58.734375 62.710938 58.449219 C 62.652344 58.160156 62.539062 57.898438 62.371094 57.660156 L 62.324219 57.585938 C 62.171875 57.355469 61.976562 57.167969 61.746094 57.015625 C 61.515625 56.867188 61.261719 56.765625 60.992188 56.71875 C 60.71875 56.671875 60.449219 56.675781 60.179688 56.738281 C 59.914062 56.800781 59.667969 56.910156 59.441406 57.074219 C 57.1875 58.578125 54.929688 60.128906 52.777344 61.648438 C 52.4375 61.886719 52.402344 61.84375 52.324219 61.746094 C 52.324219 61.746094 52.324219 61.683594 52.324219 61.683594 C 52.324219 61.683594 52.402344 61.503906 52.484375 61.445312 Z M 52.484375 61.445312 " fill-opacity="1" fill-rule="nonzero"/></svg>