<svg xmlns="http://www.w3.org/2000/svg" xmlns:xlink="http://www.w3.org/1999/xlink" width="122" zoomAndPan="magnify" viewBox="0 0 91.5 91.499997" height="122" preserveAspectRatio="xMidYMid meet" version="1.0"><defs><clipPath id="782514abd8"><path d="M 0 0 L 91.003906 0 L 91.003906 91.003906 L 0 91.003906 Z M 0 0 " clip-rule="nonzero"/></clipPath></defs><g clip-path="url(#782514abd8)"><path fill="#f4edef" d="M 91.492188 45.746094 C 91.492188 47.246094 91.417969 48.738281 91.273438 50.230469 C 91.125 51.722656 90.90625 53.203125 90.613281 54.671875 C 90.320312 56.140625 89.957031 57.59375 89.523438 59.027344 C 89.085938 60.460938 88.582031 61.867188 88.011719 63.253906 C 87.4375 64.636719 86.796875 65.988281 86.089844 67.3125 C 85.382812 68.632812 84.617188 69.914062 83.78125 71.160156 C 82.949219 72.40625 82.058594 73.609375 81.109375 74.765625 C 80.15625 75.925781 79.152344 77.035156 78.09375 78.09375 C 77.035156 79.152344 75.925781 80.15625 74.765625 81.109375 C 73.609375 82.058594 72.40625 82.949219 71.160156 83.78125 C 69.914062 84.617188 68.632812 85.382812 67.3125 86.089844 C 65.988281 86.796875 64.636719 87.4375 63.253906 88.011719 C 61.867188 88.582031 60.460938 89.085938 59.027344 89.523438 C 57.59375 89.957031 56.140625 90.320312 54.671875 90.613281 C 53.203125 90.90625 51.722656 91.125 50.230469 91.273438 C 48.738281 91.417969 47.246094 91.492188 45.746094 91.492188 C 44.246094 91.492188 42.753906 91.417969 41.261719 91.273438 C 39.769531 91.125 38.292969 90.90625 36.820312 90.613281 C 35.351562 90.320312 33.902344 89.957031 32.46875 89.523438 C 31.03125 89.085938 29.625 88.582031 28.238281 88.011719 C 26.855469 87.4375 25.503906 86.796875 24.179688 86.089844 C 22.859375 85.382812 21.578125 84.617188 20.332031 83.78125 C 19.085938 82.949219 17.882812 82.058594 16.726562 81.109375 C 15.566406 80.15625 14.457031 79.152344 13.398438 78.09375 C 12.339844 77.035156 11.335938 75.925781 10.382812 74.765625 C 9.433594 73.609375 8.542969 72.40625 7.710938 71.160156 C 6.878906 69.914062 6.109375 68.632812 5.402344 67.3125 C 4.695312 65.988281 4.054688 64.636719 3.480469 63.253906 C 2.910156 61.867188 2.40625 60.460938 1.96875 59.027344 C 1.535156 57.59375 1.171875 56.140625 0.878906 54.671875 C 0.585938 53.203125 0.367188 51.722656 0.21875 50.230469 C 0.0742188 48.738281 0 47.246094 0 45.746094 C 0 44.246094 0.0742188 42.753906 0.21875 41.261719 C 0.367188 39.769531 0.585938 38.292969 0.878906 36.820312 C 1.171875 35.351562 1.535156 33.902344 1.96875 32.46875 C 2.40625 31.03125 2.910156 29.625 3.480469 28.238281 C 4.054688 26.855469 4.695312 25.503906 5.402344 24.179688 C 6.109375 22.859375 6.878906 21.578125 7.710938 20.332031 C 8.542969 19.085938 9.433594 17.882812 10.382812 16.726562 C 11.335938 15.566406 12.339844 14.457031 13.398438 13.398438 C 14.457031 12.339844 15.566406 11.335938 16.726562 10.382812 C 17.882812 9.433594 19.085938 8.542969 20.332031 7.710938 C 21.578125 6.878906 22.859375 6.109375 24.179688 5.402344 C 25.503906 4.695312 26.855469 4.054688 28.238281 3.480469 C 29.625 2.910156 31.03125 2.40625 32.46875 1.96875 C 33.902344 1.535156 35.351562 1.171875 36.820312 0.878906 C 38.292969 0.585938 39.769531 0.367188 41.261719 0.21875 C 42.753906 0.0742188 44.246094 0 45.746094 0 C 47.246094 0 48.738281 0.0742188 50.230469 0.21875 C 51.722656 0.367188 53.203125 0.585938 54.671875 0.878906 C 56.140625 1.171875 57.59375 1.535156 59.027344 1.96875 C 60.460938 2.40625 61.867188 2.910156 63.253906 3.480469 C 64.636719 4.054688 65.988281 4.695312 67.3125 5.402344 C 68.632812 6.109375 69.914062 6.878906 71.160156 7.710938 C 72.40625 8.542969 73.609375 9.433594 74.765625 10.382812 C 75.925781 11.335938 77.035156 12.339844 78.09375 13.398438 C 79.152344 14.457031 80.15625 15.566406 81.109375 16.726562 C 82.058594 17.882812 82.949219 19.085938 83.78125 20.332031 C 84.617188 21.578125 85.382812 22.859375 86.089844 24.179688 C 86.796875 25.503906 87.4375 26.855469 88.011719 28.238281 C 88.582031 29.625 89.085938 31.03125 89.523438 32.46875 C 89.957031 33.902344 90.320312 35.351562 90.613281 36.820312 C 90.90625 38.292969 91.125 39.769531 91.273438 41.261719 C 91.417969 42.753906 91.492188 44.246094 91.492188 45.746094 Z M 91.492188 45.746094 " fill-opacity="1" fill-rule="nonzero"/></g><path fill="#00ab66" d="M 46.523438 72.128906 C 47.726562 71.761719 71.082031 58.671875 71.082031 41.164062 C 71.113281 39.335938 70.765625 37.582031 70.03125 35.90625 C 69.300781 34.230469 68.253906 32.78125 66.886719 31.5625 C 65.5625 30.335938 64.058594 29.402344 62.367188 28.761719 C 60.679688 28.121094 58.929688 27.820312 57.125 27.863281 C 52.054688 27.863281 48.523438 30.050781 46.523438 34.421875 C 44.53125 30.054688 41 27.867188 35.929688 27.863281 C 34.125 27.820312 32.375 28.121094 30.6875 28.761719 C 28.996094 29.402344 27.492188 30.335938 26.167969 31.5625 C 24.800781 32.78125 23.753906 34.230469 23.023438 35.90625 C 22.289062 37.582031 21.941406 39.335938 21.972656 41.164062 C 21.972656 58.671875 45.328125 71.769531 46.523438 72.128906 Z M 28.027344 48.832031 C 28.023438 48.691406 28.046875 48.550781 28.097656 48.417969 C 28.144531 48.28125 28.21875 48.160156 28.320312 48.054688 C 28.417969 47.949219 28.53125 47.867188 28.664062 47.808594 C 28.792969 47.75 28.929688 47.71875 29.074219 47.710938 L 35.136719 47.710938 L 37.632812 35.570312 C 37.671875 35.3125 37.789062 35.097656 37.992188 34.929688 C 38.191406 34.761719 38.421875 34.679688 38.683594 34.6875 C 38.945312 34.695312 39.167969 34.785156 39.359375 34.964844 C 39.550781 35.144531 39.660156 35.363281 39.683594 35.625 L 42.941406 56.234375 L 45.753906 41.117188 C 45.785156 40.867188 45.890625 40.65625 46.078125 40.484375 C 46.261719 40.3125 46.480469 40.222656 46.734375 40.210938 C 46.984375 40.199219 47.210938 40.273438 47.410156 40.425781 C 47.609375 40.582031 47.734375 40.78125 47.789062 41.027344 L 49.722656 48.3125 L 59.25 48.3125 C 59.304688 47.941406 59.425781 47.589844 59.605469 47.265625 C 59.785156 46.9375 60.019531 46.648438 60.300781 46.402344 C 60.582031 46.152344 60.894531 45.960938 61.242188 45.824219 C 61.59375 45.6875 61.953125 45.613281 62.328125 45.605469 C 62.773438 45.605469 63.203125 45.691406 63.617188 45.859375 C 64.027344 46.03125 64.390625 46.273438 64.707031 46.589844 C 65.023438 46.90625 65.265625 47.269531 65.4375 47.679688 C 65.605469 48.09375 65.691406 48.523438 65.691406 48.96875 C 65.691406 49.414062 65.605469 49.84375 65.4375 50.257812 C 65.265625 50.667969 65.023438 51.03125 64.707031 51.347656 C 64.390625 51.664062 64.027344 51.90625 63.617188 52.078125 C 63.203125 52.246094 62.773438 52.332031 62.328125 52.332031 C 61.730469 52.324219 61.179688 52.152344 60.679688 51.828125 C 60.175781 51.5 59.800781 51.066406 59.546875 50.523438 L 48.9375 50.523438 C 48.699219 50.519531 48.484375 50.441406 48.292969 50.292969 C 48.105469 50.140625 47.980469 49.949219 47.921875 49.714844 L 46.957031 46.074219 L 43.863281 62.628906 C 43.824219 62.882812 43.707031 63.09375 43.511719 63.261719 C 43.316406 63.429688 43.09375 63.515625 42.835938 63.515625 C 42.578125 63.515625 42.351562 63.429688 42.15625 63.261719 C 41.960938 63.09375 41.84375 62.882812 41.804688 62.628906 L 38.496094 41.695312 L 37 49.082031 C 36.957031 49.328125 36.839844 49.539062 36.648438 49.703125 C 36.457031 49.871094 36.234375 49.957031 35.984375 49.960938 L 29.074219 49.960938 C 28.929688 49.957031 28.792969 49.925781 28.660156 49.867188 C 28.527344 49.804688 28.414062 49.722656 28.316406 49.617188 C 28.21875 49.511719 28.144531 49.390625 28.09375 49.253906 C 28.042969 49.117188 28.023438 48.976562 28.027344 48.832031 Z M 28.027344 48.832031 " fill-opacity="1" fill-rule="nonzero"/></svg>