<svg xmlns="http://www.w3.org/2000/svg" xmlns:xlink="http://www.w3.org/1999/xlink" width="500" zoomAndPan="magnify" viewBox="0 0 375 374.999991" height="500" preserveAspectRatio="xMidYMid meet" version="1.0"><defs><g/><clipPath id="8d35242c6c"><path d="M 13.566406 138.890625 L 124.566406 138.890625 L 124.566406 236.390625 L 13.566406 236.390625 Z M 13.566406 138.890625 " clip-rule="nonzero"/></clipPath></defs><g clip-path="url(#8d35242c6c)"><path fill="#fffbfb" d="M 45.0625 138.890625 C 27.90625 138.890625 13.960938 153 13.960938 170.316406 C 13.960938 206.023438 53.917969 223.644531 67.59375 235.160156 L 69.066406 236.402344 L 70.542969 235.160156 C 84.214844 223.644531 124.171875 206.023438 124.171875 170.316406 C 124.171875 153 110.230469 138.890625 93.074219 138.890625 C 83.320312 138.890625 74.769531 143.585938 69.066406 150.695312 C 63.367188 143.585938 54.8125 138.890625 45.0625 138.890625 Z M 45.0625 143.5 C 54.296875 143.5 62.398438 148.265625 67.152344 155.503906 L 69.066406 158.421875 L 70.980469 155.503906 C 75.734375 148.265625 83.835938 143.5 93.074219 143.5 C 107.730469 143.5 119.582031 155.472656 119.582031 170.316406 C 119.582031 201.714844 84.855469 217.960938 69.066406 230.566406 C 53.277344 217.960938 18.554688 201.714844 18.554688 170.316406 C 18.554688 155.472656 30.402344 143.5 45.0625 143.5 Z M 87.4375 159.648438 C 85.667969 159.648438 83.902344 160.320312 82.566406 161.664062 L 72.242188 172.027344 L 48.707031 168.875 C 48.273438 168.816406 47.855469 168.878906 47.457031 169.058594 C 47.054688 169.242188 46.734375 169.515625 46.492188 169.882812 L 44.195312 173.339844 C 44.101562 173.484375 44.023438 173.636719 43.960938 173.796875 C 43.898438 173.957031 43.859375 174.125 43.832031 174.292969 C 43.808594 174.464844 43.804688 174.636719 43.816406 174.808594 C 43.832031 174.980469 43.863281 175.148438 43.917969 175.3125 C 43.96875 175.476562 44.039062 175.632812 44.125 175.78125 C 44.210938 175.929688 44.3125 176.066406 44.429688 176.195312 C 44.546875 176.320312 44.675781 176.429688 44.820312 176.527344 C 44.960938 176.625 45.113281 176.703125 45.273438 176.765625 L 61.292969 183.019531 L 54.734375 189.601562 L 48.402344 189.601562 C 47.769531 189.601562 47.226562 189.824219 46.777344 190.277344 L 44.484375 192.582031 C 44.355469 192.710938 44.242188 192.851562 44.148438 193.007812 C 44.054688 193.164062 43.976562 193.328125 43.921875 193.503906 C 43.867188 193.675781 43.832031 193.855469 43.816406 194.035156 C 43.804688 194.21875 43.8125 194.398438 43.839844 194.582031 C 43.871094 194.761719 43.917969 194.933594 43.988281 195.101562 C 44.058594 195.269531 44.148438 195.429688 44.257812 195.578125 C 44.363281 195.722656 44.488281 195.855469 44.625 195.972656 C 44.765625 196.089844 44.917969 196.191406 45.078125 196.273438 L 53.578125 200.539062 L 57.828125 209.070312 C 57.910156 209.234375 58.007812 209.386719 58.128906 209.527344 C 58.246094 209.664062 58.375 209.789062 58.523438 209.898438 C 58.667969 210.003906 58.828125 210.09375 58.992188 210.164062 C 59.160156 210.238281 59.335938 210.285156 59.515625 210.316406 C 59.695312 210.34375 59.875 210.351562 60.054688 210.339844 C 60.238281 210.324219 60.414062 210.289062 60.589844 210.234375 C 60.761719 210.179688 60.925781 210.101562 61.082031 210.007812 C 61.234375 209.910156 61.378906 209.800781 61.507812 209.671875 L 63.800781 207.367188 C 64.25 206.914062 64.476562 206.371094 64.476562 205.734375 L 64.476562 199.378906 L 71.03125 192.796875 L 77.261719 208.878906 C 77.324219 209.039062 77.402344 209.191406 77.5 209.332031 C 77.59375 209.476562 77.707031 209.605469 77.832031 209.722656 C 77.957031 209.839844 78.09375 209.945312 78.242188 210.03125 C 78.390625 210.117188 78.546875 210.1875 78.710938 210.238281 C 78.871094 210.289062 79.039062 210.324219 79.210938 210.335938 C 79.382812 210.351562 79.554688 210.347656 79.722656 210.324219 C 79.894531 210.296875 80.058594 210.253906 80.21875 210.195312 C 80.378906 210.132812 80.53125 210.054688 80.671875 209.957031 L 84.117188 207.652344 C 84.484375 207.410156 84.757812 207.085938 84.9375 206.6875 C 85.117188 206.285156 85.179688 205.867188 85.121094 205.429688 L 81.984375 181.804688 L 92.304688 171.441406 C 94.976562 168.757812 94.976562 164.34375 92.304688 161.664062 C 90.972656 160.320312 89.203125 159.648438 87.4375 159.648438 Z M 87.4375 164.234375 C 88.019531 164.234375 88.601562 164.460938 89.058594 164.921875 C 89.976562 165.839844 89.976562 167.261719 89.058594 168.179688 L 77.933594 179.351562 C 77.398438 179.886719 77.179688 180.53125 77.277344 181.285156 L 80.296875 203.992188 L 74.035156 187.835938 C 73.96875 187.65625 73.878906 187.488281 73.765625 187.335938 C 73.65625 187.179688 73.527344 187.039062 73.382812 186.914062 C 73.238281 186.789062 73.078125 186.6875 72.90625 186.601562 C 72.734375 186.515625 72.554688 186.453125 72.371094 186.414062 C 72.183594 186.375 71.996094 186.359375 71.804688 186.367188 C 71.613281 186.375 71.425781 186.40625 71.242188 186.460938 C 71.058594 186.515625 70.886719 186.589844 70.722656 186.6875 C 70.558594 186.789062 70.410156 186.902344 70.273438 187.039062 L 60.554688 196.792969 C 60.105469 197.246094 59.882812 197.789062 59.882812 198.425781 L 59.882812 202.886719 L 57.34375 197.789062 C 57.117188 197.332031 56.773438 196.988281 56.316406 196.757812 L 51.242188 194.210938 L 55.683594 194.210938 C 56.320312 194.210938 56.859375 193.984375 57.308594 193.535156 L 67.027344 183.78125 C 67.160156 183.644531 67.277344 183.496094 67.375 183.328125 C 67.472656 183.164062 67.550781 182.992188 67.601562 182.808594 C 67.65625 182.625 67.6875 182.4375 67.695312 182.246094 C 67.703125 182.050781 67.6875 181.863281 67.648438 181.675781 C 67.609375 181.488281 67.546875 181.308594 67.464844 181.136719 C 67.378906 180.964844 67.273438 180.804688 67.152344 180.660156 C 67.027344 180.511719 66.890625 180.386719 66.734375 180.273438 C 66.578125 180.164062 66.410156 180.074219 66.234375 180.003906 L 50.136719 173.71875 L 72.757812 176.746094 C 73.507812 176.847656 74.152344 176.628906 74.6875 176.089844 L 85.8125 164.921875 C 86.269531 164.460938 86.855469 164.234375 87.4375 164.234375 Z M 87.4375 164.234375 " fill-opacity="1" fill-rule="nonzero"/></g><g fill="#fffbfb" fill-opacity="1"><g transform="translate(139.06854, 202.124987)"><g><path d="M 3.859375 0 L 3.859375 -27.609375 L 21.765625 -27.609375 L 21.765625 -23.5 L 8.125 -23.5 L 8.125 -15.859375 L 20 -15.859375 L 20 -11.75 L 8.125 -11.75 L 8.125 0 Z M 3.859375 0 "/></g></g></g><g fill="#fffbfb" fill-opacity="1"><g transform="translate(162.807601, 202.124987)"><g><path d="M 2.84375 0 L 2.84375 -29.1875 L 6.90625 -29.1875 L 6.90625 0 Z M 2.84375 0 "/></g></g></g><g fill="#fffbfb" fill-opacity="1"><g transform="translate(172.66601, 202.124987)"><g><path d="M 5.5625 -25.203125 C 4.632812 -25.203125 3.945312 -25.4375 3.5 -25.90625 C 3.050781 -26.375 2.828125 -26.992188 2.828125 -27.765625 C 2.828125 -28.421875 3.050781 -29.007812 3.5 -29.53125 C 3.945312 -30.0625 4.632812 -30.328125 5.5625 -30.328125 C 6.476562 -30.328125 7.160156 -30.085938 7.609375 -29.609375 C 8.054688 -29.140625 8.28125 -28.523438 8.28125 -27.765625 C 8.28125 -27.097656 8.054688 -26.503906 7.609375 -25.984375 C 7.160156 -25.460938 6.476562 -25.203125 5.5625 -25.203125 Z M 7.65625 0 L 3.59375 0 L 3.59375 -20.703125 L 7.65625 -20.703125 Z M 7.65625 0 "/></g></g></g><g fill="#fffbfb" fill-opacity="1"><g transform="translate(183.628568, 202.124987)"><g><path d="M 5.671875 3.4375 C 6.460938 4.039062 7.445312 4.523438 8.625 4.890625 C 9.8125 5.253906 10.972656 5.4375 12.109375 5.4375 C 14.234375 5.4375 15.859375 4.914062 16.984375 3.875 C 18.117188 2.84375 18.6875 1.289062 18.6875 -0.78125 L 18.6875 -3.3125 C 18.320312 -2.675781 17.796875 -2.078125 17.109375 -1.515625 C 16.429688 -0.953125 15.628906 -0.492188 14.703125 -0.140625 C 13.785156 0.210938 12.828125 0.390625 11.828125 0.390625 C 9.910156 0.390625 8.175781 -0.0664062 6.625 -0.984375 C 5.070312 -1.898438 3.84375 -3.171875 2.9375 -4.796875 C 2.03125 -6.429688 1.578125 -8.289062 1.578125 -10.375 C 1.578125 -12.476562 2.023438 -14.335938 2.921875 -15.953125 C 3.816406 -17.566406 5.03125 -18.832031 6.5625 -19.75 C 8.101562 -20.675781 9.820312 -21.140625 11.71875 -21.140625 C 13.289062 -21.140625 14.6875 -20.789062 15.90625 -20.09375 C 17.132812 -19.394531 18.0625 -18.640625 18.6875 -17.828125 L 18.6875 -20.703125 L 22.75 -20.703125 L 22.75 -1.265625 C 22.75 1.203125 22.253906 3.191406 21.265625 4.703125 C 20.285156 6.222656 18.988281 7.332031 17.375 8.03125 C 15.757812 8.726562 14.003906 9.078125 12.109375 9.078125 C 10.640625 9.078125 9.171875 8.84375 7.703125 8.375 C 6.242188 7.914062 5.070312 7.320312 4.1875 6.59375 Z M 12.265625 -17.4375 C 11.003906 -17.4375 9.878906 -17.125 8.890625 -16.5 C 7.910156 -15.882812 7.132812 -15.046875 6.5625 -13.984375 C 6 -12.921875 5.71875 -11.71875 5.71875 -10.375 C 5.71875 -9.03125 6 -7.832031 6.5625 -6.78125 C 7.132812 -5.726562 7.910156 -4.894531 8.890625 -4.28125 C 9.878906 -3.664062 11.003906 -3.359375 12.265625 -3.359375 C 13.578125 -3.359375 14.722656 -3.660156 15.703125 -4.265625 C 16.691406 -4.867188 17.460938 -5.703125 18.015625 -6.765625 C 18.566406 -7.828125 18.84375 -9.03125 18.84375 -10.375 C 18.84375 -11.738281 18.566406 -12.945312 18.015625 -14 C 17.460938 -15.050781 16.691406 -15.882812 15.703125 -16.5 C 14.722656 -17.125 13.578125 -17.4375 12.265625 -17.4375 Z M 12.265625 -17.4375 "/></g></g></g><g fill="#fffbfb" fill-opacity="1"><g transform="translate(209.221012, 202.124987)"><g><path d="M 13.6875 -21.140625 C 15.550781 -21.140625 16.992188 -20.753906 18.015625 -19.984375 C 19.046875 -19.222656 19.765625 -18.195312 20.171875 -16.90625 C 20.578125 -15.625 20.78125 -14.195312 20.78125 -12.625 L 20.78125 0 L 16.71875 0 L 16.71875 -12.34375 C 16.71875 -13.34375 16.585938 -14.234375 16.328125 -15.015625 C 16.066406 -15.804688 15.617188 -16.425781 14.984375 -16.875 C 14.359375 -17.320312 13.476562 -17.507812 12.34375 -17.4375 C 11.289062 -17.4375 10.359375 -17.210938 9.546875 -16.765625 C 8.734375 -16.316406 8.085938 -15.722656 7.609375 -14.984375 C 7.140625 -14.242188 6.90625 -13.429688 6.90625 -12.546875 L 6.90625 0 L 2.84375 0 L 2.84375 -29.1875 L 6.90625 -29.1875 L 6.90625 -17.4375 C 7.53125 -18.40625 8.445312 -19.265625 9.65625 -20.015625 C 10.863281 -20.765625 12.207031 -21.140625 13.6875 -21.140625 Z M 13.6875 -21.140625 "/></g></g></g><g fill="#fffbfb" fill-opacity="1"><g transform="translate(232.684042, 202.124987)"><g><path d="M 9.46875 0 L 5.40625 0 L 5.40625 -16.765625 L 1.109375 -16.765625 L 1.109375 -20.703125 L 5.40625 -20.703125 L 5.40625 -25.984375 L 9.46875 -25.984375 L 9.46875 -20.703125 L 14.28125 -20.703125 L 14.28125 -16.765625 L 9.46875 -16.765625 Z M 9.46875 0 "/></g></g></g><g fill="#fffbfb" fill-opacity="1"><g transform="translate(247.826565, 202.124987)"><g><path d="M 14.671875 -27.609375 C 16.796875 -27.609375 18.664062 -27.242188 20.28125 -26.515625 C 21.90625 -25.796875 23.253906 -24.796875 24.328125 -23.515625 C 25.410156 -22.242188 26.226562 -20.773438 26.78125 -19.109375 C 27.332031 -17.441406 27.609375 -15.671875 27.609375 -13.796875 C 27.609375 -11.273438 27.117188 -8.96875 26.140625 -6.875 C 25.171875 -4.789062 23.726562 -3.125 21.8125 -1.875 C 19.894531 -0.625 17.515625 0 14.671875 0 L 3.859375 0 L 3.859375 -27.609375 Z M 14.46875 -4.09375 C 16.550781 -4.09375 18.234375 -4.535156 19.515625 -5.421875 C 20.804688 -6.304688 21.753906 -7.484375 22.359375 -8.953125 C 22.960938 -10.421875 23.265625 -12.035156 23.265625 -13.796875 C 23.265625 -15.535156 22.960938 -17.140625 22.359375 -18.609375 C 21.753906 -20.085938 20.804688 -21.269531 19.515625 -22.15625 C 18.234375 -23.050781 16.550781 -23.5 14.46875 -23.5 L 8.125 -23.5 L 8.125 -4.09375 Z M 14.46875 -4.09375 "/></g></g></g><g fill="#fffbfb" fill-opacity="1"><g transform="translate(277.322943, 202.124987)"><g><path d="M 20.625 -2.71875 L 20.59375 -2.71875 C 19.75 -1.90625 18.585938 -1.179688 17.109375 -0.546875 C 15.640625 0.078125 14.101562 0.390625 12.5 0.390625 C 10.34375 0.390625 8.441406 -0.0625 6.796875 -0.96875 C 5.160156 -1.875 3.878906 -3.117188 2.953125 -4.703125 C 2.035156 -6.296875 1.578125 -8.109375 1.578125 -10.140625 C 1.578125 -12.453125 2.0625 -14.425781 3.03125 -16.0625 C 4.007812 -17.707031 5.300781 -18.96875 6.90625 -19.84375 C 8.507812 -20.726562 10.253906 -21.171875 12.140625 -21.171875 C 13.878906 -21.171875 15.457031 -20.742188 16.875 -19.890625 C 18.300781 -19.035156 19.429688 -17.859375 20.265625 -16.359375 C 21.109375 -14.867188 21.53125 -13.125 21.53125 -11.125 L 21.5 -9.390625 L 5.640625 -9.390625 C 5.878906 -7.523438 6.648438 -6.046875 7.953125 -4.953125 C 9.253906 -3.859375 10.898438 -3.3125 12.890625 -3.3125 C 14.335938 -3.3125 15.507812 -3.582031 16.40625 -4.125 C 17.300781 -4.664062 18.035156 -5.179688 18.609375 -5.671875 Z M 12.140625 -17.4375 C 10.585938 -17.4375 9.234375 -17.070312 8.078125 -16.34375 C 6.921875 -15.625 6.160156 -14.382812 5.796875 -12.625 L 17.390625 -12.625 L 17.390625 -12.890625 C 17.316406 -13.785156 17.019531 -14.570312 16.5 -15.25 C 15.988281 -15.9375 15.351562 -16.472656 14.59375 -16.859375 C 13.832031 -17.242188 13.015625 -17.4375 12.140625 -17.4375 Z M 12.140625 -17.4375 "/></g></g></g><g fill="#fffbfb" fill-opacity="1"><g transform="translate(300.431069, 202.124987)"><g><path d="M 2.84375 0 L 2.84375 -29.1875 L 6.90625 -29.1875 L 6.90625 0 Z M 2.84375 0 "/></g></g></g><g fill="#fffbfb" fill-opacity="1"><g transform="translate(310.289478, 202.124987)"><g><path d="M 22.125 -20.703125 L 22.125 0 L 18.015625 0 L 18.015625 -3.1875 C 17.390625 -2.320312 16.457031 -1.507812 15.21875 -0.75 C 13.988281 0.0078125 12.554688 0.390625 10.921875 0.390625 C 9.191406 0.390625 7.609375 -0.0664062 6.171875 -0.984375 C 4.734375 -1.898438 3.59375 -3.171875 2.75 -4.796875 C 1.914062 -6.429688 1.5 -8.300781 1.5 -10.40625 C 1.5 -12.507812 1.929688 -14.367188 2.796875 -15.984375 C 3.660156 -17.609375 4.851562 -18.875 6.375 -19.78125 C 7.90625 -20.6875 9.644531 -21.140625 11.59375 -21.140625 C 13.039062 -21.140625 14.304688 -20.820312 15.390625 -20.1875 C 16.484375 -19.5625 17.359375 -18.828125 18.015625 -17.984375 L 18.015625 -20.703125 Z M 11.875 -3.359375 C 13.132812 -3.359375 14.238281 -3.664062 15.1875 -4.28125 C 16.132812 -4.894531 16.867188 -5.734375 17.390625 -6.796875 C 17.921875 -7.867188 18.1875 -9.070312 18.1875 -10.40625 C 18.1875 -11.726562 17.921875 -12.910156 17.390625 -13.953125 C 16.867188 -15.003906 16.132812 -15.835938 15.1875 -16.453125 C 14.238281 -17.078125 13.132812 -17.390625 11.875 -17.390625 C 10.664062 -17.390625 9.585938 -17.085938 8.640625 -16.484375 C 7.691406 -15.878906 6.953125 -15.050781 6.421875 -14 C 5.898438 -12.945312 5.640625 -11.75 5.640625 -10.40625 C 5.640625 -9.070312 5.898438 -7.867188 6.421875 -6.796875 C 6.953125 -5.734375 7.691406 -4.894531 8.640625 -4.28125 C 9.585938 -3.664062 10.664062 -3.359375 11.875 -3.359375 Z M 11.875 -3.359375 "/></g></g></g><g fill="#fffbfb" fill-opacity="1"><g transform="translate(335.250975, 202.124987)"><g><path d="M 6.3125 9.078125 L 9.703125 1.296875 L 9.8125 1.03125 L 0.203125 -20.703125 L 4.9375 -20.703125 L 11.390625 -5.484375 C 11.472656 -5.328125 11.550781 -5.128906 11.625 -4.890625 C 11.707031 -4.648438 11.800781 -4.382812 11.90625 -4.09375 C 12.007812 -4.382812 12.109375 -4.664062 12.203125 -4.9375 C 12.296875 -5.21875 12.394531 -5.492188 12.5 -5.765625 L 17.90625 -20.703125 L 22.71875 -20.703125 L 14.203125 0 L 10.6875 9.078125 Z M 6.3125 9.078125 "/></g></g></g></svg>