<svg xmlns="http://www.w3.org/2000/svg" xmlns:xlink="http://www.w3.org/1999/xlink" width="282" zoomAndPan="magnify" viewBox="0 0 211.5 35.25" height="47" preserveAspectRatio="xMidYMid meet" version="1.0"><defs><g/><clipPath id="9d07b7d4e7"><path d="M 6.863281 4.335938 L 36.308594 4.335938 L 36.308594 30.097656 L 6.863281 30.097656 Z M 6.863281 4.335938 " clip-rule="nonzero"/></clipPath></defs><g clip-path="url(#9d07b7d4e7)"><path fill="#ffffff" d="M 15.214844 4.335938 C 10.664062 4.335938 6.96875 8.0625 6.96875 12.636719 C 6.96875 22.074219 17.566406 26.730469 21.191406 29.773438 L 21.585938 30.101562 L 21.976562 29.773438 C 25.601562 26.730469 36.203125 22.074219 36.203125 12.636719 C 36.203125 8.0625 32.503906 4.335938 27.953125 4.335938 C 25.367188 4.335938 23.097656 5.574219 21.585938 7.453125 C 20.074219 5.574219 17.804688 4.335938 15.214844 4.335938 Z M 15.214844 5.550781 C 17.667969 5.550781 19.816406 6.8125 21.078125 8.722656 L 21.585938 9.496094 L 22.09375 8.722656 C 23.351562 6.8125 25.503906 5.550781 27.953125 5.550781 C 31.839844 5.550781 34.984375 8.714844 34.984375 12.636719 C 34.984375 20.933594 25.773438 25.226562 21.585938 28.558594 C 17.394531 25.226562 8.183594 20.933594 8.183594 12.636719 C 8.183594 8.714844 11.328125 5.550781 15.214844 5.550781 Z M 26.457031 9.820312 C 25.988281 9.820312 25.519531 9.996094 25.164062 10.351562 L 22.425781 13.089844 L 16.183594 12.257812 C 15.933594 12.222656 15.738281 12.3125 15.597656 12.523438 L 14.988281 13.4375 C 14.9375 13.515625 14.902344 13.597656 14.890625 13.6875 C 14.878906 13.78125 14.886719 13.871094 14.914062 13.957031 C 14.941406 14.046875 14.984375 14.125 15.050781 14.191406 C 15.113281 14.257812 15.1875 14.308594 15.273438 14.34375 L 19.523438 15.996094 L 17.78125 17.734375 L 16.101562 17.734375 C 15.933594 17.734375 15.792969 17.792969 15.671875 17.914062 L 15.0625 18.519531 C 14.992188 18.589844 14.945312 18.671875 14.914062 18.765625 C 14.882812 18.859375 14.878906 18.953125 14.894531 19.050781 C 14.910156 19.144531 14.945312 19.234375 15.003906 19.3125 C 15.0625 19.390625 15.132812 19.453125 15.222656 19.496094 L 17.476562 20.625 L 18.605469 22.878906 C 18.648438 22.964844 18.707031 23.039062 18.789062 23.097656 C 18.867188 23.15625 18.953125 23.191406 19.050781 23.207031 C 19.148438 23.222656 19.242188 23.214844 19.335938 23.1875 C 19.429688 23.15625 19.511719 23.105469 19.578125 23.039062 L 20.1875 22.429688 C 20.308594 22.308594 20.367188 22.164062 20.367188 21.996094 L 20.367188 20.316406 L 22.105469 18.578125 L 23.757812 22.828125 C 23.792969 22.914062 23.84375 22.988281 23.910156 23.050781 C 23.976562 23.113281 24.054688 23.160156 24.140625 23.1875 C 24.230469 23.214844 24.320312 23.222656 24.410156 23.210938 C 24.503906 23.195312 24.585938 23.164062 24.664062 23.113281 L 25.578125 22.503906 C 25.789062 22.363281 25.875 22.167969 25.84375 21.917969 L 25.011719 15.671875 L 27.75 12.933594 C 28.457031 12.226562 28.457031 11.058594 27.75 10.351562 C 27.394531 9.996094 26.925781 9.820312 26.457031 9.820312 Z M 26.457031 11.03125 C 26.613281 11.03125 26.765625 11.089844 26.886719 11.210938 C 27.132812 11.457031 27.132812 11.832031 26.886719 12.074219 L 23.9375 15.023438 C 23.792969 15.167969 23.738281 15.335938 23.761719 15.535156 L 24.5625 21.535156 L 22.902344 17.265625 C 22.867188 17.171875 22.808594 17.089844 22.730469 17.023438 C 22.652344 16.957031 22.5625 16.914062 22.460938 16.890625 C 22.359375 16.871094 22.261719 16.875 22.160156 16.902344 C 22.0625 16.933594 21.976562 16.984375 21.90625 17.058594 L 19.328125 19.636719 C 19.207031 19.753906 19.148438 19.898438 19.148438 20.066406 L 19.148438 21.246094 L 18.476562 19.898438 C 18.414062 19.777344 18.324219 19.6875 18.203125 19.625 L 16.855469 18.953125 L 18.035156 18.953125 C 18.203125 18.953125 18.347656 18.890625 18.464844 18.773438 L 21.042969 16.195312 C 21.117188 16.121094 21.167969 16.039062 21.195312 15.9375 C 21.226562 15.839844 21.230469 15.742188 21.207031 15.640625 C 21.1875 15.539062 21.144531 15.449219 21.078125 15.371094 C 21.011719 15.292969 20.929688 15.234375 20.832031 15.199219 L 16.5625 13.535156 L 22.5625 14.335938 C 22.761719 14.363281 22.933594 14.304688 23.074219 14.164062 L 26.027344 11.210938 C 26.148438 11.089844 26.304688 11.03125 26.457031 11.03125 Z M 26.457031 11.03125 " fill-opacity="1" fill-rule="nonzero"/></g><g fill="#ffffff" fill-opacity="1"><g transform="translate(44.282022, 24.580751)"><g><path d="M 1.796875 0 L 1.796875 -12.890625 L 10.15625 -12.890625 L 10.15625 -10.96875 L 3.796875 -10.96875 L 3.796875 -7.40625 L 9.328125 -7.40625 L 9.328125 -5.484375 L 3.796875 -5.484375 L 3.796875 0 Z M 1.796875 0 "/></g></g></g><g fill="#ffffff" fill-opacity="1"><g transform="translate(55.360541, 24.580751)"><g><path d="M 1.328125 0 L 1.328125 -13.625 L 3.21875 -13.625 L 3.21875 0 Z M 1.328125 0 "/></g></g></g><g fill="#ffffff" fill-opacity="1"><g transform="translate(59.961257, 24.580751)"><g><path d="M 2.59375 -11.75 C 2.164062 -11.75 1.847656 -11.859375 1.640625 -12.078125 C 1.429688 -12.304688 1.328125 -12.597656 1.328125 -12.953125 C 1.328125 -13.253906 1.429688 -13.523438 1.640625 -13.765625 C 1.847656 -14.015625 2.164062 -14.140625 2.59375 -14.140625 C 3.019531 -14.140625 3.335938 -14.03125 3.546875 -13.8125 C 3.753906 -13.59375 3.859375 -13.304688 3.859375 -12.953125 C 3.859375 -12.640625 3.753906 -12.359375 3.546875 -12.109375 C 3.335938 -11.867188 3.019531 -11.75 2.59375 -11.75 Z M 3.5625 0 L 1.671875 0 L 1.671875 -9.65625 L 3.5625 -9.65625 Z M 3.5625 0 "/></g></g></g><g fill="#ffffff" fill-opacity="1"><g transform="translate(65.077249, 24.580751)"><g><path d="M 2.65625 1.59375 C 3.019531 1.882812 3.476562 2.113281 4.03125 2.28125 C 4.582031 2.457031 5.125 2.546875 5.65625 2.546875 C 6.644531 2.546875 7.398438 2.300781 7.921875 1.8125 C 8.453125 1.332031 8.71875 0.601562 8.71875 -0.375 L 8.71875 -1.546875 C 8.550781 -1.253906 8.304688 -0.972656 7.984375 -0.703125 C 7.671875 -0.441406 7.296875 -0.226562 6.859375 -0.0625 C 6.429688 0.101562 5.984375 0.1875 5.515625 0.1875 C 4.617188 0.1875 3.804688 -0.0234375 3.078125 -0.453125 C 2.359375 -0.890625 1.785156 -1.488281 1.359375 -2.25 C 0.941406 -3.007812 0.734375 -3.875 0.734375 -4.84375 C 0.734375 -5.820312 0.941406 -6.6875 1.359375 -7.4375 C 1.773438 -8.195312 2.34375 -8.789062 3.0625 -9.21875 C 3.78125 -9.644531 4.582031 -9.859375 5.46875 -9.859375 C 6.207031 -9.859375 6.859375 -9.695312 7.421875 -9.375 C 7.992188 -9.050781 8.425781 -8.695312 8.71875 -8.3125 L 8.71875 -9.65625 L 10.625 -9.65625 L 10.625 -0.59375 C 10.625 0.5625 10.390625 1.492188 9.921875 2.203125 C 9.460938 2.910156 8.851562 3.425781 8.09375 3.75 C 7.34375 4.070312 6.53125 4.234375 5.65625 4.234375 C 4.96875 4.234375 4.28125 4.125 3.59375 3.90625 C 2.914062 3.695312 2.367188 3.421875 1.953125 3.078125 Z M 5.71875 -8.140625 C 5.132812 -8.140625 4.609375 -7.992188 4.140625 -7.703125 C 3.679688 -7.410156 3.320312 -7.015625 3.0625 -6.515625 C 2.800781 -6.023438 2.671875 -5.46875 2.671875 -4.84375 C 2.671875 -4.21875 2.800781 -3.65625 3.0625 -3.15625 C 3.320312 -2.664062 3.679688 -2.273438 4.140625 -1.984375 C 4.609375 -1.703125 5.132812 -1.5625 5.71875 -1.5625 C 6.332031 -1.5625 6.867188 -1.703125 7.328125 -1.984375 C 7.796875 -2.265625 8.15625 -2.65625 8.40625 -3.15625 C 8.664062 -3.65625 8.796875 -4.21875 8.796875 -4.84375 C 8.796875 -5.476562 8.664062 -6.039062 8.40625 -6.53125 C 8.15625 -7.019531 7.796875 -7.410156 7.328125 -7.703125 C 6.867188 -7.992188 6.332031 -8.140625 5.71875 -8.140625 Z M 5.71875 -8.140625 "/></g></g></g><g fill="#ffffff" fill-opacity="1"><g transform="translate(77.020701, 24.580751)"><g><path d="M 6.390625 -9.859375 C 7.253906 -9.859375 7.925781 -9.679688 8.40625 -9.328125 C 8.882812 -8.972656 9.21875 -8.492188 9.40625 -7.890625 C 9.601562 -7.296875 9.703125 -6.628906 9.703125 -5.890625 L 9.703125 0 L 7.796875 0 L 7.796875 -5.765625 C 7.796875 -6.222656 7.734375 -6.632812 7.609375 -7 C 7.492188 -7.375 7.285156 -7.664062 6.984375 -7.875 C 6.691406 -8.082031 6.285156 -8.171875 5.765625 -8.140625 C 5.273438 -8.140625 4.835938 -8.035156 4.453125 -7.828125 C 4.078125 -7.617188 3.773438 -7.34375 3.546875 -7 C 3.328125 -6.65625 3.21875 -6.273438 3.21875 -5.859375 L 3.21875 0 L 1.328125 0 L 1.328125 -13.625 L 3.21875 -13.625 L 3.21875 -8.140625 C 3.507812 -8.585938 3.9375 -8.984375 4.5 -9.328125 C 5.070312 -9.679688 5.703125 -9.859375 6.390625 -9.859375 Z M 6.390625 -9.859375 "/></g></g></g><g fill="#ffffff" fill-opacity="1"><g transform="translate(87.970397, 24.580751)"><g><path d="M 4.421875 0 L 2.515625 0 L 2.515625 -7.828125 L 0.515625 -7.828125 L 0.515625 -9.65625 L 2.515625 -9.65625 L 2.515625 -12.125 L 4.421875 -12.125 L 4.421875 -9.65625 L 6.65625 -9.65625 L 6.65625 -7.828125 L 4.421875 -7.828125 Z M 4.421875 0 "/></g></g></g><g fill="#ffffff" fill-opacity="1"><g transform="translate(95.03709, 24.580751)"><g><path d="M 6.84375 -12.890625 C 7.84375 -12.890625 8.71875 -12.71875 9.46875 -12.375 C 10.226562 -12.039062 10.859375 -11.578125 11.359375 -10.984375 C 11.859375 -10.390625 12.238281 -9.703125 12.5 -8.921875 C 12.757812 -8.140625 12.890625 -7.3125 12.890625 -6.4375 C 12.890625 -5.257812 12.660156 -4.179688 12.203125 -3.203125 C 11.742188 -2.234375 11.066406 -1.457031 10.171875 -0.875 C 9.273438 -0.289062 8.164062 0 6.84375 0 L 1.796875 0 L 1.796875 -12.890625 Z M 6.75 -1.921875 C 7.71875 -1.921875 8.503906 -2.125 9.109375 -2.53125 C 9.710938 -2.9375 10.15625 -3.484375 10.4375 -4.171875 C 10.71875 -4.859375 10.859375 -5.613281 10.859375 -6.4375 C 10.859375 -7.25 10.71875 -8 10.4375 -8.6875 C 10.15625 -9.375 9.710938 -9.925781 9.109375 -10.34375 C 8.503906 -10.757812 7.71875 -10.96875 6.75 -10.96875 L 3.796875 -10.96875 L 3.796875 -1.921875 Z M 6.75 -1.921875 "/></g></g></g><g fill="#ffffff" fill-opacity="1"><g transform="translate(108.802421, 24.580751)"><g><path d="M 9.625 -1.265625 L 9.609375 -1.265625 C 9.210938 -0.890625 8.671875 -0.550781 7.984375 -0.25 C 7.296875 0.0390625 6.578125 0.1875 5.828125 0.1875 C 4.828125 0.1875 3.941406 -0.0234375 3.171875 -0.453125 C 2.410156 -0.878906 1.8125 -1.460938 1.375 -2.203125 C 0.945312 -2.941406 0.734375 -3.785156 0.734375 -4.734375 C 0.734375 -5.804688 0.957031 -6.726562 1.40625 -7.5 C 1.863281 -8.269531 2.46875 -8.859375 3.21875 -9.265625 C 3.96875 -9.679688 4.785156 -9.890625 5.671875 -9.890625 C 6.484375 -9.890625 7.21875 -9.6875 7.875 -9.28125 C 8.539062 -8.882812 9.066406 -8.335938 9.453125 -7.640625 C 9.847656 -6.941406 10.046875 -6.125 10.046875 -5.1875 L 10.03125 -4.375 L 2.625 -4.375 C 2.738281 -3.507812 3.097656 -2.820312 3.703125 -2.3125 C 4.316406 -1.800781 5.085938 -1.546875 6.015625 -1.546875 C 6.691406 -1.546875 7.238281 -1.671875 7.65625 -1.921875 C 8.070312 -2.171875 8.414062 -2.414062 8.6875 -2.65625 Z M 5.671875 -8.140625 C 4.941406 -8.140625 4.304688 -7.96875 3.765625 -7.625 C 3.234375 -7.289062 2.878906 -6.710938 2.703125 -5.890625 L 8.109375 -5.890625 L 8.109375 -6.015625 C 8.078125 -6.429688 7.941406 -6.800781 7.703125 -7.125 C 7.460938 -7.445312 7.164062 -7.695312 6.8125 -7.875 C 6.457031 -8.050781 6.078125 -8.140625 5.671875 -8.140625 Z M 5.671875 -8.140625 "/></g></g></g><g fill="#ffffff" fill-opacity="1"><g transform="translate(119.586488, 24.580751)"><g><path d="M 1.328125 0 L 1.328125 -13.625 L 3.21875 -13.625 L 3.21875 0 Z M 1.328125 0 "/></g></g></g><g fill="#ffffff" fill-opacity="1"><g transform="translate(124.187205, 24.580751)"><g><path d="M 10.328125 -9.65625 L 10.328125 0 L 8.40625 0 L 8.40625 -1.484375 C 8.113281 -1.085938 7.675781 -0.707031 7.09375 -0.34375 C 6.519531 0.0078125 5.851562 0.1875 5.09375 0.1875 C 4.289062 0.1875 3.550781 -0.0234375 2.875 -0.453125 C 2.207031 -0.890625 1.675781 -1.488281 1.28125 -2.25 C 0.894531 -3.007812 0.703125 -3.878906 0.703125 -4.859375 C 0.703125 -5.835938 0.90625 -6.703125 1.3125 -7.453125 C 1.71875 -8.210938 2.273438 -8.800781 2.984375 -9.21875 C 3.691406 -9.644531 4.5 -9.859375 5.40625 -9.859375 C 6.082031 -9.859375 6.675781 -9.710938 7.1875 -9.421875 C 7.695312 -9.128906 8.101562 -8.785156 8.40625 -8.390625 L 8.40625 -9.65625 Z M 5.546875 -1.5625 C 6.128906 -1.5625 6.640625 -1.703125 7.078125 -1.984375 C 7.523438 -2.273438 7.867188 -2.671875 8.109375 -3.171875 C 8.359375 -3.671875 8.484375 -4.234375 8.484375 -4.859375 C 8.484375 -5.472656 8.359375 -6.023438 8.109375 -6.515625 C 7.867188 -7.003906 7.523438 -7.390625 7.078125 -7.671875 C 6.640625 -7.960938 6.128906 -8.109375 5.546875 -8.109375 C 4.972656 -8.109375 4.46875 -7.96875 4.03125 -7.6875 C 3.59375 -7.40625 3.25 -7.019531 3 -6.53125 C 2.75 -6.039062 2.625 -5.484375 2.625 -4.859375 C 2.625 -4.234375 2.75 -3.671875 3 -3.171875 C 3.25 -2.671875 3.59375 -2.273438 4.03125 -1.984375 C 4.46875 -1.703125 4.972656 -1.5625 5.546875 -1.5625 Z M 5.546875 -1.5625 "/></g></g></g><g fill="#ffffff" fill-opacity="1"><g transform="translate(135.836205, 24.580751)"><g><path d="M 2.9375 4.234375 L 4.53125 0.609375 L 4.578125 0.484375 L 0.09375 -9.65625 L 2.296875 -9.65625 L 5.3125 -2.5625 C 5.351562 -2.488281 5.390625 -2.394531 5.421875 -2.28125 C 5.460938 -2.164062 5.507812 -2.046875 5.5625 -1.921875 C 5.601562 -2.046875 5.644531 -2.171875 5.6875 -2.296875 C 5.738281 -2.429688 5.785156 -2.5625 5.828125 -2.6875 L 8.359375 -9.65625 L 10.609375 -9.65625 L 6.625 0 L 4.984375 4.234375 Z M 2.9375 4.234375 "/></g></g></g></svg>