<svg xmlns="http://www.w3.org/2000/svg" xmlns:xlink="http://www.w3.org/1999/xlink" width="282" zoomAndPan="magnify" viewBox="0 0 211.5 35.25" height="47" preserveAspectRatio="xMidYMid meet" version="1.0"><defs><g/><clipPath id="f866b6beb1"><path d="M 19 0.59375 L 57.1875 0.59375 L 57.1875 33.71875 L 19 33.71875 Z M 19 0.59375 " clip-rule="nonzero"/></clipPath></defs><g clip-path="url(#f866b6beb1)"><path fill="#ffffff" d="M 29.769531 0.59375 C 23.855469 0.59375 19.046875 5.386719 19.046875 11.269531 C 19.046875 23.402344 32.824219 29.390625 37.539062 33.300781 L 38.046875 33.722656 L 38.558594 33.300781 C 43.273438 29.390625 57.050781 23.402344 57.050781 11.269531 C 57.050781 5.386719 52.242188 0.59375 46.328125 0.59375 C 42.964844 0.59375 40.015625 2.191406 38.046875 4.605469 C 36.082031 2.191406 33.132812 0.59375 29.769531 0.59375 Z M 29.769531 2.160156 C 32.957031 2.160156 35.75 3.78125 37.386719 6.238281 L 38.046875 7.230469 L 38.707031 6.238281 C 40.347656 3.78125 43.140625 2.160156 46.328125 2.160156 C 51.382812 2.160156 55.46875 6.230469 55.46875 11.269531 C 55.46875 21.941406 43.492188 27.457031 38.046875 31.742188 C 32.605469 27.457031 20.628906 21.941406 20.628906 11.269531 C 20.628906 6.230469 24.714844 2.160156 29.769531 2.160156 Z M 44.382812 7.648438 C 43.773438 7.648438 43.164062 7.875 42.703125 8.332031 L 39.144531 11.851562 L 31.027344 10.78125 C 30.699219 10.738281 30.445312 10.851562 30.265625 11.125 L 29.472656 12.300781 C 29.40625 12.398438 29.363281 12.507812 29.347656 12.625 C 29.332031 12.742188 29.339844 12.855469 29.375 12.96875 C 29.410156 13.082031 29.472656 13.183594 29.554688 13.269531 C 29.636719 13.355469 29.730469 13.421875 29.84375 13.464844 L 35.367188 15.585938 L 33.105469 17.824219 L 30.921875 17.824219 C 30.703125 17.824219 30.515625 17.898438 30.363281 18.054688 L 29.570312 18.835938 C 29.480469 18.925781 29.417969 19.03125 29.378906 19.148438 C 29.339844 19.269531 29.328125 19.390625 29.347656 19.515625 C 29.371094 19.640625 29.417969 19.753906 29.492188 19.855469 C 29.570312 19.957031 29.664062 20.035156 29.777344 20.089844 L 32.707031 21.539062 L 34.171875 24.4375 C 34.230469 24.550781 34.308594 24.644531 34.414062 24.71875 C 34.515625 24.792969 34.628906 24.839844 34.753906 24.863281 C 34.878906 24.882812 35.003906 24.871094 35.125 24.832031 C 35.246094 24.796875 35.351562 24.730469 35.441406 24.640625 L 36.234375 23.859375 C 36.386719 23.707031 36.464844 23.523438 36.464844 23.304688 L 36.464844 21.144531 L 38.726562 18.910156 L 40.875 24.371094 C 40.917969 24.484375 40.984375 24.578125 41.070312 24.660156 C 41.15625 24.742188 41.257812 24.800781 41.375 24.835938 C 41.488281 24.871094 41.605469 24.878906 41.722656 24.863281 C 41.839844 24.847656 41.949219 24.804688 42.050781 24.738281 L 43.238281 23.957031 C 43.511719 23.777344 43.628906 23.523438 43.585938 23.203125 L 42.503906 15.175781 L 46.0625 11.652344 C 46.984375 10.742188 46.984375 9.242188 46.0625 8.332031 C 45.601562 7.875 44.992188 7.648438 44.382812 7.648438 Z M 44.382812 9.203125 C 44.582031 9.203125 44.785156 9.28125 44.941406 9.4375 C 45.257812 9.75 45.257812 10.234375 44.941406 10.546875 L 41.105469 14.339844 C 40.921875 14.523438 40.84375 14.742188 40.878906 15 L 41.921875 22.714844 L 39.761719 17.222656 C 39.714844 17.101562 39.636719 16.996094 39.535156 16.910156 C 39.433594 16.824219 39.316406 16.769531 39.1875 16.742188 C 39.054688 16.714844 38.925781 16.71875 38.800781 16.757812 C 38.671875 16.792969 38.558594 16.859375 38.464844 16.953125 L 35.113281 20.269531 C 34.957031 20.421875 34.882812 20.605469 34.882812 20.820312 L 34.882812 22.335938 L 34.007812 20.605469 C 33.925781 20.449219 33.808594 20.332031 33.652344 20.253906 L 31.902344 19.390625 L 33.433594 19.390625 C 33.652344 19.390625 33.839844 19.3125 33.992188 19.160156 L 37.34375 15.847656 C 37.4375 15.753906 37.503906 15.640625 37.542969 15.515625 C 37.582031 15.390625 37.585938 15.261719 37.558594 15.132812 C 37.53125 15 37.472656 14.886719 37.386719 14.785156 C 37.300781 14.683594 37.195312 14.609375 37.070312 14.5625 L 31.519531 12.425781 L 39.320312 13.457031 C 39.582031 13.492188 39.800781 13.417969 39.984375 13.234375 L 43.824219 9.4375 C 43.980469 9.28125 44.183594 9.203125 44.382812 9.203125 Z M 44.382812 9.203125 " fill-opacity="1" fill-rule="nonzero"/></g><g fill="#ffffff" fill-opacity="1"><g transform="translate(67.727127, 25.447555)"><g><path d="M 2.21875 0 L 2.21875 -15.8125 L 12.46875 -15.8125 L 12.46875 -13.46875 L 4.65625 -13.46875 L 4.65625 -9.078125 L 11.453125 -9.078125 L 11.453125 -6.734375 L 4.65625 -6.734375 L 4.65625 0 Z M 2.21875 0 "/></g></g></g><g fill="#ffffff" fill-opacity="1"><g transform="translate(81.325986, 25.447555)"><g><path d="M 1.625 0 L 1.625 -16.71875 L 3.953125 -16.71875 L 3.953125 0 Z M 1.625 0 "/></g></g></g><g fill="#ffffff" fill-opacity="1"><g transform="translate(86.973349, 25.447555)"><g><path d="M 3.1875 -14.4375 C 2.664062 -14.4375 2.273438 -14.570312 2.015625 -14.84375 C 1.765625 -15.113281 1.640625 -15.46875 1.640625 -15.90625 C 1.640625 -16.28125 1.765625 -16.617188 2.015625 -16.921875 C 2.273438 -17.222656 2.664062 -17.375 3.1875 -17.375 C 3.71875 -17.375 4.109375 -17.238281 4.359375 -16.96875 C 4.617188 -16.695312 4.75 -16.34375 4.75 -15.90625 C 4.75 -15.53125 4.617188 -15.191406 4.359375 -14.890625 C 4.109375 -14.585938 3.71875 -14.4375 3.1875 -14.4375 Z M 4.375 0 L 2.046875 0 L 2.046875 -11.859375 L 4.375 -11.859375 Z M 4.375 0 "/></g></g></g><g fill="#ffffff" fill-opacity="1"><g transform="translate(93.253218, 25.447555)"><g><path d="M 3.25 1.96875 C 3.707031 2.3125 4.273438 2.585938 4.953125 2.796875 C 5.628906 3.015625 6.289062 3.125 6.9375 3.125 C 8.15625 3.125 9.085938 2.820312 9.734375 2.21875 C 10.378906 1.625 10.703125 0.734375 10.703125 -0.453125 L 10.703125 -1.890625 C 10.492188 -1.535156 10.191406 -1.195312 9.796875 -0.875 C 9.410156 -0.550781 8.953125 -0.285156 8.421875 -0.078125 C 7.898438 0.117188 7.351562 0.21875 6.78125 0.21875 C 5.675781 0.21875 4.679688 -0.0390625 3.796875 -0.5625 C 2.910156 -1.09375 2.207031 -1.820312 1.6875 -2.75 C 1.164062 -3.6875 0.90625 -4.75 0.90625 -5.9375 C 0.90625 -7.144531 1.160156 -8.210938 1.671875 -9.140625 C 2.179688 -10.066406 2.875 -10.789062 3.75 -11.3125 C 4.632812 -11.84375 5.617188 -12.109375 6.703125 -12.109375 C 7.609375 -12.109375 8.410156 -11.90625 9.109375 -11.5 C 9.816406 -11.101562 10.347656 -10.675781 10.703125 -10.21875 L 10.703125 -11.859375 L 13.03125 -11.859375 L 13.03125 -0.71875 C 13.03125 0.695312 12.75 1.835938 12.1875 2.703125 C 11.625 3.566406 10.878906 4.195312 9.953125 4.59375 C 9.023438 5 8.019531 5.203125 6.9375 5.203125 C 6.09375 5.203125 5.25 5.066406 4.40625 4.796875 C 3.570312 4.535156 2.898438 4.191406 2.390625 3.765625 Z M 7.03125 -9.984375 C 6.300781 -9.984375 5.65625 -9.804688 5.09375 -9.453125 C 4.53125 -9.097656 4.085938 -8.613281 3.765625 -8 C 3.441406 -7.394531 3.28125 -6.707031 3.28125 -5.9375 C 3.28125 -5.175781 3.441406 -4.492188 3.765625 -3.890625 C 4.085938 -3.285156 4.53125 -2.804688 5.09375 -2.453125 C 5.65625 -2.097656 6.300781 -1.921875 7.03125 -1.921875 C 7.78125 -1.921875 8.4375 -2.09375 9 -2.4375 C 9.5625 -2.78125 10 -3.257812 10.3125 -3.875 C 10.632812 -4.488281 10.796875 -5.175781 10.796875 -5.9375 C 10.796875 -6.71875 10.632812 -7.410156 10.3125 -8.015625 C 10 -8.617188 9.5625 -9.097656 9 -9.453125 C 8.4375 -9.804688 7.78125 -9.984375 7.03125 -9.984375 Z M 7.03125 -9.984375 "/></g></g></g><g fill="#ffffff" fill-opacity="1"><g transform="translate(107.913774, 25.447555)"><g><path d="M 7.84375 -12.109375 C 8.90625 -12.109375 9.726562 -11.890625 10.3125 -11.453125 C 10.90625 -11.015625 11.316406 -10.425781 11.546875 -9.6875 C 11.785156 -8.945312 11.90625 -8.128906 11.90625 -7.234375 L 11.90625 0 L 9.578125 0 L 9.578125 -7.078125 C 9.578125 -7.648438 9.5 -8.160156 9.34375 -8.609375 C 9.195312 -9.054688 8.941406 -9.40625 8.578125 -9.65625 C 8.222656 -9.914062 7.722656 -10.023438 7.078125 -9.984375 C 6.472656 -9.984375 5.9375 -9.851562 5.46875 -9.59375 C 5 -9.34375 4.628906 -9.003906 4.359375 -8.578125 C 4.085938 -8.160156 3.953125 -7.695312 3.953125 -7.1875 L 3.953125 0 L 1.625 0 L 1.625 -16.71875 L 3.953125 -16.71875 L 3.953125 -9.984375 C 4.316406 -10.546875 4.84375 -11.039062 5.53125 -11.46875 C 6.226562 -11.894531 7 -12.109375 7.84375 -12.109375 Z M 7.84375 -12.109375 "/></g></g></g><g fill="#ffffff" fill-opacity="1"><g transform="translate(121.354506, 25.447555)"><g><path d="M 5.421875 0 L 3.09375 0 L 3.09375 -9.609375 L 0.625 -9.609375 L 0.625 -11.859375 L 3.09375 -11.859375 L 3.09375 -14.890625 L 5.421875 -14.890625 L 5.421875 -11.859375 L 8.171875 -11.859375 L 8.171875 -9.609375 L 5.421875 -9.609375 Z M 5.421875 0 "/></g></g></g><g fill="#ffffff" fill-opacity="1"><g transform="translate(130.028859, 25.447555)"><g><path d="M 8.40625 -15.8125 C 9.625 -15.8125 10.695312 -15.601562 11.625 -15.1875 C 12.550781 -14.78125 13.320312 -14.207031 13.9375 -13.46875 C 14.550781 -12.738281 15.015625 -11.894531 15.328125 -10.9375 C 15.648438 -9.988281 15.8125 -8.976562 15.8125 -7.90625 C 15.8125 -6.457031 15.53125 -5.132812 14.96875 -3.9375 C 14.414062 -2.738281 13.585938 -1.78125 12.484375 -1.0625 C 11.390625 -0.351562 10.03125 0 8.40625 0 L 2.21875 0 L 2.21875 -15.8125 Z M 8.296875 -2.34375 C 9.484375 -2.34375 10.445312 -2.59375 11.1875 -3.09375 C 11.925781 -3.601562 12.46875 -4.28125 12.8125 -5.125 C 13.15625 -5.96875 13.328125 -6.894531 13.328125 -7.90625 C 13.328125 -8.90625 13.15625 -9.820312 12.8125 -10.65625 C 12.46875 -11.5 11.925781 -12.175781 11.1875 -12.6875 C 10.445312 -13.207031 9.484375 -13.46875 8.296875 -13.46875 L 4.65625 -13.46875 L 4.65625 -2.34375 Z M 8.296875 -2.34375 "/></g></g></g><g fill="#ffffff" fill-opacity="1"><g transform="translate(146.925773, 25.447555)"><g><path d="M 11.8125 -1.5625 L 11.796875 -1.5625 C 11.316406 -1.09375 10.65625 -0.675781 9.8125 -0.3125 C 8.96875 0.0390625 8.082031 0.21875 7.15625 0.21875 C 5.925781 0.21875 4.835938 -0.0351562 3.890625 -0.546875 C 2.953125 -1.066406 2.21875 -1.78125 1.6875 -2.6875 C 1.164062 -3.601562 0.90625 -4.644531 0.90625 -5.8125 C 0.90625 -7.132812 1.179688 -8.265625 1.734375 -9.203125 C 2.296875 -10.148438 3.035156 -10.875 3.953125 -11.375 C 4.867188 -11.882812 5.867188 -12.140625 6.953125 -12.140625 C 7.953125 -12.140625 8.859375 -11.894531 9.671875 -11.40625 C 10.484375 -10.914062 11.128906 -10.238281 11.609375 -9.375 C 12.097656 -8.519531 12.34375 -7.519531 12.34375 -6.375 L 12.3125 -5.375 L 3.234375 -5.375 C 3.367188 -4.300781 3.804688 -3.453125 4.546875 -2.828125 C 5.296875 -2.203125 6.242188 -1.890625 7.390625 -1.890625 C 8.210938 -1.890625 8.878906 -2.046875 9.390625 -2.359375 C 9.910156 -2.671875 10.335938 -2.96875 10.671875 -3.25 Z M 6.953125 -9.984375 C 6.066406 -9.984375 5.289062 -9.773438 4.625 -9.359375 C 3.96875 -8.953125 3.535156 -8.242188 3.328125 -7.234375 L 9.96875 -7.234375 L 9.96875 -7.390625 C 9.914062 -7.898438 9.742188 -8.347656 9.453125 -8.734375 C 9.160156 -9.128906 8.796875 -9.4375 8.359375 -9.65625 C 7.921875 -9.875 7.453125 -9.984375 6.953125 -9.984375 Z M 6.953125 -9.984375 "/></g></g></g><g fill="#ffffff" fill-opacity="1"><g transform="translate(160.163191, 25.447555)"><g><path d="M 1.625 0 L 1.625 -16.71875 L 3.953125 -16.71875 L 3.953125 0 Z M 1.625 0 "/></g></g></g><g fill="#ffffff" fill-opacity="1"><g transform="translate(165.810555, 25.447555)"><g><path d="M 12.671875 -11.859375 L 12.671875 0 L 10.328125 0 L 10.328125 -1.828125 C 9.960938 -1.328125 9.425781 -0.859375 8.71875 -0.421875 C 8.007812 0.00390625 7.191406 0.21875 6.265625 0.21875 C 5.265625 0.21875 4.351562 -0.0390625 3.53125 -0.5625 C 2.707031 -1.09375 2.054688 -1.820312 1.578125 -2.75 C 1.097656 -3.6875 0.859375 -4.757812 0.859375 -5.96875 C 0.859375 -7.164062 1.101562 -8.226562 1.59375 -9.15625 C 2.09375 -10.082031 2.78125 -10.804688 3.65625 -11.328125 C 4.53125 -11.847656 5.523438 -12.109375 6.640625 -12.109375 C 7.472656 -12.109375 8.203125 -11.925781 8.828125 -11.5625 C 9.453125 -11.207031 9.953125 -10.785156 10.328125 -10.296875 L 10.328125 -11.859375 Z M 6.796875 -1.921875 C 7.523438 -1.921875 8.160156 -2.097656 8.703125 -2.453125 C 9.242188 -2.804688 9.664062 -3.285156 9.96875 -3.890625 C 10.269531 -4.503906 10.421875 -5.195312 10.421875 -5.96875 C 10.421875 -6.71875 10.269531 -7.394531 9.96875 -8 C 9.664062 -8.601562 9.242188 -9.082031 8.703125 -9.4375 C 8.160156 -9.789062 7.523438 -9.96875 6.796875 -9.96875 C 6.109375 -9.96875 5.492188 -9.789062 4.953125 -9.4375 C 4.410156 -9.09375 3.988281 -8.617188 3.6875 -8.015625 C 3.382812 -7.410156 3.234375 -6.726562 3.234375 -5.96875 C 3.234375 -5.195312 3.382812 -4.503906 3.6875 -3.890625 C 3.988281 -3.285156 4.410156 -2.804688 4.953125 -2.453125 C 5.492188 -2.097656 6.109375 -1.921875 6.796875 -1.921875 Z M 6.796875 -1.921875 "/></g></g></g><g fill="#ffffff" fill-opacity="1"><g transform="translate(180.109683, 25.447555)"><g><path d="M 3.609375 5.203125 L 5.5625 0.75 L 5.625 0.59375 L 0.109375 -11.859375 L 2.828125 -11.859375 L 6.53125 -3.140625 C 6.570312 -3.046875 6.613281 -2.929688 6.65625 -2.796875 C 6.707031 -2.660156 6.765625 -2.507812 6.828125 -2.34375 C 6.878906 -2.507812 6.929688 -2.671875 6.984375 -2.828125 C 7.046875 -2.992188 7.101562 -3.148438 7.15625 -3.296875 L 10.25 -11.859375 L 13.015625 -11.859375 L 8.140625 0 L 6.125 5.203125 Z M 3.609375 5.203125 "/></g></g></g></svg>