<?xml version="1.0" encoding="utf-8"?>
<!-- Generator: Adobe Illustrator 25.0.1, SVG Export Plug-In . SVG Version: 6.00 Build 0)  -->
<svg version="1.1" id="Layer_1" xmlns="http://www.w3.org/2000/svg" xmlns:xlink="http://www.w3.org/1999/xlink" x="0px" y="0px"
	 viewBox="0 0 282.3 46.9" style="enable-background:new 0 0 282.3 46.9;" xml:space="preserve">
<style type="text/css">
	.st0{fill:#FFFBFB;}
</style>
<g>
	<g>
		<path class="st0" d="M22.8,1C14.6,1,8,7.6,8,15.7c0,16.7,19,25,25.5,30.4l0.7,0.6l0.7-0.6c6.5-5.4,25.5-13.7,25.5-30.4
			C60.3,7.6,53.7,1,45.6,1C41,1,36.9,3.2,34.2,6.5C31.5,3.2,27.4,1,22.8,1z M22.8,3.2c4.4,0,8.2,2.2,10.5,5.6l0.9,1.4l0.9-1.4
			c2.3-3.4,6.1-5.6,10.5-5.6c7,0,12.6,5.6,12.6,12.6c0,14.7-16.5,22.3-24,28.2c-7.5-5.9-24-13.5-24-28.2C10.2,8.8,15.8,3.2,22.8,3.2
			z M42.9,10.7c-0.8,0-1.7,0.3-2.3,0.9l-4.9,4.9L24.5,15c-0.2,0-0.4,0-0.6,0.1s-0.3,0.2-0.5,0.4l-1.1,1.6c0,0.1-0.1,0.1-0.1,0.2
			s0,0.2-0.1,0.2c0,0.1,0,0.2,0,0.2c0,0.1,0,0.2,0,0.2c0,0.1,0.1,0.2,0.1,0.2c0,0.1,0.1,0.1,0.1,0.2c0.1,0.1,0.1,0.1,0.2,0.2
			c0.1,0,0.1,0.1,0.2,0.1l7.6,2.9l-3.1,3.1h-3c-0.3,0-0.6,0.1-0.8,0.3L22.3,26c-0.1,0.1-0.1,0.1-0.2,0.2c0,0.1-0.1,0.2-0.1,0.2
			c0,0.1,0,0.2-0.1,0.2c0,0.1,0,0.2,0,0.3c0,0.1,0,0.2,0.1,0.2c0,0.1,0.1,0.2,0.1,0.2c0.1,0.1,0.1,0.1,0.2,0.2s0.1,0.1,0.2,0.1l4,2
			l2,4c0,0.1,0.1,0.1,0.1,0.2c0.1,0.1,0.1,0.1,0.2,0.2c0.1,0,0.1,0.1,0.2,0.1s0.2,0.1,0.2,0.1c0.1,0,0.2,0,0.3,0c0.1,0,0.2,0,0.3,0
			c0.1,0,0.2-0.1,0.2-0.1c0.1,0,0.1-0.1,0.2-0.2l1.1-1.1c0.2-0.2,0.3-0.5,0.3-0.8v-3l3.1-3.1l3,7.5c0,0.1,0.1,0.1,0.1,0.2
			c0,0.1,0.1,0.1,0.2,0.2c0.1,0.1,0.1,0.1,0.2,0.1c0.1,0,0.1,0.1,0.2,0.1c0.1,0,0.2,0,0.2,0c0.1,0,0.2,0,0.2,0c0.1,0,0.2,0,0.2-0.1
			c0.1,0,0.1-0.1,0.2-0.1l1.6-1.1c0.2-0.1,0.3-0.3,0.4-0.5c0.1-0.2,0.1-0.4,0.1-0.6l-1.5-11.1l4.9-4.9c1.3-1.3,1.3-3.3,0-4.6
			C44.6,11,43.7,10.7,42.9,10.7z M42.9,12.9c0.3,0,0.6,0.1,0.8,0.3c0.4,0.4,0.4,1.1,0,1.5L38.4,20c-0.3,0.3-0.4,0.6-0.3,0.9
			l1.4,10.6l-3-7.6c0-0.1-0.1-0.2-0.1-0.2c-0.1-0.1-0.1-0.1-0.2-0.2c-0.1-0.1-0.1-0.1-0.2-0.1c-0.1,0-0.2-0.1-0.3-0.1s-0.2,0-0.3,0
			s-0.2,0-0.3,0s-0.2,0.1-0.2,0.1c-0.1,0-0.1,0.1-0.2,0.2l-4.6,4.6c-0.2,0.2-0.3,0.5-0.3,0.8v2l-1.2-2.4c-0.1-0.2-0.3-0.4-0.5-0.5
			l-2.4-1.2h2.1c0.3,0,0.6-0.1,0.8-0.3l4.6-4.6c0.1-0.1,0.1-0.1,0.2-0.2c0-0.1,0.1-0.2,0.1-0.2c0-0.1,0-0.2,0-0.3c0-0.1,0-0.2,0-0.3
			c0-0.1,0-0.2-0.1-0.3c0-0.1-0.1-0.2-0.1-0.2c-0.1-0.1-0.1-0.1-0.2-0.2c-0.1-0.1-0.2-0.1-0.2-0.1l-7.6-2.9L36,18.7
			c0.4,0,0.7-0.1,0.9-0.3l5.3-5.2C42.3,13,42.6,12.9,42.9,12.9z"/>
	</g>
</g>
<g>
	<g transform="translate(172.66601, 202.124987)">
		<g>
			<path class="st0" d="M-58.7-187.1c-0.4,0-0.8-0.1-1-0.3s-0.3-0.5-0.3-0.9c0-0.3,0.1-0.6,0.3-0.8c0.2-0.3,0.5-0.4,1-0.4
				c0.4,0,0.8,0.1,1,0.3s0.3,0.5,0.3,0.9c0,0.3-0.1,0.6-0.3,0.8C-57.9-187.2-58.2-187.1-58.7-187.1z"/>
		</g>
	</g>
</g>
<g>
	<g transform="translate(277.322943, 202.124987)">
		<g>
			<path class="st0" d="M-97.5-180.4c-0.7,0-1.4,0.2-1.9,0.5s-0.9,0.9-1.1,1.8h5.5v-0.1c0-0.4-0.2-0.8-0.4-1.1
				c-0.2-0.3-0.5-0.6-0.9-0.8C-96.7-180.3-97.1-180.4-97.5-180.4z"/>
		</g>
	</g>
</g>
<g>
	<g>
		<g transform="translate(139.06854, 202.124987)">
			<g>
				<path class="st0" d="M-59.2-169.6v-21.9H-45v3.3h-10.8v6.1h9.4v3.3h-9.4v9.3h-3.4V-169.6z"/>
			</g>
		</g>
	</g>
	<g>
		<g transform="translate(162.807601, 202.124987)">
			<g>
				<path class="st0" d="M-64.8-169.6v-23.2h3.2v23.2H-64.8z"/>
			</g>
		</g>
	</g>
	<g>
		<g transform="translate(172.66601, 202.124987)">
			<g>
				<path class="st0" d="M-64.7-189.7c-0.7,0-1.3-0.2-1.6-0.6c-0.4-0.4-0.5-0.9-0.5-1.5c0-0.5,0.2-1,0.5-1.4
					c0.4-0.4,0.9-0.6,1.6-0.6c0.7,0,1.3,0.2,1.6,0.6c0.4,0.4,0.5,0.9,0.5,1.5c0,0.5-0.2,1-0.5,1.4C-63.4-189.9-64-189.7-64.7-189.7z
					 M-63-169.6h-3.2V-186h3.2C-63-186-63-169.6-63-169.6z"/>
			</g>
		</g>
	</g>
	<g>
		<g transform="translate(183.628568, 202.124987)">
			<g>
				<path class="st0" d="M-66.9-166.9c0.6,0.5,1.4,0.9,2.3,1.2s1.9,0.4,2.8,0.4c1.7,0,3-0.4,3.9-1.2s1.4-2.1,1.4-3.7v-2
					c-0.3,0.5-0.7,1-1.3,1.4c-0.5,0.4-1.2,0.8-1.9,1.1s-1.5,0.4-2.3,0.4c-1.5,0-2.9-0.4-4.1-1.1c-1.2-0.7-2.2-1.7-2.9-3
					c-0.7-1.3-1.1-2.8-1.1-4.4c0-1.7,0.4-3.1,1.1-4.4c0.7-1.3,1.7-2.3,2.9-3c1.2-0.7,2.6-1.1,4.1-1.1c1.2,0,2.4,0.3,3.3,0.8
					c1,0.6,1.7,1.2,2.2,1.8v-2.3h3.2v15.4c0,2-0.4,3.5-1.2,4.7s-1.8,2.1-3.1,2.6c-1.3,0.6-2.7,0.8-4.2,0.8c-1.2,0-2.3-0.2-3.5-0.6
					c-1.2-0.4-2.1-0.8-2.8-1.4L-66.9-166.9z M-61.6-183.5c-1,0-1.9,0.2-2.7,0.7c-0.8,0.5-1.4,1.2-1.8,2s-0.7,1.8-0.7,2.9
					s0.2,2,0.7,2.9c0.5,0.8,1.1,1.5,1.8,2c0.8,0.5,1.7,0.7,2.7,0.7s2-0.2,2.7-0.7c0.8-0.5,1.4-1.1,1.8-2c0.4-0.8,0.7-1.8,0.7-2.9
					c0-1.1-0.2-2-0.7-2.9c-0.4-0.8-1.1-1.5-1.8-2C-59.7-183.2-60.6-183.5-61.6-183.5z"/>
			</g>
		</g>
	</g>
	<g>
		<g transform="translate(209.221012, 202.124987)">
			<g>
				<path class="st0" d="M-65.8-186.4c1.5,0,2.6,0.3,3.4,0.9c0.8,0.6,1.4,1.4,1.7,2.4s0.5,2.2,0.5,3.4v10h-3.2v-9.8
					c0-0.8-0.1-1.5-0.3-2.1s-0.6-1.1-1.1-1.5s-1.2-0.5-2.1-0.4c-0.8,0-1.6,0.2-2.2,0.5c-0.6,0.4-1.2,0.8-1.5,1.4
					c-0.4,0.6-0.6,1.2-0.6,1.9v10h-3.2v-23.2h3.2v9.3c0.5-0.8,1.2-1.5,2.2-2C-68-186.1-66.9-186.4-65.8-186.4z"/>
			</g>
		</g>
	</g>
	<g>
		<g transform="translate(232.684042, 202.124987)">
			<g>
				<path class="st0" d="M-73.9-169.6h-3.2V-183h-3.4v-3.1h3.4v-4.2h3.2v4.2h3.8v3.1h-3.8V-169.6z"/>
			</g>
		</g>
	</g>
	<g>
		<g transform="translate(247.826565, 202.124987)">
			<g>
				<path class="st0" d="M-72.9-191.6c1.7,0,3.2,0.3,4.5,0.9c1.3,0.6,2.4,1.4,3.2,2.4c0.9,1,1.5,2.2,1.9,3.5s0.7,2.7,0.7,4.2
					c0,2-0.4,3.8-1.2,5.5c-0.8,1.7-1.9,3-3.4,4s-3.4,1.5-5.7,1.5h-8.6v-21.9L-72.9-191.6L-72.9-191.6z M-73.1-172.9
					c1.7,0,3-0.4,4-1.1c1-0.7,1.8-1.6,2.3-2.8s0.7-2.4,0.7-3.8c0-1.4-0.2-2.7-0.7-3.8c-0.5-1.2-1.2-2.1-2.3-2.8
					c-1-0.7-2.4-1.1-4-1.1h-5v15.4L-73.1-172.9L-73.1-172.9z"/>
			</g>
		</g>
	</g>
	<g>
		<g transform="translate(277.322943, 202.124987)">
			<g>
				<path class="st0" d="M-74.2-171.8L-74.2-171.8c-0.7,0.6-1.6,1.2-2.8,1.7c-1.2,0.5-2.4,0.7-3.7,0.7c-1.7,0-3.2-0.4-4.5-1.1
					c-1.3-0.7-2.3-1.7-3.1-3c-0.7-1.3-1.1-2.7-1.1-4.3c0-1.8,0.4-3.4,1.2-4.7c0.8-1.3,1.8-2.3,3.1-3c1.3-0.7,2.7-1.1,4.2-1.1
					c1.4,0,2.6,0.3,3.8,1c1.1,0.7,2,1.6,2.7,2.8s1,2.6,1,4.2v1.4H-86c0.2,1.5,0.8,2.7,1.8,3.5c1,0.9,2.3,1.3,3.9,1.3
					c1.1,0,2.1-0.2,2.8-0.6c0.7-0.4,1.3-0.8,1.8-1.2L-74.2-171.8z M-81-183.5c-1.2,0-2.3,0.3-3.2,0.9c-0.9,0.6-1.5,1.6-1.8,3h9.2
					v-0.2c-0.1-0.7-0.3-1.3-0.7-1.9c-0.4-0.5-0.9-1-1.5-1.3S-80.3-183.5-81-183.5z"/>
			</g>
		</g>
	</g>
	<g>
		<g transform="translate(300.431069, 202.124987)">
			<g>
				<path class="st0" d="M-93.1-169.6v-23.2h3.2v23.2H-93.1z"/>
			</g>
		</g>
	</g>
	<g>
		<g transform="translate(310.289478, 202.124987)">
			<g>
				<path class="st0" d="M-79.8-186.1v16.4h-3.3v-2.5c-0.5,0.7-1.2,1.3-2.2,1.9c-1,0.6-2.1,0.9-3.4,0.9c-1.4,0-2.6-0.4-3.8-1.1
					c-1.1-0.7-2-1.7-2.7-3s-1-2.8-1-4.5s0.3-3.1,1-4.4c0.7-1.3,1.6-2.3,2.8-3c1.2-0.7,2.6-1.1,4.1-1.1c1.1,0,2.2,0.3,3,0.8
					c0.9,0.5,1.6,1.1,2.1,1.8v-2.2L-79.8-186.1L-79.8-186.1z M-88-172.3c1,0,1.9-0.2,2.6-0.7c0.8-0.5,1.3-1.2,1.8-2
					c0.4-0.9,0.6-1.8,0.6-2.9c0-1-0.2-2-0.6-2.8s-1-1.5-1.8-2s-1.6-0.7-2.6-0.7s-1.8,0.2-2.6,0.7c-0.8,0.5-1.3,1.1-1.8,2
					c-0.4,0.8-0.6,1.8-0.6,2.9c0,1.1,0.2,2,0.6,2.9c0.4,0.8,1,1.5,1.8,2C-89.8-172.5-88.9-172.3-88-172.3z"/>
			</g>
		</g>
	</g>
	<g>
		<g transform="translate(335.250975, 202.124987)">
			<g>
				<path class="st0" d="M-97.5-162.4l2.7-6.2l0.1-0.2l-7.6-17.3h3.8l5.1,12.1c0.1,0.1,0.1,0.3,0.2,0.5s0.1,0.4,0.2,0.6
					c0.1-0.2,0.2-0.5,0.2-0.7c0.1-0.2,0.2-0.4,0.2-0.7l4.3-11.9h3.8l-6.8,16.4l-2.8,7.2h-3.4V-162.4z"/>
			</g>
		</g>
	</g>
</g>
</svg>
