<svg xmlns="http://www.w3.org/2000/svg" xmlns:xlink="http://www.w3.org/1999/xlink" viewBox="0 0 186.21 374.76"><defs><style>.cls-1{fill:#b6d2f8;}.cls-2{fill:#9dceea;opacity:0.22;}.cls-3{fill:#2c5684;}.cls-4{fill:url(#linear-gradient);}.cls-5{fill:url(#linear-gradient-2);}.cls-6{fill:url(#linear-gradient-3);}.cls-7{fill:url(#linear-gradient-4);}</style><linearGradient id="linear-gradient" x1="124.63" y1="185.42" x2="150.85" y2="185.42" gradientUnits="userSpaceOnUse"><stop offset="0" stop-color="#f99b1c"/><stop offset="0" stop-color="#f99c6d"/><stop offset="1" stop-color="#fec0aa"/></linearGradient><linearGradient id="linear-gradient-2" x1="112.57" y1="175.95" x2="138.79" y2="175.95" xlink:href="#linear-gradient"/><linearGradient id="linear-gradient-3" x1="94.48" y1="166.49" x2="120.7" y2="166.49" xlink:href="#linear-gradient"/><linearGradient id="linear-gradient-4" x1="32.36" y1="227.91" x2="186.21" y2="227.91" xlink:href="#linear-gradient"/></defs><title>works-1</title><g id="Layer_2" data-name="Layer 2"><g id="Layer_1-2" data-name="Layer 1"><path class="cls-1" d="M116,232.84c0,9.8-7.67,17.82-17,17.82H17c-9.36,0-17-8-17-17.82v-215C0,8,7.67,0,17,0H98.92c9.36,0,17,8,17,17.82Z"/><path class="cls-2" d="M17,248.15C9,248.15,2.4,241.28,2.4,232.84v-215C2.4,9.38,9,2.51,17,2.51H98.92c8.06,0,14.63,6.87,14.63,15.31v215c0,8.44-6.57,15.31-14.63,15.31Z"/><rect class="cls-3" x="7.53" y="31.64" width="100.89" height="188.17"/><path class="cls-4" d="M124.63,168.84s11.45-6.31,16.88,3.16,6,13.25,9.05,25.24S132.47,208.6,124.63,168.84Z"/><path class="cls-5" d="M112.57,159.38s11.45-6.31,16.88,3.15,6,13.26,9.05,25.25S120.41,199.13,112.57,159.38Z"/><path class="cls-6" d="M94.48,149.91s11.45-6.31,16.88,3.16,6,13.25,9,25.24S102.32,189.67,94.48,149.91Z"/><path class="cls-7" d="M121.41,374.76S109,280.76,90.25,263.5c-8-7.43-24.72-17-37.38-46.07s-20.51-43.54-20.51-43.54S39,167.58,44.42,172s12.06,13.25,19.3,20.82,9.65,3.16,11.46-1.89,4.22-94,6.63-100.33,7.24-15.78,9-3.79S98.7,148,100.5,158.75s21.71,13.25,35,22.08,14.47,7.58,16.28,26.51,2.66,20,2.05,33.93c-.19,4.46-4,31.65,2.84,47.46,11.11,25.67,22.78,63.23,29.56,86Z"/></g></g></svg>