<svg xmlns="http://www.w3.org/2000/svg" viewBox="0 0 410.8 419.35"><defs><style>.cls-1{fill:#f7d894;}.cls-2{fill:#ffce43;}.cls-3{fill:#fff;}.cls-4{fill:#f79844;}.cls-5{fill:#e8dfa7;}.cls-6{fill:#f2dc3d;}.cls-7{fill:#fcc8ea;}.cls-8{fill:#f7e89c;}.cls-9{fill:#e9d6b8;}.cls-10{fill:#b0bfde;}.cls-11{fill:#d1dbea;}.cls-12{fill:#163f59;}.cls-13{fill:#194866;}.cls-14{fill:#161711;}.cls-15{fill:#f7d200;}.cls-16{fill:#d8e5ed;}.cls-17{fill:#ee5a28;}.cls-18{fill:#ffc910;}.cls-19{fill:#ee8f01;}.cls-20{fill:#ffab01;}.cls-21{fill:#f99b0f;}.cls-22{fill:#ffca10;}</style></defs><title>works2</title><g id="Layer_2" data-name="Layer 2"><g id="Layer_1-2" data-name="Layer 1"><path class="cls-1" d="M304.57,302.61l-3.64-15.15,7.34-3.78a52.4,52.4,0,0,1,.4-6.71l-7.21-4,4.08-15,9,.63a49.77,49.77,0,0,1,3.09-5l-4.74-7.95,10.72-10.87,8,5.61a47.22,47.22,0,0,1,4.58-2.5L335.9,228l14.47-3.81,4.32,9.21a45.3,45.3,0,0,1,5.07.13l4.46-8.79L378.57,229l-.63,9.93a46.4,46.4,0,0,1,4.63,2.86l7.73-5.06L400.69,248l-4.92,7.7a50.49,50.49,0,0,1,3,5.44l8.38-.31,3.64,15.15-7.14,3.68a51.82,51.82,0,0,1,0,7.16l6.59,3.67-4.08,15L399.1,305a50.75,50.75,0,0,1-3.81,6.87l3.52,5.9L388.1,328.63l-5.4-3.79a47.31,47.31,0,0,1-7.08,4.12l.22,6.44-14.47,3.81-2.78-5.91a45.27,45.27,0,0,1-8.21-.29l-2.86,5.64-14.36-4.27.44-6.87A47.12,47.12,0,0,1,327,323l-5.52,3.61L311,315.44l4-6.33a51.93,51.93,0,0,1-3.24-6.77Zm44.6,6c13.31,4,27.18-4.11,31-18.05s-3.93-28.46-17.25-32.43-27.18,4.12-31,18.06S335.85,304.64,349.17,308.61Z"/><path class="cls-1" d="M365.89,247.12c19.13,5.7,30.22,26.55,24.77,46.58s-25.36,31.63-44.49,25.93S316,293.08,321.4,273.05,346.76,241.42,365.89,247.12Zm-17.67,65c15.15,4.52,30.94-4.68,35.26-20.54s-4.48-32.4-19.64-36.92-30.94,4.69-35.26,20.56S333.06,307.59,348.22,312.1Z"/><path class="cls-2" d="M223.83,293.82a11.21,11.21,0,0,1-10.94-11.46V209.07H187.34l25.55-26.75V165a11.2,11.2,0,0,1,10.94-11.46H356A11.22,11.22,0,0,1,366.92,165V282.36A11.22,11.22,0,0,1,356,293.82Z"/><path class="cls-3" d="M308.71,185.07H287.85V171.43h20.86Zm-15.65-5.45h10.43v-2.73H293.06Z"/><path class="cls-3" d="M298.28,267c-20.12,0-36.5-17.14-36.5-38.21H267c0,18.06,14,32.75,31.29,32.75s31.28-14.69,31.28-32.75S315.53,196,298.28,196c-15.33,0-28.3,11.47-30.85,27.26l-5.14-.91c3-18.43,18.11-31.81,36-31.81,20.13,0,36.5,17.14,36.5,38.21S318.41,267,298.28,267Z"/><rect class="cls-3" x="295.67" y="182.35" width="5.21" height="10.92"/><rect class="cls-3" x="295.67" y="201.45" width="5.21" height="30.02"/><polygon class="cls-3" points="320.98 203.38 317.29 199.52 326.42 189.97 330.11 193.83 320.98 203.38"/><polygon class="cls-3" points="330.33 197.92 322.51 189.73 326.19 185.87 334.02 194.06 330.33 197.92"/><path class="cls-3" d="M321.74,228.74h-5.21a19,19,0,0,0-13.69-18.5l1.3-5.29C314.51,207.74,321.74,217.53,321.74,228.74Z"/><rect class="cls-3" x="251.35" y="226.01" width="23.46" height="5.46"/><rect class="cls-3" x="235.71" y="226.01" width="10.43" height="5.46"/><rect class="cls-3" x="235.71" y="209.64" width="18.25" height="5.46"/><rect class="cls-3" x="243.53" y="242.39" width="15.64" height="5.46"/><path class="cls-4" d="M166,166.7A11.22,11.22,0,0,1,155,178.16h-7.3V204.9l-25.55-26.74H38.21A11.21,11.21,0,0,1,27.26,166.7V71.18a11.21,11.21,0,0,1,11-11.46H155A11.22,11.22,0,0,1,166,71.18Z"/><rect class="cls-3" x="49.16" y="94.11" width="94.89" height="7.64"/><rect class="cls-3" x="49.16" y="113.21" width="94.89" height="7.64"/><rect class="cls-3" x="49.16" y="132.31" width="94.89" height="7.64"/><path class="cls-5" d="M89.88,251.74A8.54,8.54,0,0,0,98.22,243v-5.82H117.7L98.22,216.79V164.36a8.55,8.55,0,0,0-8.34-8.74H9.19a8.56,8.56,0,0,0-8.35,8.74V243a8.55,8.55,0,0,0,8.35,8.74Z"/><path class="cls-6" d="M248.41,122.73v6.1h6.12a15.47,15.47,0,0,0,2.14,5.36l-4.34,4.54,4.12,4.31,4.34-4.54a14,14,0,0,0,5.11,2.23v6.41h5.83v-6.41a14,14,0,0,0,5.11-2.23l4.34,4.54,4.13-4.31L281,134.19a15.73,15.73,0,0,0,2.13-5.36h6.12v-6.1H283.1a15.52,15.52,0,0,0-2.13-5.35l4.34-4.55-4.12-4.31-4.34,4.54a14.25,14.25,0,0,0-5.12-2.23v-6.41H265.9v6.41a14.2,14.2,0,0,0-5.11,2.23l-4.34-4.54-4.12,4.32,4.34,4.54a15.34,15.34,0,0,0-2.14,5.35Zm20.41-6.1a9.16,9.16,0,1,1-8.75,9.15A9,9,0,0,1,268.82,116.63Z"/><path class="cls-3" d="M67.42,221v-5.34a10.46,10.46,0,0,0-10.21-10.7H39.33a10.46,10.46,0,0,0-10.21,10.7V221Z"/><path class="cls-3" d="M57.21,187.55a8.95,8.95,0,1,0-8.94,9.35A9.16,9.16,0,0,0,57.21,187.55Z"/><path class="cls-7" d="M9.85,116.81A10.09,10.09,0,0,0,0,127.13c0,5.7,9.85,21.31,9.85,21.31s9.86-15.61,9.86-21.31A10.09,10.09,0,0,0,9.85,116.81Zm0,13.94a3.05,3.05,0,0,1,0-6.1,3.05,3.05,0,0,1,0,6.1Z"/><polygon class="cls-8" points="250.78 398.36 250.78 347.58 213.04 347.58 213.04 358.86 223.81 358.86 223.81 398.36 213.04 398.36 213.04 409.64 261.55 409.64 261.55 398.36 250.78 398.36"/><path class="cls-8" d="M248.08,320.78c0,8.57-6.64,15.52-14.83,15.52s-14.82-6.95-14.82-15.52,6.64-15.52,14.82-15.52S248.08,312.21,248.08,320.78Z"/><path class="cls-9" d="M149,292.88l-1.92,25.86s-6.66-13.86-7.38-23.57S149.21,292.51,149,292.88Z"/><path class="cls-9" d="M193.21,278.15,181.08,298.8s18-9.07,17.11-17.52S193.21,278.15,193.21,278.15Z"/><path class="cls-9" d="M162.5,229.15c.24,2.95,1.75,5.5,3.35,5.63h4.53c1.6-.13,3.11-2.68,3.35-5.63q.56-7.31,1.12-14.6c.24-2.92-.85-8.78-3.26-10.51a5.81,5.81,0,0,0-7,0c-2.41,1.73-3.5,7.59-3.26,10.51Q162,221.84,162.5,229.15Z"/><path class="cls-10" d="M149.34,236.55s-5.91,4.07-9.33,28.78-1.24,23.77-1.24,23.77l.62,5.63,8.71.94,5-21.27Z"/><path class="cls-11" d="M147.16,236.86l13.73-6.48,7.08,2.21,8.75-1.05,9.65,4.38s4.35,4.38.31,18.46-3.44,37.32-3.44,37.32l-35,2.32S150.59,244.68,147.16,236.86Z"/><path class="cls-11" d="M180.15,236.55s5.28-3.13,10.57,3.75c9,11.73,13.38,26.28,14.32,29.09s2.17,11.27-1.56,13.77l-3.73,2.5-7.78-5,1.24-2.51.63-1.56s-4.36-10-9-19.08S180.15,236.55,180.15,236.55Z"/><polygon class="cls-10" points="169.7 232.28 173.16 236.23 176.63 231.01 174.54 227.79 169.7 232.28"/><polygon class="cls-10" points="162.1 228.1 168.75 232.59 165.61 236.55 160.41 230.38 162.1 228.1"/><path class="cls-12" d="M167.45,200.6v-3.38h-7a4.35,4.35,0,0,0-4.24,4.44V205h7A4.35,4.35,0,0,0,167.45,200.6Z"/><path class="cls-9" d="M174.12,221.09a3.87,3.87,0,0,1-3.77,3.95h-8.56a3.87,3.87,0,0,1-3.77-3.95V203.17a3.87,3.87,0,0,1,3.77-3.95h8.56a3.87,3.87,0,0,1,3.77,3.95Z"/><path class="cls-12" d="M167.72,197.22a4.2,4.2,0,0,1,3.54,2h1.46a3.37,3.37,0,0,1,3.29,3.44v8.5h-2.32v-3.45a2.36,2.36,0,0,0-2.31-2.42h-7a4.34,4.34,0,0,1-4.24-4.44v-3.64Z"/><path class="cls-9" d="M173,213.38a2.06,2.06,0,0,1,2-2.1h.16a2.06,2.06,0,0,1,2,2.1v2.56a2.07,2.07,0,0,1-2,2.11H175a2,2,0,0,1-1.84-1.26Z"/><path class="cls-12" d="M170.66,307.27s-10.55,39.12-19,53.13-11.4-4.22-11.4-4.22l10.49-65.05,24.56-.16S174.69,292.3,170.66,307.27Z"/><path class="cls-13" d="M159,291.12s7.06,64.18,8.08,67.4c3.42,10.91,11.24,3.87,12.45.23s3.22-30.54,2.81-50.17-.4-18.35-.4-18.35Z"/><path class="cls-14" d="M180.54,417.13c.37.46.1,1.68.1,1.68s-6.36.74-8.4.23a10.48,10.48,0,0,1-2.28-1.11c-.14-.09-.39-.6-.53-.69s-.39.11-.61,0a7.39,7.39,0,0,1-1-.7c-.56-3.05.19-4.28.19-4.28s5.41-1.88,6.43-.57C176.85,414.74,179.75,416.12,180.54,417.13Z"/><path class="cls-14" d="M141,414.39l-.9,5h-4.84s-.27-.7-.68-.7-.78.7-1.25.7H121.05s-.22-1.05,0-1.4a4.39,4.39,0,0,1,1.48-.67c2.49-.73,9.64-3,10.88-5.52C135,408.72,141,414.39,141,414.39Z"/><path class="cls-13" d="M165.3,331.14s1.56,24.34,1.34,37.21c-.17,9.71-.19,28.32,1.22,44.17.09,1,7.65.24,7.65.24s5.08-60.68,5.88-70.62S171.34,324,165.3,331.14Z"/><path class="cls-12" d="M142.87,358.09a84.9,84.9,0,0,0,8.86,1.1c3.06.27-9,56.15-9,56.15l-9.52-4.3,7.17-56.29Z"/><path class="cls-15" d="M231.07,129.6a34.2,34.2,0,0,0,12.45-24.94c0-.63.06-1.25.08-1.88h0a34.78,34.78,0,0,0-1.49-10.83c0-.1-.07-.2-.09-.29,0,.09.06.18.08.28l-9.84,3.19a25.08,25.08,0,0,1,1,7.5h0a24.5,24.5,0,0,1-9.79,19.44l5.94,8.82C230,130.47,230.54,130,231.07,129.6Z"/><path class="cls-7" d="M191.27,116.23A24.8,24.8,0,0,1,187,101.94c.18-13.37,10.68-24.06,23.45-23.87,10.27.15,18.88,7.3,21.77,17.05l9.84-3.19c0-.1-.06-.19-.08-.28-.14-.44-.27-.86-.42-1.29l-.13-.36c-4.68-13.23-16-21.94-29.47-22.68l-.95,0-.42,0h-.08c-.44,0-.89,0-1.34,0h-.4l-1,.07c-.24,0-.48,0-.72.06s-.39,0-.58.06l-1.2.16h-.06a31.77,31.77,0,0,0-8.16,2.41l-1,.44h0A34.93,34.93,0,0,0,177,98.12l0,.21c0,.41-.08.83-.1,1.24,0,.22,0,.43-.05.64l0,.84,0,.73a36.09,36.09,0,0,0,6.11,20.67Z"/><path class="cls-16" d="M229.43,130.88l-5.94-8.82a22.28,22.28,0,0,1-13.65,4.42h0a22.81,22.81,0,0,1-18.56-10.25l-8.44,6.22h0c.38.55.77,1.1,1.16,1.62a31.77,31.77,0,0,0,22.25,13h.18c.46.06.92.1,1.38.13h.49c.46,0,.92.07,1.39.07a32.19,32.19,0,0,0,19.4-6.14C229.77,130.65,230,130.47,229.43,130.88Z"/><path class="cls-4" d="M210.83,101.81l36.36,12.37c6.52-21-4.46-43.6-24.54-50.43a35,35,0,0,0-11.82-2Z"/><path class="cls-17" d="M340.28,50c0,27.6-21.38,50-47.75,50s-47.75-22.38-47.75-50S266.16,0,292.53,0,340.28,22.38,340.28,50Z"/><path class="cls-18" d="M341.25,50c0,27.6-21.38,50-47.76,50s-47.75-22.38-47.75-50S267.12,0,293.49,0,341.25,22.38,341.25,50Z"/><ellipse class="cls-19" cx="293.98" cy="49.48" rx="39.55" ry="41.4"/><path class="cls-20" d="M333.05,50c0,22.86-17.71,41.4-39.56,41.4S253.94,72.85,253.94,50,271.65,8.58,293.49,8.58,333.05,27.12,333.05,50Z"/><path class="cls-21" d="M278.26,60.18H284A8.77,8.77,0,0,0,286.07,66a7.21,7.21,0,0,0,5.44,1.94,6.77,6.77,0,0,0,5.2-2.07,7.8,7.8,0,0,0,1.94-5.56,10.7,10.7,0,0,0-.23-2.27,6.36,6.36,0,0,0-.67-1.79q-1.46-2.51-6-3.64l-1.12-.29q-5.67-1.53-8.36-4.49a11,11,0,0,1-2.68-7.69,14,14,0,0,1,2.56-8.61,10.91,10.91,0,0,1,7-4.29V20.38h5.55V27.3a9.87,9.87,0,0,1,6.43,3.79,14.25,14.25,0,0,1,2.7,8.07h-6a6.69,6.69,0,0,0-1.83-4.43,6.47,6.47,0,0,0-8.8.18,6.8,6.8,0,0,0-1.69,4.84,6.42,6.42,0,0,0,.29,2,4.93,4.93,0,0,0,.92,1.66c.82,1,2.59,1.84,5.3,2.47a26.88,26.88,0,0,1,3.7,1,14,14,0,0,1,6.73,4.87,12.9,12.9,0,0,1,2.3,7.7A16.3,16.3,0,0,1,302,69.15a10.51,10.51,0,0,1-7.28,4.61v8.32h-5.55v-8a11.76,11.76,0,0,1-7.93-4.43A14.94,14.94,0,0,1,278.26,60.18Z"/><path class="cls-22" d="M279.62,60.18h5.74A8.77,8.77,0,0,0,287.43,66a7.21,7.21,0,0,0,5.45,1.94,6.76,6.76,0,0,0,5.19-2.07A7.8,7.8,0,0,0,300,60.31a10.09,10.09,0,0,0-.23-2.27,6.07,6.07,0,0,0-.67-1.79q-1.46-2.51-6-3.64L292,52.32q-5.69-1.53-8.37-4.49a11,11,0,0,1-2.68-7.69,14,14,0,0,1,2.56-8.61,10.91,10.91,0,0,1,7-4.29V20.38h5.55V27.3a9.87,9.87,0,0,1,6.43,3.79,14.25,14.25,0,0,1,2.7,8.07h-6a6.69,6.69,0,0,0-1.83-4.43,6.47,6.47,0,0,0-8.8.18,6.8,6.8,0,0,0-1.69,4.84,6.42,6.42,0,0,0,.29,2,4.93,4.93,0,0,0,.92,1.66c.82,1,2.59,1.84,5.3,2.47a26.88,26.88,0,0,1,3.7,1,13.91,13.91,0,0,1,6.73,4.87,12.9,12.9,0,0,1,2.3,7.7,16.3,16.3,0,0,1-2.81,9.65,10.51,10.51,0,0,1-7.28,4.61v8.32h-5.55v-8a11.78,11.78,0,0,1-7.93-4.43A14.94,14.94,0,0,1,279.62,60.18Z"/></g></g></svg>