<svg xmlns="http://www.w3.org/2000/svg" xmlns:xlink="http://www.w3.org/1999/xlink" width="125" zoomAndPan="magnify" viewBox="0 0 93.75 93.749997" height="125" preserveAspectRatio="xMidYMid meet" version="1.0"><defs><clipPath id="f16808d52c"><path d="M 0 0 L 93.5 0 L 93.5 93.5 L 0 93.5 Z M 0 0 " clip-rule="nonzero"/></clipPath></defs><g clip-path="url(#f16808d52c)"><path fill="#ffffff" d="M 0 0 L 93.75 0 L 93.75 101.25 L 0 101.25 Z M 0 0 " fill-opacity="1" fill-rule="nonzero"/><path fill="#ffffff" d="M 0 0 L 93.75 0 L 93.75 93.75 L 0 93.75 Z M 0 0 " fill-opacity="1" fill-rule="nonzero"/><path fill="#ffffff" d="M 0 0 L 93.75 0 L 93.75 93.75 L 0 93.75 Z M 0 0 " fill-opacity="1" fill-rule="nonzero"/><path fill="#f4edef" d="M 93.757812 46.878906 C 93.757812 48.414062 93.683594 49.945312 93.53125 51.472656 C 93.382812 53 93.15625 54.519531 92.855469 56.023438 C 92.558594 57.53125 92.183594 59.019531 91.738281 60.488281 C 91.292969 61.957031 90.777344 63.398438 90.1875 64.820312 C 89.601562 66.238281 88.945312 67.625 88.222656 68.976562 C 87.5 70.332031 86.710938 71.648438 85.855469 72.921875 C 85.003906 74.199219 84.089844 75.429688 83.117188 76.617188 C 82.140625 77.804688 81.113281 78.941406 80.027344 80.027344 C 78.941406 81.113281 77.804688 82.140625 76.617188 83.117188 C 75.429688 84.089844 74.199219 85.003906 72.921875 85.855469 C 71.648438 86.710938 70.332031 87.5 68.976562 88.222656 C 67.625 88.945312 66.238281 89.601562 64.820312 90.1875 C 63.398438 90.777344 61.957031 91.292969 60.488281 91.738281 C 59.019531 92.183594 57.53125 92.558594 56.023438 92.855469 C 54.519531 93.15625 53 93.382812 51.472656 93.53125 C 49.945312 93.683594 48.414062 93.757812 46.878906 93.757812 C 45.34375 93.757812 43.8125 93.683594 42.285156 93.53125 C 40.757812 93.382812 39.238281 93.15625 37.734375 92.855469 C 36.226562 92.558594 34.738281 92.183594 33.269531 91.738281 C 31.800781 91.292969 30.359375 90.777344 28.9375 90.1875 C 27.519531 89.601562 26.132812 88.945312 24.78125 88.222656 C 23.425781 87.5 22.109375 86.710938 20.835938 85.855469 C 19.558594 85.003906 18.324219 84.089844 17.140625 83.117188 C 15.953125 82.140625 14.816406 81.113281 13.730469 80.027344 C 12.644531 78.941406 11.613281 77.804688 10.640625 76.617188 C 9.667969 75.429688 8.753906 74.199219 7.902344 72.921875 C 7.046875 71.648438 6.257812 70.332031 5.535156 68.976562 C 4.8125 67.625 4.15625 66.238281 3.570312 64.820312 C 2.980469 63.398438 2.464844 61.957031 2.019531 60.488281 C 1.574219 59.019531 1.199219 57.53125 0.902344 56.023438 C 0.601562 54.519531 0.375 53 0.226562 51.472656 C 0.0742188 49.945312 0 48.414062 0 46.878906 C 0 45.34375 0.0742188 43.8125 0.226562 42.285156 C 0.375 40.757812 0.601562 39.238281 0.902344 37.734375 C 1.199219 36.226562 1.574219 34.738281 2.019531 33.269531 C 2.464844 31.800781 2.980469 30.359375 3.570312 28.9375 C 4.15625 27.519531 4.8125 26.132812 5.535156 24.78125 C 6.257812 23.425781 7.046875 22.109375 7.902344 20.835938 C 8.753906 19.558594 9.667969 18.324219 10.640625 17.140625 C 11.613281 15.953125 12.644531 14.816406 13.730469 13.730469 C 14.816406 12.644531 15.953125 11.613281 17.140625 10.640625 C 18.324219 9.667969 19.558594 8.753906 20.835938 7.902344 C 22.109375 7.046875 23.425781 6.257812 24.78125 5.535156 C 26.132812 4.8125 27.519531 4.15625 28.9375 3.570312 C 30.359375 2.980469 31.800781 2.464844 33.269531 2.019531 C 34.738281 1.574219 36.226562 1.199219 37.734375 0.902344 C 39.238281 0.601562 40.757812 0.375 42.285156 0.226562 C 43.8125 0.0742188 45.34375 0 46.878906 0 C 48.414062 0 49.945312 0.0742188 51.472656 0.226562 C 53 0.375 54.519531 0.601562 56.023438 0.902344 C 57.53125 1.199219 59.019531 1.574219 60.488281 2.019531 C 61.957031 2.464844 63.398438 2.980469 64.820312 3.570312 C 66.238281 4.15625 67.625 4.8125 68.976562 5.535156 C 70.332031 6.257812 71.648438 7.046875 72.921875 7.902344 C 74.199219 8.753906 75.429688 9.667969 76.617188 10.640625 C 77.804688 11.613281 78.941406 12.644531 80.027344 13.730469 C 81.113281 14.816406 82.140625 15.953125 83.117188 17.140625 C 84.089844 18.324219 85.003906 19.558594 85.855469 20.835938 C 86.710938 22.109375 87.5 23.425781 88.222656 24.78125 C 88.945312 26.132812 89.601562 27.519531 90.1875 28.9375 C 90.777344 30.359375 91.292969 31.800781 91.738281 33.269531 C 92.183594 34.738281 92.558594 36.226562 92.855469 37.734375 C 93.15625 39.238281 93.382812 40.757812 93.53125 42.285156 C 93.683594 43.8125 93.757812 45.34375 93.757812 46.878906 Z M 93.757812 46.878906 " fill-opacity="1" fill-rule="nonzero"/></g><path fill="#00ab66" d="M 47.148438 34.894531 L 48.992188 34.894531 L 48.992188 39.097656 L 47.148438 39.097656 Z M 32.382812 51.546875 L 36.5625 51.546875 L 36.5625 49.773438 L 32.382812 49.773438 Z M 47.148438 66.433594 L 48.992188 66.433594 L 48.992188 62.214844 L 47.148438 62.214844 Z M 48.652344 44.628906 C 48.640625 44.429688 48.558594 44.257812 48.417969 44.113281 C 48.273438 43.972656 48.101562 43.894531 47.902344 43.878906 C 47.792969 43.867188 47.691406 43.878906 47.589844 43.910156 C 47.484375 43.941406 47.394531 43.996094 47.316406 44.066406 C 47.234375 44.140625 47.175781 44.222656 47.128906 44.324219 C 47.085938 44.421875 47.066406 44.523438 47.066406 44.628906 L 47.066406 50.707031 C 47.066406 51.210938 47.398438 51.457031 47.902344 51.457031 L 56.707031 51.457031 C 56.921875 51.460938 57.109375 51.390625 57.269531 51.246094 C 57.429688 51.101562 57.519531 50.921875 57.539062 50.707031 C 57.542969 50.472656 57.460938 50.277344 57.296875 50.109375 C 57.136719 49.945312 56.9375 49.863281 56.707031 49.863281 L 48.652344 49.863281 Z M 63.757812 49.773438 L 59.496094 49.773438 L 59.496094 51.546875 L 63.757812 51.546875 Z M 25.5625 50.59375 C 25.5625 49.164062 25.695312 47.75 25.960938 46.347656 C 26.230469 44.941406 26.625 43.578125 27.152344 42.25 C 27.675781 40.921875 28.324219 39.65625 29.089844 38.449219 C 29.855469 37.246094 30.726562 36.121094 31.707031 35.082031 L 30.226562 33.195312 C 30.101562 33.03125 30.050781 32.847656 30.074219 32.644531 C 30.101562 32.441406 30.191406 32.277344 30.351562 32.148438 L 34.945312 28.519531 C 35.109375 28.394531 35.289062 28.347656 35.492188 28.371094 C 35.691406 28.398438 35.855469 28.488281 35.984375 28.644531 L 37.488281 30.617188 C 40.496094 29.011719 43.703125 28.152344 47.113281 28.03125 L 47.113281 26.203125 C 45.191406 26.304688 43.324219 26.679688 41.511719 27.332031 C 41.375 26.949219 41.273438 26.558594 41.207031 26.160156 C 41.140625 25.761719 41.109375 25.363281 41.113281 24.957031 C 41.117188 24.554688 41.15625 24.152344 41.230469 23.753906 C 41.308594 23.359375 41.414062 22.972656 41.558594 22.59375 C 41.703125 22.214844 41.875 21.851562 42.082031 21.503906 C 42.289062 21.15625 42.527344 20.832031 42.789062 20.527344 C 43.054688 20.21875 43.34375 19.941406 43.65625 19.6875 C 43.972656 19.429688 44.304688 19.207031 44.660156 19.011719 C 45.011719 18.8125 45.378906 18.652344 45.761719 18.519531 C 46.144531 18.390625 46.535156 18.292969 46.933594 18.230469 C 47.332031 18.167969 47.734375 18.140625 48.140625 18.148438 C 48.542969 18.15625 48.945312 18.203125 49.339844 18.28125 C 49.734375 18.359375 50.121094 18.472656 50.5 18.621094 C 50.875 18.769531 51.234375 18.945312 51.582031 19.15625 C 51.925781 19.367188 52.25 19.605469 52.550781 19.875 C 52.855469 20.144531 53.132812 20.433594 53.382812 20.75 C 53.753906 21.199219 54.058594 21.6875 54.304688 22.214844 C 54.550781 22.746094 54.726562 23.292969 54.832031 23.867188 C 54.933594 24.4375 54.964844 25.015625 54.921875 25.597656 C 54.878906 26.175781 54.765625 26.742188 54.578125 27.292969 C 52.773438 26.628906 50.910156 26.261719 48.992188 26.195312 L 48.992188 28.035156 C 49.722656 28.066406 50.453125 28.128906 51.179688 28.230469 C 51.902344 28.328125 52.625 28.460938 53.335938 28.632812 C 54.046875 28.800781 54.75 29.003906 55.445312 29.242188 C 56.136719 29.480469 56.816406 29.75 57.484375 30.054688 C 58.148438 30.359375 58.800781 30.695312 59.433594 31.0625 C 60.066406 31.429688 60.679688 31.828125 61.277344 32.253906 C 61.871094 32.683594 62.445312 33.136719 62.996094 33.621094 C 63.546875 34.105469 64.070312 34.613281 64.574219 35.148438 C 65.074219 35.679688 65.546875 36.238281 65.996094 36.820312 C 66.441406 37.398438 66.859375 38 67.246094 38.621094 C 67.636719 39.242188 67.992188 39.882812 68.316406 40.539062 C 68.644531 41.195312 68.9375 41.863281 69.199219 42.546875 C 69.460938 43.234375 69.6875 43.929688 69.878906 44.636719 C 70.070312 45.34375 70.230469 46.054688 70.351562 46.777344 C 70.476562 47.5 70.566406 48.226562 70.617188 48.957031 C 70.667969 49.6875 70.6875 50.417969 70.667969 51.152344 C 70.648438 51.882812 70.59375 52.613281 70.503906 53.339844 C 70.414062 54.066406 70.289062 54.789062 70.128906 55.503906 C 69.96875 56.21875 69.777344 56.925781 69.546875 57.621094 C 69.320312 58.316406 69.054688 59 68.761719 59.667969 C 68.464844 60.339844 68.136719 60.996094 67.78125 61.632812 C 67.421875 62.269531 67.03125 62.890625 66.613281 63.492188 C 66.191406 64.09375 65.746094 64.671875 65.269531 65.226562 C 64.792969 65.785156 64.292969 66.316406 63.761719 66.824219 C 63.234375 67.332031 62.683594 67.8125 62.109375 68.269531 C 61.535156 68.722656 60.941406 69.148438 60.324219 69.542969 C 59.707031 69.941406 59.074219 70.308594 58.421875 70.640625 C 57.769531 70.976562 57.105469 71.277344 56.421875 71.546875 C 55.742188 71.816406 55.050781 72.054688 54.34375 72.253906 C 53.640625 72.457031 52.929688 72.625 52.207031 72.757812 C 51.488281 72.890625 50.761719 72.988281 50.035156 73.050781 C 49.304688 73.113281 48.574219 73.140625 47.839844 73.128906 C 47.105469 73.121094 46.378906 73.078125 45.648438 72.996094 C 44.921875 72.917969 44.199219 72.800781 43.480469 72.648438 C 42.765625 72.5 42.054688 72.3125 41.359375 72.09375 C 40.660156 71.875 39.972656 71.621094 39.296875 71.335938 C 38.625 71.050781 37.964844 70.730469 37.320312 70.378906 C 36.679688 70.027344 36.054688 69.648438 35.449219 69.238281 C 34.84375 68.824219 34.257812 68.386719 33.695312 67.917969 C 33.132812 67.449219 32.59375 66.953125 32.078125 66.433594 C 31.5625 65.910156 31.074219 65.367188 30.613281 64.796875 C 30.148438 64.230469 29.71875 63.640625 29.3125 63.027344 C 28.90625 62.417969 28.535156 61.789062 28.191406 61.140625 C 27.847656 60.496094 27.539062 59.832031 27.257812 59.15625 C 26.980469 58.476562 26.734375 57.789062 26.523438 57.085938 C 26.3125 56.386719 26.136719 55.675781 25.992188 54.957031 C 25.851562 54.238281 25.742188 53.515625 25.671875 52.785156 C 25.601562 52.054688 25.5625 51.324219 25.5625 50.59375 Z M 47.96875 31.992188 C 47.359375 31.988281 46.75 32.011719 46.140625 32.066406 C 45.535156 32.121094 44.929688 32.207031 44.332031 32.320312 C 43.730469 32.433594 43.140625 32.578125 42.554688 32.75 C 41.96875 32.921875 41.390625 33.121094 40.828125 33.351562 C 40.261719 33.582031 39.707031 33.835938 39.167969 34.121094 C 38.628906 34.40625 38.101562 34.714844 37.59375 35.050781 C 37.082031 35.386719 36.589844 35.746094 36.117188 36.128906 C 35.640625 36.511719 35.1875 36.917969 34.75 37.347656 C 34.316406 37.773438 33.90625 38.222656 33.515625 38.691406 C 33.125 39.160156 32.757812 39.648438 32.414062 40.152344 C 32.070312 40.660156 31.753906 41.179688 31.464844 41.714844 C 31.171875 42.253906 30.910156 42.800781 30.671875 43.363281 C 30.433594 43.925781 30.226562 44.5 30.042969 45.082031 C 29.863281 45.664062 29.710938 46.253906 29.589844 46.855469 C 29.46875 47.453125 29.375 48.054688 29.308594 48.660156 C 29.246094 49.269531 29.214844 49.875 29.210938 50.488281 C 29.207031 51.097656 29.234375 51.707031 29.289062 52.3125 C 29.347656 52.921875 29.433594 53.523438 29.546875 54.125 C 29.664062 54.722656 29.808594 55.316406 29.984375 55.898438 C 30.15625 56.484375 30.359375 57.058594 30.589844 57.625 C 30.820312 58.191406 31.078125 58.742188 31.363281 59.28125 C 31.648438 59.820312 31.960938 60.347656 32.296875 60.855469 C 32.632812 61.363281 32.996094 61.855469 33.378906 62.328125 C 33.765625 62.800781 34.171875 63.253906 34.601562 63.6875 C 35.03125 64.121094 35.480469 64.535156 35.953125 64.921875 C 36.421875 65.3125 36.910156 65.675781 37.417969 66.019531 C 37.921875 66.359375 38.445312 66.675781 38.980469 66.964844 C 39.519531 67.253906 40.070312 67.515625 40.632812 67.753906 C 41.195312 67.988281 41.769531 68.195312 42.351562 68.375 C 42.933594 68.554688 43.527344 68.703125 44.125 68.824219 C 44.722656 68.945312 45.324219 69.035156 45.933594 69.097656 C 46.539062 69.160156 47.148438 69.191406 47.757812 69.191406 C 48.367188 69.195312 48.976562 69.167969 49.585938 69.109375 C 50.191406 69.050781 50.796875 68.960938 51.394531 68.84375 C 51.992188 68.726562 52.585938 68.582031 53.167969 68.40625 C 53.753906 68.230469 54.328125 68.023438 54.894531 67.792969 C 55.457031 67.558594 56.007812 67.300781 56.546875 67.015625 C 57.085938 66.726562 57.609375 66.414062 58.117188 66.078125 C 58.625 65.738281 59.117188 65.375 59.589844 64.988281 C 60.0625 64.605469 60.511719 64.195312 60.945312 63.765625 C 61.378906 63.332031 61.789062 62.882812 62.175781 62.410156 C 62.5625 61.9375 62.925781 61.449219 63.265625 60.941406 C 63.605469 60.4375 63.917969 59.914062 64.207031 59.375 C 64.496094 58.835938 64.757812 58.285156 64.992188 57.722656 C 65.226562 57.160156 65.429688 56.585938 65.609375 56 C 65.785156 55.417969 65.933594 54.828125 66.054688 54.226562 C 66.171875 53.628906 66.261719 53.027344 66.324219 52.417969 C 66.382812 51.8125 66.414062 51.203125 66.414062 50.59375 C 66.414062 49.984375 66.386719 49.382812 66.328125 48.777344 C 66.269531 48.171875 66.183594 47.574219 66.066406 46.976562 C 65.949219 46.382812 65.804688 45.792969 65.628906 45.214844 C 65.457031 44.632812 65.253906 44.0625 65.023438 43.5 C 64.792969 42.9375 64.535156 42.390625 64.253906 41.851562 C 63.96875 41.316406 63.660156 40.796875 63.324219 40.289062 C 62.988281 39.785156 62.628906 39.296875 62.246094 38.828125 C 61.863281 38.355469 61.457031 37.90625 61.03125 37.476562 C 60.601562 37.042969 60.15625 36.636719 59.6875 36.25 C 59.21875 35.863281 58.734375 35.5 58.230469 35.160156 C 57.730469 34.820312 57.210938 34.507812 56.675781 34.21875 C 56.144531 33.929688 55.597656 33.667969 55.035156 33.433594 C 54.476562 33.199219 53.90625 32.992188 53.328125 32.816406 C 52.746094 32.636719 52.160156 32.484375 51.566406 32.363281 C 50.972656 32.242188 50.371094 32.152344 49.769531 32.089844 C 49.164062 32.027344 48.5625 31.996094 47.953125 31.992188 Z M 47.96875 31.992188 " fill-opacity="1" fill-rule="nonzero"/></svg>